<?xml version="1.0" encoding="utf-8"?>
<!-- Generator: Adobe Illustrator 19.0.0, SVG Export Plug-In . SVG Version: 6.00 Build 0)  -->
<svg version="1.1" id="Layer_1" xmlns="http://www.w3.org/2000/svg" xmlns:xlink="http://www.w3.org/1999/xlink" x="0px" y="0px"
	 viewBox="-88.9 402.3 160 36.9" style="enable-background:new -88.9 402.3 160 36.9;" xml:space="preserve">
<style type="text/css">
	.st0{fill:#DF2027;}
</style>
<g>
	<g id="XMLID_95_">
		<path id="XMLID_138_" class="st0" d="M-79.7,423c-0.3,0.2-0.6,0.4-0.9,0.4h-2.2v9.8c0,0.4-0.2,0.8-0.4,1.1
			c-0.3,0.3-0.7,0.4-1.1,0.4s-0.8-0.2-1.1-0.4c-0.3-0.3-0.4-0.7-0.4-1.1v-9.8h-3.1v-2.7h8.2c0.4,0,0.7,0.1,0.9,0.4
			c0.3,0.3,0.4,0.6,0.4,0.9S-79.5,422.7-79.7,423z"/>
		<path id="XMLID_135_" class="st0" d="M-72.2,431.4c-0.3,0.7-0.6,1.2-1.1,1.7c-0.4,0.5-1,0.9-1.6,1.2s-1.3,0.4-2.1,0.4
			c-0.7,0-1.4-0.2-2.1-0.4s-1.2-0.7-1.6-1.2c-0.4-0.5-0.8-1.1-1.1-1.7c-0.3-0.7-0.4-1.3-0.4-2.1s0.1-1.4,0.4-2.1
			c0.3-0.7,0.6-1.2,1.1-1.7c0.4-0.5,1-0.9,1.6-1.2s1.3-0.4,2.1-0.4c0.7,0,1.4,0.2,2.1,0.4s1.2,0.7,1.6,1.2c0.4,0.5,0.8,1.1,1.1,1.7
			c0.3,0.7,0.4,1.3,0.4,2.1S-72,430.8-72.2,431.4z M-74.9,428.4c-0.1-0.3-0.2-0.6-0.4-0.9c-0.2-0.3-0.4-0.5-0.7-0.7
			c-0.3-0.2-0.6-0.2-0.9-0.2c-0.4,0-0.7,0.1-0.9,0.2c-0.3,0.2-0.5,0.4-0.7,0.7c-0.2,0.3-0.3,0.6-0.4,0.9c-0.1,0.3-0.1,0.7-0.1,0.9
			c0,0.3,0.1,0.7,0.1,1s0.2,0.7,0.4,0.9c0.2,0.3,0.4,0.5,0.7,0.7c0.3,0.2,0.6,0.3,0.9,0.3c0.4,0,0.7-0.1,1-0.3
			c0.3-0.2,0.5-0.4,0.7-0.7s0.3-0.6,0.4-0.9c0.1-0.3,0.1-0.7,0.1-1C-74.8,429.1-74.8,428.7-74.9,428.4z"/>
		<path id="XMLID_132_" class="st0" d="M-70.4,424.4c0.3-0.3,0.6-0.4,1.1-0.4s0.7,0.2,0.9,0.4s0.3,0.6,0.3,0.9
			c0.3-0.4,0.7-0.8,1.2-1s1-0.3,1.6-0.3c0.7,0,1.4,0.2,1.9,0.4c0.6,0.3,1.1,0.7,1.4,1.2c0.4,0.5,0.7,1.1,0.9,1.7s0.3,1.3,0.3,1.9
			s-0.1,1.3-0.3,2c-0.2,0.6-0.6,1.2-0.9,1.7c-0.4,0.5-0.9,0.9-1.5,1.2c-0.6,0.3-1.2,0.4-2,0.4c-0.9,0-1.7-0.3-2.4-1v5.2h-2.9v-13.3
			C-70.7,425.1-70.6,424.7-70.4,424.4z M-67.8,430.2c0.1,0.3,0.2,0.7,0.3,0.9c0.2,0.3,0.4,0.5,0.7,0.7c0.3,0.2,0.6,0.3,1,0.3
			c0.3,0,0.7-0.1,0.9-0.2c0.3-0.2,0.5-0.4,0.7-0.6c0.2-0.3,0.3-0.6,0.4-0.9c0.1-0.3,0.1-0.7,0.1-0.9c0-0.3-0.1-0.7-0.1-1
			c-0.1-0.3-0.2-0.6-0.4-0.9c-0.2-0.3-0.4-0.4-0.7-0.6c-0.3-0.2-0.6-0.2-0.9-0.2c-0.4,0-0.7,0.1-0.9,0.2c-0.3,0.2-0.5,0.3-0.7,0.6
			s-0.3,0.5-0.4,0.8c-0.1,0.3-0.1,0.6-0.1,0.9S-67.9,429.9-67.8,430.2z"/>
		<path id="XMLID_129_" class="st0" d="M-59.6,424.4c0.3-0.3,0.6-0.4,1.1-0.4c0.4,0,0.7,0.2,0.9,0.4s0.3,0.6,0.3,0.9
			c0.3-0.4,0.7-0.8,1.2-1c0.5-0.2,1-0.3,1.6-0.3c0.7,0,1.4,0.2,1.9,0.4c0.6,0.3,1.1,0.7,1.4,1.2c0.4,0.5,0.7,1.1,0.9,1.7
			c0.2,0.7,0.3,1.3,0.3,1.9s-0.1,1.3-0.3,2c-0.2,0.6-0.6,1.2-0.9,1.7c-0.4,0.5-0.9,0.9-1.5,1.2s-1.2,0.4-2,0.4c-0.9,0-1.7-0.3-2.4-1
			v5.2H-60v-13.3C-60,425.1-59.9,424.7-59.6,424.4z M-57,430.2c0.1,0.3,0.2,0.7,0.3,0.9c0.2,0.3,0.4,0.5,0.7,0.7
			c0.3,0.2,0.6,0.3,1,0.3c0.3,0,0.7-0.1,0.9-0.2c0.3-0.2,0.5-0.4,0.7-0.6c0.2-0.3,0.3-0.6,0.4-0.9c0.1-0.3,0.1-0.7,0.1-0.9
			c0-0.3-0.1-0.7-0.1-1c-0.1-0.3-0.2-0.6-0.4-0.9s-0.4-0.4-0.7-0.6c-0.2-0.2-0.6-0.2-0.9-0.2c-0.4,0-0.7,0.1-0.9,0.2
			c-0.3,0.2-0.5,0.3-0.7,0.6s-0.3,0.5-0.4,0.8s-0.1,0.6-0.1,0.9S-57.1,429.9-57,430.2z"/>
		<path id="XMLID_126_" class="st0" d="M-49.3,434.5v-9c0-0.4,0.2-0.8,0.4-1.1c0.3-0.3,0.7-0.4,1.1-0.4c0.2,0,0.4,0.1,0.6,0.1
			c0.2,0.1,0.3,0.2,0.4,0.3c0.1,0.1,0.2,0.3,0.3,0.4c0.1,0.2,0.1,0.4,0.1,0.6v9L-49.3,434.5L-49.3,434.5z M-47.1,420.8
			c0.2,0.2,0.3,0.4,0.3,0.8s-0.1,0.6-0.3,0.8c-0.2,0.2-0.4,0.3-0.8,0.3c-0.3,0-0.6-0.1-0.8-0.3c-0.2-0.2-0.3-0.4-0.3-0.8
			c0-0.3,0.1-0.6,0.3-0.8c0.2-0.2,0.4-0.3,0.8-0.3C-47.5,420.5-47.3,420.6-47.1,420.8z"/>
		<path id="XMLID_124_" class="st0" d="M-35.8,433.8c-0.1,0.2-0.2,0.3-0.3,0.5c-0.1,0.1-0.3,0.2-0.4,0.3c-0.2,0.1-0.4,0.1-0.6,0.1
			c-0.4,0-0.8-0.2-1.1-0.4c-0.3-0.3-0.4-0.6-0.4-1.1v-4.9c0-0.5-0.2-0.9-0.5-1.2s-0.8-0.5-1.2-0.5c-0.5,0-0.9,0.2-1.2,0.5
			c-0.3,0.3-0.5,0.8-0.5,1.2v6.2h-3v-9c0-0.2,0.1-0.4,0.1-0.6c0.1-0.2,0.2-0.3,0.3-0.5c0.1-0.2,0.3-0.3,0.4-0.3
			c0.2-0.1,0.4-0.1,0.6-0.1c0.4,0,0.7,0.2,0.9,0.4c0.2,0.3,0.3,0.6,0.3,0.9c0.3-0.4,0.7-0.8,1.2-1c0.5-0.2,1-0.3,1.6-0.3
			c0.6,0,1.1,0.1,1.6,0.3c0.5,0.2,0.9,0.4,1.3,0.8s0.7,0.7,0.8,1.2c0.2,0.4,0.3,1,0.3,1.6v5.4C-35.7,433.4-35.7,433.6-35.8,433.8z"
			/>
		<path id="XMLID_121_" class="st0" d="M-24.8,435.7c-0.2,0.7-0.6,1.3-1.1,1.8c-0.4,0.5-1,0.9-1.7,1.2c-0.7,0.3-1.4,0.4-2.3,0.4
			c-0.3,0-0.7,0-1.1-0.1c-0.4-0.1-0.7-0.1-1.1-0.2l-0.1-0.1l-0.1-0.1c0-0.1,0-0.2,0.1-0.4c0-0.2,0.1-0.5,0.1-0.8
			c0.1-0.3,0.1-0.6,0.1-0.8c0.1-0.2,0.1-0.4,0.1-0.4c0.3,0.1,0.7,0.2,1.1,0.2c0.3,0.1,0.7,0.1,1.1,0.1c0.8,0,1.4-0.2,1.8-0.7
			c0.4-0.5,0.6-1.1,0.6-1.8c0-0.1,0-0.2,0-0.3c-0.3,0.3-0.7,0.6-1.1,0.8c-0.4,0.2-0.9,0.3-1.3,0.3c-0.7,0-1.4-0.2-1.9-0.4
			c-0.6-0.3-1.1-0.7-1.5-1.2c-0.4-0.5-0.7-1.1-0.9-1.7c-0.2-0.6-0.3-1.3-0.3-2c0-0.7,0.1-1.4,0.3-2c0.2-0.7,0.6-1.2,0.9-1.8
			c0.4-0.5,0.9-0.9,1.5-1.2c0.6-0.3,1.3-0.4,2-0.4c0.6,0,1.1,0.1,1.5,0.3c0.5,0.2,0.9,0.6,1.2,1c0.1-0.4,0.2-0.7,0.3-0.9
			c0.2-0.3,0.4-0.4,0.9-0.4c0.5,0,0.8,0.2,1.1,0.4c0.2,0.3,0.3,0.7,0.3,1.1v7.9C-24.4,434.3-24.6,435-24.8,435.7z M-27.3,428.7
			c-0.1-0.2-0.1-0.5-0.2-0.7c-0.1-0.2-0.2-0.4-0.3-0.6c-0.2-0.2-0.3-0.3-0.6-0.5c-0.3-0.2-0.6-0.2-0.9-0.2c-0.4,0-0.7,0.1-1,0.2
			c-0.3,0.2-0.5,0.3-0.7,0.6c-0.2,0.2-0.3,0.6-0.4,0.8c-0.1,0.3-0.1,0.7-0.1,1s0.1,0.7,0.1,1c0.1,0.3,0.2,0.6,0.4,0.9
			c0.2,0.3,0.4,0.5,0.7,0.6c0.3,0.2,0.6,0.2,1,0.2c0.3,0,0.7-0.1,0.9-0.2c0.3-0.2,0.5-0.4,0.7-0.6c0.2-0.2,0.3-0.6,0.4-0.8
			c0.1-0.3,0.1-0.6,0.1-0.9C-27.2,429.2-27.2,428.9-27.3,428.7z"/>
		<path id="XMLID_119_" class="st0" d="M-14.9,434.1c-0.3,0.2-0.6,0.4-0.9,0.4h-6.6c-0.3,0-0.7-0.1-0.9-0.2
			c-0.3-0.2-0.4-0.4-0.4-0.8c0-0.3,0.1-0.5,0.3-0.8l4.3-5.8h-4.2v-2.6h7.3c0.3,0,0.6,0.1,0.9,0.2c0.2,0.2,0.4,0.4,0.4,0.8
			c0,0.2,0,0.3-0.1,0.4s-0.1,0.2-0.2,0.3l-4.3,5.9h3.6c0.4,0,0.7,0.1,0.9,0.4c0.3,0.2,0.4,0.6,0.4,0.9
			C-14.4,433.5-14.6,433.9-14.9,434.1z"/>
		<path id="XMLID_117_" class="st0" d="M-7.3,420.7c0.1-0.3,0.3-0.4,0.6-0.6c0.2-0.2,0.5-0.2,0.8-0.2c0.4,0,0.7,0.2,0.9,0.4
			c0.3,0.3,0.4,0.6,0.4,1c0,0.2-0.1,0.4-0.1,0.6l-1.8,4l-2.6-1.2L-7.3,420.7z"/>
		<path id="XMLID_115_" class="st0" d="M4.9,433.8c-0.1,0.2-0.2,0.3-0.3,0.5c-0.1,0.1-0.3,0.2-0.4,0.3c-0.2,0.1-0.4,0.1-0.6,0.1
			c-0.4,0-0.8-0.2-1.1-0.4s-0.4-0.6-0.4-1.1v-4.9c0-0.5-0.2-0.9-0.5-1.2c-0.3-0.3-0.8-0.5-1.2-0.5c-0.5,0-0.9,0.2-1.2,0.5
			c-0.3,0.3-0.5,0.8-0.5,1.2v6.2h-2.9v-9c0-0.2,0.1-0.4,0.1-0.6c0.1-0.2,0.2-0.3,0.3-0.5c0.1-0.2,0.3-0.3,0.4-0.3
			c0.2-0.1,0.4-0.1,0.6-0.1c0.4,0,0.7,0.2,0.9,0.4s0.3,0.6,0.3,0.9c0.3-0.4,0.7-0.8,1.2-1c0.5-0.2,1-0.3,1.6-0.3s1.1,0.1,1.6,0.3
			c0.5,0.2,0.9,0.4,1.3,0.8c0.4,0.3,0.7,0.7,0.8,1.2c0.2,0.4,0.3,1,0.3,1.6v5.4C5,433.4,5,433.6,4.9,433.8z"/>
		<path id="XMLID_113_" class="st0" d="M14.3,423.4v3h3.1c0.4,0,0.7,0.1,0.9,0.4c0.3,0.3,0.4,0.6,0.4,0.9c0,0.4-0.1,0.7-0.4,0.9
			c-0.3,0.2-0.6,0.4-0.9,0.4h-3.1v5.4h-3.1v-12.3c0-0.4,0.2-0.8,0.4-1.1c0.3-0.3,0.7-0.4,1.1-0.4h6.1v2.7
			C18.8,423.4,14.3,423.4,14.3,423.4z"/>
		<path id="XMLID_110_" class="st0" d="M19.5,434.5v-9c0-0.4,0.2-0.8,0.4-1.1c0.3-0.3,0.7-0.4,1.1-0.4c0.2,0,0.4,0.1,0.6,0.1
			c0.2,0.1,0.3,0.2,0.4,0.3c0.1,0.1,0.2,0.3,0.3,0.4c0.1,0.2,0.1,0.4,0.1,0.6v9L19.5,434.5L19.5,434.5z M21.7,420.8
			c0.2,0.2,0.3,0.4,0.3,0.8s-0.1,0.6-0.3,0.8c-0.2,0.2-0.4,0.3-0.8,0.3c-0.3,0-0.6-0.1-0.8-0.3c-0.2-0.2-0.3-0.4-0.3-0.8
			c0-0.3,0.1-0.6,0.3-0.8c0.2-0.2,0.4-0.3,0.8-0.3C21.2,420.5,21.5,420.6,21.7,420.8z"/>
		<path id="XMLID_108_" class="st0" d="M23.5,434.5V421c0-0.4,0.2-0.8,0.4-1.1c0.3-0.3,0.7-0.4,1.1-0.4c0.4,0,0.8,0.2,1.1,0.4
			c0.3,0.3,0.4,0.7,0.4,1.1v13.5H23.5z"/>
		<path id="XMLID_106_" class="st0" d="M27.6,434.5V421c0-0.4,0.2-0.8,0.4-1.1c0.3-0.3,0.7-0.4,1.1-0.4c0.4,0,0.8,0.2,1.1,0.4
			c0.3,0.3,0.4,0.7,0.4,1.1v13.5H27.6z"/>
		<path id="XMLID_103_" class="st0" d="M31.6,434.5v-9c0-0.4,0.2-0.8,0.4-1.1c0.3-0.3,0.7-0.4,1.1-0.4c0.2,0,0.4,0.1,0.6,0.1
			c0.2,0.1,0.3,0.2,0.4,0.3c0.1,0.1,0.2,0.3,0.3,0.4c0.1,0.2,0.1,0.4,0.1,0.6v9L31.6,434.5L31.6,434.5z M33.7,420.8
			c0.2,0.2,0.3,0.4,0.3,0.8s-0.1,0.6-0.3,0.8c-0.2,0.2-0.4,0.3-0.8,0.3c-0.3,0-0.6-0.1-0.8-0.3c-0.2-0.2-0.3-0.4-0.3-0.8
			c0-0.3,0.1-0.6,0.3-0.8c0.2-0.2,0.4-0.3,0.8-0.3C33.3,420.5,33.6,420.6,33.7,420.8z"/>
		<path id="XMLID_101_" class="st0" d="M45.1,433.8c-0.1,0.2-0.2,0.3-0.3,0.5c-0.1,0.1-0.3,0.2-0.4,0.3c-0.2,0.1-0.4,0.1-0.6,0.1
			c-0.4,0-0.8-0.2-1.1-0.4c-0.3-0.3-0.4-0.6-0.4-1.1v-4.9c0-0.5-0.2-0.9-0.5-1.2c-0.3-0.3-0.8-0.5-1.2-0.5c-0.5,0-0.9,0.2-1.2,0.5
			c-0.3,0.3-0.5,0.8-0.5,1.2v6.2h-2.9v-9c0-0.2,0.1-0.4,0.1-0.6c0.1-0.2,0.2-0.3,0.3-0.5c0.1-0.2,0.3-0.3,0.4-0.3s0.4-0.1,0.6-0.1
			c0.4,0,0.7,0.2,0.9,0.4c0.2,0.3,0.3,0.6,0.3,0.9c0.3-0.4,0.7-0.8,1.2-1c0.5-0.2,1-0.3,1.6-0.3c0.6,0,1.1,0.1,1.6,0.3
			c0.5,0.2,0.9,0.4,1.3,0.8c0.4,0.3,0.7,0.7,0.8,1.2c0.2,0.4,0.3,1,0.3,1.6v5.4C45.2,433.4,45.2,433.6,45.1,433.8z"/>
		<path id="XMLID_98_" class="st0" d="M56.1,435.7c-0.2,0.7-0.6,1.3-1.1,1.8c-0.4,0.5-1,0.9-1.7,1.2c-0.7,0.3-1.4,0.4-2.3,0.4
			c-0.3,0-0.7,0-1.1-0.1s-0.7-0.1-1.1-0.2l-0.1-0.1l-0.1-0.1c0-0.1,0-0.2,0.1-0.4c0-0.2,0.1-0.5,0.1-0.8c0.1-0.3,0.1-0.6,0.1-0.8
			c0.1-0.2,0.1-0.4,0.1-0.4c0.3,0.1,0.7,0.2,1.1,0.2c0.3,0.1,0.7,0.1,1.1,0.1c0.8,0,1.4-0.2,1.8-0.7c0.4-0.5,0.6-1.1,0.6-1.8
			c0-0.1,0-0.2,0-0.3c-0.3,0.3-0.7,0.6-1.1,0.8c-0.4,0.2-0.9,0.3-1.3,0.3c-0.7,0-1.4-0.2-1.9-0.4c-0.6-0.3-1.1-0.7-1.5-1.2
			c-0.4-0.5-0.7-1.1-0.9-1.7s-0.3-1.3-0.3-2c0-0.7,0.1-1.4,0.3-2s0.6-1.2,0.9-1.8c0.4-0.5,0.9-0.9,1.5-1.2c0.6-0.3,1.3-0.4,2-0.4
			c0.6,0,1.1,0.1,1.5,0.3c0.5,0.2,0.9,0.6,1.2,1c0.1-0.4,0.2-0.7,0.3-0.9c0.2-0.3,0.4-0.4,0.9-0.4c0.5,0,0.8,0.2,1.1,0.4
			c0.2,0.3,0.3,0.7,0.3,1.1v7.9C56.4,434.3,56.3,435,56.1,435.7z M53.6,428.7c-0.1-0.2-0.1-0.5-0.2-0.7c-0.1-0.2-0.2-0.4-0.3-0.6
			c-0.2-0.2-0.3-0.3-0.6-0.5c-0.3-0.2-0.6-0.2-0.9-0.2c-0.4,0-0.7,0.1-1,0.2c-0.3,0.2-0.5,0.3-0.7,0.6c-0.2,0.2-0.3,0.6-0.4,0.8
			c-0.1,0.3-0.1,0.7-0.1,1s0.1,0.7,0.1,1c0.1,0.3,0.2,0.6,0.4,0.9c0.2,0.3,0.4,0.5,0.7,0.6c0.3,0.2,0.6,0.2,1,0.2
			c0.3,0,0.7-0.1,0.9-0.2c0.3-0.2,0.5-0.4,0.7-0.6c0.2-0.2,0.3-0.6,0.4-0.8c0.1-0.3,0.1-0.6,0.1-0.9
			C53.6,429.2,53.6,428.9,53.6,428.7z"/>
		<path id="XMLID_96_" class="st0" d="M65.9,434.1c-0.3,0.2-0.6,0.4-0.9,0.4h-6.6c-0.3,0-0.7-0.1-0.9-0.2c-0.3-0.2-0.4-0.4-0.4-0.8
			c0-0.3,0.1-0.5,0.3-0.8l4.3-5.8h-4.2v-2.6h7.3c0.3,0,0.6,0.1,0.9,0.2c0.2,0.2,0.4,0.4,0.4,0.8c0,0.2,0,0.3-0.1,0.4
			c-0.1,0.1-0.1,0.2-0.2,0.3l-4.3,5.9h3.6c0.4,0,0.7,0.1,0.9,0.4c0.3,0.2,0.4,0.6,0.4,0.9C66.4,433.5,66.2,433.9,65.9,434.1z"/>
	</g>
	<g>
		<g>
			<path class="st0" d="M69.9,427.2l-0.6-0.7c0.2-0.1,0.3-0.1,0.4-0.2c0.1-0.1,0.2-0.3,0.2-0.4c0-0.1,0-0.2-0.1-0.3
				c-0.1-0.1-0.1-0.2-0.2-0.2c-0.1-0.1-0.2-0.1-0.3-0.2c-0.1-0.1-0.2-0.1-0.3-0.1h-0.9c0,0,0,0-0.1,0c0,0,0,0.1-0.1,0.1v0.1v0.1v2
				c0,0.1,0,0.2,0.1,0.2c0.1,0.1,0.1,0.1,0.2,0.1s0.2,0,0.2-0.1c0.1-0.1,0.1-0.1,0.1-0.2v-0.8l0.8,1c0,0,0,0,0.1,0.1l0.1,0.1
				c0,0,0.1,0,0.1-0.1c0.1,0,0.1-0.1,0.1-0.1c0.1-0.1,0.1-0.1,0.1-0.1c0.1-0.1,0.1-0.1,0.1-0.1C70,427.3,70,427.3,69.9,427.2
				C69.9,427.3,69.9,427.2,69.9,427.2z M69,425.6c0.1,0,0.2,0.1,0.2,0.1s0.1,0.1,0.1,0.2c0,0.1,0,0.2-0.1,0.2
				c-0.1,0.1-0.1,0.1-0.2,0.1h-0.4v-0.6H69V425.6z"/>
			<path class="st0" d="M70.9,425.4c-0.1-0.3-0.3-0.5-0.4-0.7c-0.2-0.2-0.4-0.3-0.7-0.4c-0.3-0.1-0.6-0.2-0.8-0.2
				c-0.3,0-0.6,0.1-0.8,0.2c-0.3,0.1-0.5,0.3-0.7,0.4c-0.2,0.2-0.3,0.4-0.4,0.7c-0.1,0.3-0.2,0.6-0.2,0.8s0.1,0.6,0.2,0.8
				c0.1,0.3,0.3,0.5,0.4,0.7s0.4,0.3,0.7,0.4c0.3,0.1,0.6,0.2,0.8,0.2c0.3,0,0.6-0.1,0.8-0.2c0.3-0.1,0.5-0.3,0.7-0.4
				c0.2-0.2,0.3-0.4,0.4-0.7c0.1-0.3,0.2-0.6,0.2-0.8S71,425.7,70.9,425.4z M68.9,428.1c-0.2,0-0.5-0.1-0.7-0.2
				c-0.2-0.1-0.4-0.2-0.6-0.4c-0.2-0.2-0.3-0.3-0.4-0.6c-0.1-0.2-0.1-0.4-0.1-0.7s0.1-0.4,0.1-0.7c0.1-0.2,0.2-0.4,0.4-0.6
				c0.2-0.2,0.3-0.3,0.6-0.4c0.2-0.1,0.4-0.2,0.7-0.2s0.5,0.1,0.7,0.2c0.2,0.1,0.4,0.2,0.6,0.4c0.2,0.2,0.3,0.3,0.4,0.6
				s0.1,0.4,0.1,0.7s-0.1,0.5-0.1,0.7c-0.1,0.2-0.2,0.4-0.4,0.6c-0.2,0.2-0.3,0.3-0.6,0.4C69.4,428,69.2,428.1,68.9,428.1z"/>
		</g>
	</g>
	<g>
		<path class="st0" d="M53.8,418.6c0.1,0,0.2-0.1,0.2-0.2c0.1-0.1-0.1-0.2-0.2-0.3c-1-0.2-2.1-0.5-3.2-0.7c-0.1,0-0.2,0.1-0.3,0.2
			c0,0.1,0.1,0.2,0.2,0.3C51.7,418.1,52.8,418.3,53.8,418.6C53.8,418.6,53.8,418.6,53.8,418.6z"/>
		<path class="st0" d="M-34.8,406.2c-0.1-0.3-0.4-0.6-0.8-0.7c-0.1,0.1-0.2,0.2-0.2,0.3c0.2,0.2,0.6,0.2,0.7,0.4L-34.8,406.2z"/>
		<path class="st0" d="M-30.4,409.4c0,0.1,0,0.1,0.1,0.1c0.3,0.1,0.6-0.1,0.7-0.2v-0.1l-0.5-0.1L-30.4,409.4z"/>
		<path class="st0" d="M-28.4,410c0.1,0.3,0.7,0.1,0.8-0.1c0.1-0.1,0-0.1,0-0.2c-0.1-0.1-0.1-0.1-0.3-0.1
			C-28.1,409.7-28.3,409.7-28.4,410z"/>
		<path class="st0" d="M-32.9,413.8c0.1,0.1,0.4,0.2,0.5-0.1c-0.1-0.1-0.2-0.2-0.4-0.2C-32.8,413.7-32.9,413.7-32.9,413.8z"/>
		<path class="st0" d="M-35.2,413.5l-0.1,0.2c0.1,0.3,0.6,0.3,0.8,0.2l0,0l-0.4-0.1L-35.2,413.5z"/>
		<path class="st0" d="M-26.2,413L-26.2,413c0.1,0.1,0.1,0.1,0.3,0.1l0.1-0.2c-0.1-0.1-0.1-0.1-0.2-0.1L-26.2,413z"/>
		<path class="st0" d="M-34.8,413h0.3c0.1,0,0.1-0.2,0.1-0.2c-0.1-0.1-0.3-0.1-0.5-0.1c-0.2,0.1-0.5,0.2-0.3,0.4
			C-35,413.1-35,413-34.8,413z"/>
		<path class="st0" d="M-32.7,412.3c-0.1-0.1-0.2-0.1-0.3-0.1c-0.4,0.2-0.8-0.1-0.6,0.6c0.3,0.1,0.6-0.1,0.8-0.1
			C-32.8,412.7-32.7,412.5-32.7,412.3z"/>
		<path class="st0" d="M-30.1,412.1l-0.1,0.1c-0.1,0.3,0.3,0.3,0.4,0.1C-29.7,412.1-29.8,412.1-30.1,412.1z"/>
		<path class="st0" d="M-24.9,410.9c-0.1,0.1-0.1,0.1-0.1,0.3c-0.3,0-0.4,0.1-0.5,0.2l-0.3-0.1l-0.1,0.1c0.3,0.2,0.7-0.1,1.1-0.2
			c0.1-0.1,0.1-0.2,0.1-0.3L-24.9,410.9z"/>
		<path class="st0" d="M-33.2,410.3l0.1-0.2c-0.1-0.1-0.3-0.1-0.5-0.1c-0.1,0.1-0.2,0.1-0.3,0.2c-0.1,0-1-0.2-0.8,0.1
			c0,0.1,0.6,0.1,0.7,0.2c0.2,0,0.3-0.2,0.4-0.2H-33.2z"/>
		<path class="st0" d="M-31.8,410.2l-0.2-0.1c-0.1,0.1-0.1,0.1-0.1,0.3C-31.8,410.5-31.7,410.3-31.8,410.2z"/>
		<path class="st0" d="M-32.5,409.7c-0.1-0.1-0.2-0.1-0.4-0.1c-0.1,0.1-0.1,0.2-0.1,0.3c0.1,0.1,0.2,0.1,0.3,0.1L-32.5,409.7z"/>
		<path class="st0" d="M-36.7,409.3c-0.1-0.1-0.1-0.1-0.2-0.1c-0.2,0.1-0.3,0.2-0.4,0.4l0.1,0.1C-36.9,409.7-36.7,409.5-36.7,409.3z
			"/>
		<path class="st0" d="M-32.2,409.5c0,0.1,0.1,0.1,0.1,0.1c0.2,0,0.7-0.2,0.6-0.4l-0.1-0.1h-0.1C-31.8,409.2-32.2,409.3-32.2,409.5z
			"/>
		<path class="st0" d="M-26.1,409c0.1-0.1,0.1-0.1,0.1-0.2l-0.4-0.1c-0.1,0.1-0.1,0.2-0.1,0.3C-26.4,409-26.2,409-26.1,409z"/>
		<path class="st0" d="M-33.7,408.7c0.2-0.1,0.2-0.4-0.1-0.5c-0.2,0.1-0.4,0.2-0.6,0.3C-34.3,408.8-33.9,408.9-33.7,408.7z"/>
		<path class="st0" d="M-29.8,408.2l0.4-0.2l0.4,0.1c0.1,0,0.1-0.1,0.1-0.2c-0.1-0.1-0.3-0.2-0.5-0.1l-0.4,0.2
			c-0.3,0.1-0.7-0.3-0.8,0.1C-30.6,408.2-29.9,408.3-29.8,408.2z"/>
		<path class="st0" d="M-30.2,412.8l-0.5-0.1c-0.2-0.1-0.3-0.1-0.5-0.1c-0.3,0.2,0,0.2-0.1,0.4c-0.1,0.1-0.2,0.3-0.1,0.4
			c0.1,0.2,0.7,0.2,1.1,0.2C-30.2,413.6-29.9,413-30.2,412.8z M-31.2,413.3l0.1-0.4l0.6,0.1l0,0C-30.2,413.8-30.8,413.3-31.2,413.3z
			"/>
		<path class="st0" d="M-26.7,412.7c-0.3,0.2-1.1,0.1-1.6,0.1c-0.1,0.2-0.1,0.4-0.1,0.6c0.3,0.1,1.4,0.2,1.7,0.1
			C-26.5,413.3-26.4,412.8-26.7,412.7z M-26.9,413.2h-1.3v-0.3c0.4,0,0.8,0.1,1.3,0.1V413.2z"/>
		<path class="st0" d="M-36.8,410.3c0.3,0.1,0.6-0.2,0.8-0.2c0.8-0.1,0.8,0.4,1.6-0.1c0.6-0.4,0.4-1.1-0.5-1.1
			c-0.5,0.2-1.5,0.3-1.2,1.1c-0.3,0-0.6,0.1-0.8,0.2L-36.8,410.3z M-35.2,409.2c0.3,0,0.6,0.1,0.8,0.2c0.1,1.2-1.1,0.4-1.5,0.3l0,0
			C-35.9,409.3-35.4,409.3-35.2,409.2z"/>
		<path class="st0" d="M-31.9,410.7c-0.1,0.2,0,0.4,0.1,0.5c0.3,0.2,2.1,0.3,2.3,0.1c0.5-0.5-0.1-1-0.8-1c-0.1,0.1-0.3,0-0.5,0
			C-31.2,410.3-31.8,410.3-31.9,410.7z M-31.6,410.6c0.4-0.2,1.9-0.4,1.9,0.2c-0.4,0-0.1,0.3-0.5,0.3c-0.2,0-1.2-0.2-1.4-0.3
			L-31.6,410.6z"/>
		<path class="st0" d="M-34.8,411.1l-0.5,0.3l-0.8,0.7c0.1,0.3,0.4,0.6,0.7,0.4l0.3-0.4l0.7-0.6C-34.4,411.3-34.6,411.2-34.8,411.1z
			 M-34.8,411.7c-0.2,0.2-0.7,0.8-0.9,0.6l-0.2-0.2c0.3-0.2,0.4-0.4,1-0.7l0.1,0.1l0,0L-34.8,411.7z"/>
		<path class="st0" d="M-32.5,408.8c0.1,0,0.4,0.1,0.6,0.1c0.4-0.2,0.2-0.9-0.2-1c-0.4,0.2-1.1,0-1,0.5c0,0.1,0.1,0.3,0.1,0.3
			L-32.5,408.8z M-32.1,408.2c0,0.4-0.3,0.3-0.7,0.3C-32.8,408.2-32.4,408.1-32.1,408.2z"/>
		<path class="st0" d="M-30.7,412.5c0.1-0.1,0.2-0.3,0.2-0.4c-0.1-0.1-1.5-0.3-1.8-0.3c-0.1,0.1-0.4,0.4-0.1,0.6h0.5l0.4,0.2
			C-31.3,412.6-30.9,412.5-30.7,412.5z M-31.7,412.1c-0.2-0.1-0.4,0-0.7,0l0.1-0.1l0.4-0.1c0.2,0,0.3,0.1,0.5,0.2h0.7l-0.1,0.2h-0.7
			L-31.7,412.1z"/>
		<path class="st0" d="M-25.8,410.2c0.2,0.1,0.6,0.3,0.9,0.2c0.5-0.6,0.4-0.6-0.2-1c-0.1-0.1-0.2-0.2-0.3-0.3
			c-0.2,0.2-0.4,0.4-0.6,0.7l0.1,0.1L-25.8,410.2z M-25.4,409.5l0.6,0.3v0.1l-0.2,0.4l-0.6-0.3L-25.4,409.5z"/>
		<path class="st0" d="M-37.1,411.8l-0.3,0.1c-0.2,0.2,0.3,0.6,0.5,0.4C-36.5,412.3-36.8,411.8-37.1,411.8z M-37.2,412.2
			L-37.2,412.2V412l0.2,0.1v0.1H-37.2z"/>
		<path class="st0" d="M-32.3,410.7c0.1-0.1,0.1-0.2,0.1-0.3c-0.1-0.1-0.4-0.1-0.7-0.1l-0.1,0.1C-33.2,410.8-32.7,410.7-32.3,410.7z
			 M-32.8,410.4L-32.8,410.4h0.4l-0.1,0.2c-0.1,0.1-0.3,0-0.4,0L-32.8,410.4z"/>
		<path class="st0" d="M-33.5,411.5c0.2,0.1,0.7,0.3,1.1,0.2c0.2-0.1,0.3-0.4,0.4-0.5c-0.2-0.2-0.5-0.3-0.9-0.3
			C-33.2,411.1-33.4,411.2-33.5,411.5z M-33,411.1l0.7,0.2c-0.2,0.3-0.6,0.2-0.9,0.1L-33,411.1z"/>
		<path class="st0" d="M-27.2,408.3c0.1-0.1,0.2-0.2,0.2-0.4c-0.2-0.2-0.8-0.1-1.2-0.1l-0.1-0.1c-0.1,0.1-0.2,0.2-0.3,0.4l1,0.1
			C-27.5,408.3-27.4,408.4-27.2,408.3z M-27.3,408.1c-0.2,0.1-0.9,0-1-0.1C-28.1,408-27.4,407.9-27.3,408.1z"/>
		<path class="st0" d="M-25.6,410.9c0-0.3-0.1-0.3-0.4-0.3c-0.1,0.1-0.4,0.2-0.3,0.4C-26.1,411.4-25.7,411-25.6,410.9z M-25.9,410.8
			c0.1,0,0.1,0.1,0.2,0v0.1c-0.1,0.1-0.2,0.1-0.3,0.1C-26.1,410.9-26,410.8-25.9,410.8z"/>
		<path class="st0" d="M-35.4,410.7c-0.1-0.1-0.1-0.1-0.2-0.1c-0.4,0.2-1.8-0.3-1.9,0.2l0.1,0.5l0.8-0.2l1-0.1L-35.4,410.7z
			 M-35.8,411c-0.5,0-1.1,0-1.4,0.2l-0.1-0.3h1.5L-35.8,411z"/>
		<path class="st0" d="M-27.9,412.2c0.1,0,0.3,0,0.4,0s0.2,0,0.2,0c0.4,0,0.4-0.2,0.6-0.6c0-0.1,0.1-0.2,0.1-0.2
			c0.1-0.2,0.1-0.3,0-0.3c-0.1-0.1-0.3-0.1-0.5-0.1h-0.3c-0.1,0-0.2,0-0.3,0c-0.1,0-1,0.2-1.2,0.7c-0.1,0.1-0.1,0.2,0.1,0.3
			C-28.6,412.2-28.3,412.2-27.9,412.2z M-28.1,411.7c0.2-0.2,0.3-0.1,0.3-0.1c0.6-0.1,0.9-0.3,0.7-0.1c-0.3,0.3-0.1,0.3-0.5,0.3
			C-27.9,411.9-28.3,412-28.1,411.7z"/>
		<path class="st0" d="M-31.2,408.6c0.5,0.2,0.2-0.2-0.1-0.8c0,0-0.4-0.1-0.4,0.3C-31.6,408.4-31.6,408.4-31.2,408.6z"/>
		<polygon class="st0" points="-29.4,412.9 -28.8,413.2 -28.6,412.5 -29.2,412.3 		"/>
		<path class="st0" d="M-29,411.7c0-0.2-0.1-0.2-0.3-0.2l-0.1,0.1C-30.1,412.1-29.1,411.9-29,411.7z"/>
		<path class="st0" d="M-32.3,413l-0.3,0.2c-0.2,0.3,0.8,0.3,0.9,0.1C-31.6,413.1-31.8,413-32.3,413z"/>
		<path class="st0" d="M-23.9,410.4c0-0.2-0.1-0.2-0.3-0.2l-0.1,0.1C-24.4,410.6-23.9,410.6-23.9,410.4z"/>
		<path class="st0" d="M-24.5,407.1c0.1,0.1,0.2,0.1,0.3,0.2c0.3-0.2,0.6-0.5,0.8-0.6l-0.3-0.2c-0.2,0.2-0.3,0.1-0.5,0.3
			C-24.2,406.9-24.4,407-24.5,407.1z"/>
		<path class="st0" d="M-27.7,404.4l-0.3-0.1c-0.1,0.3-0.4,0.6-0.4,0.8c0,0.1-0.1,0.3-0.1,0.5c0.2,0,0.2,0,0.3,0
			C-28.3,405.3-27.9,404.7-27.7,404.4z"/>
		<path class="st0" d="M-24.1,405.7l-0.3-0.3c-0.3,0.2-0.4,0.2-0.7,0.4c-0.1,0.1-0.3,0.3-0.5,0.4c0.2,0.1,0.3,0.1,0.3,0.2
			C-24.9,406.2-24.5,405.9-24.1,405.7z"/>
		<path class="st0" d="M13.5,409l-0.1-0.2c-0.1-0.1-0.3-0.1-0.3-0.1c-0.1-0.1-0.1-0.2-0.1-0.4c-0.1-0.1-0.1-0.1-0.2-0.1
			c-0.1,0.1-0.1,0.1-0.2,0.2C12.6,409,13.1,409.1,13.5,409z"/>
		<path class="st0" d="M11.4,405.5L11.4,405.5c0.1-0.4-0.1-0.8-0.2-1.2l-0.2-0.1l-0.2,0.1c0.1,0.3,0.4,0.7,0.4,1.1L11.4,405.5z"/>
		<path class="st0" d="M16.8,406.5c0.2-0.4,0.6-0.6,0.8-0.9l-0.1-0.1h-0.2c-0.3,0.3-0.5,0.6-0.7,1H16.8L16.8,406.5z"/>
		<path class="st0" d="M10.8,408.9c0-0.1-0.1-0.1-0.2-0.1c0,0,0,0,0-0.1s0.1-0.1,0.1-0.1l0.5-0.2l-0.2,0.1l0,0l-0.1-0.1l-0.2,0.1
			l0.1-0.1l0.1-0.2c0-0.1,0.4-0.6,0.4-0.6l-0.4,0.5c0,0,0,0-0.1,0l-0.1,0.2l0,0c0,0.1-0.1-0.1-0.1-0.1h-0.1L10,408
			c0,0.1,0.2,0.3,0.3,0.4c0.1,0.1,0.1,0.1,0.1,0.1l0,0c-0.4,1.3-0.6-1.1-0.6,0.9l-0.6,0.4h0.2l0.6-0.3l0,0v0.1l0.2-0.1
			c0.2-0.1,0.2-0.3,0.3-0.4l0.6-0.2C11.1,408.9,10.9,409,10.8,408.9z"/>
		<path class="st0" d="M13.9,410.9c0,0.1,0.1,0.4,0.2,0.3s0.3-0.1,0.1-0.3C13.9,410.8,13.9,410.9,13.9,410.9z"/>
		<path class="st0" d="M49.6,417.2c-2.4-0.5-5.1-0.9-7.9-1.4c-0.3-0.8-0.8-1.6-1.4-1.5v-0.1l0,0c0.8,0.3,1.2,0.6,1.9,0.7
			c0.6-0.5,0.3-1.4,0.1-1.9c-0.6-1.6-1.2-2.1-3.4-2.4c-0.8,0.4-1.3-0.1-2.2-0.1l-1.2,0.1l-1.8-0.3c-2.3-0.2-6.1-0.6-6.8,2.1
			c-0.6,0.1-0.9-0.3-1.2-0.7h-0.3l-0.1,0.4c-0.1,0.2-0.3,0.2-0.5,0.3l0.3,0.4l-0.2,0.3l0.1,0.2l0.6,0.2c0.1,0.2-0.1,0.3-0.1,0.5
			c-1.8-0.2-3.6-0.3-5.5-0.4c0.3-0.6,0.5-1.1,0.8-1.8c0.2-0.4,0.3-1,0.2-1.4c-0.2-0.8-0.9-1.3-1.5-1.7v-0.1c0.4,0.1,0.5,0.1,0.7,0.3
			c0.2,0,0.4-0.2,0.6-0.1c0.2,0,0.2,0,0.3-0.1c0-0.2,0.1-0.5-0.1-0.6L21,408l0.1-0.2h0.2l0.1-0.1c0-0.2-0.1-0.4-0.2-0.6
			c-0.2,0-0.3,0.1-0.4,0c-0.1-0.1-0.1-0.1-0.1-0.2c-0.1-0.2,0.1-0.3,0-0.5v-0.1c-0.2,0-0.3,0.1-0.4,0.2c-0.2-0.1-0.1-0.2-0.2-0.2
			c-0.1-0.1-0.2,0.1-0.2,0.1l-0.1-0.1l-0.1-0.1c0-0.1,0.1-0.1,0.1-0.2V406c-0.2-0.1-0.7-0.1-0.8-0.3c-0.1,0-0.1,0-0.2,0.1
			c-0.1,0.2-0.1,0.4-0.2,0.6c-0.2,0-0.3-0.1-0.4-0.2c-0.1,0-0.1,0-0.2,0.1c0,0.2-0.1,0.2-0.1,0.3l-0.4-0.1c0,0.2,0,0.2,0.1,0.3
			c0,0.2-0.1,0.2-0.2,0.2c0,0.1,0.1,0.2,0.1,0.2c0,0.1,0,0.1-0.1,0.1l-1.1-0.3l-0.2-0.2c-0.2-0.1-0.3,0.1-0.3,0
			c-0.1-0.1-0.3-0.2-0.3-0.3c-0.1-0.1,0-0.1,0.1-0.1c0-0.2-0.2-0.3-0.4-0.3l0.1-0.1c0-0.2-0.1-0.2-0.2-0.2l0.1-0.2
			c0-0.1,0-0.1-0.1-0.2c-0.4-0.1-0.6-0.2-0.6-0.6l-0.1-0.1c-0.2,0-0.3,0.1-0.4,0.2c-0.2-0.1-0.3-0.2-0.3-0.3h-0.2
			c-0.1,0.1-0.3,0.6-0.2,0.7c-0.2,0.1-0.3,0.1-0.4,0.2c-0.1,0.3,0.2,0.6,0.4,0.7v0.1c-2.1-0.3-4.9-0.2-5.9,1
			c-0.4,0.6-0.5,1.8-0.4,2.6c0.1,1.3,0.3,2.1,0.7,2.7c-1.9-0.1-3.8-0.2-5.7-0.2c0.2-0.5,0.5-1.9,0.1-2.4L1.5,410
			c-0.3-0.1-0.5-0.4-0.8-0.5l-1.6-0.4c-1.7-0.6-3.5-1.3-5.2-2l-0.5,0.3c0.5-1.4,1.1-3.7,0.1-5.2c-0.7,0.1-1.3,0.3-1.9,0.2
			c-0.3,0.3-4,1.2-4.8,1.1c-0.1,0.2-0.1,0.2-0.3,0.2c0.1,0.1,0.1,0.1,0.2,0.1c0.1,0.6-0.2,1.1-0.4,1.5c-0.5,1.6-1.1,2.7-2.7,3.3
			c-0.7,0.3-2.2,0.3-2.8,0.6c-0.3,0.3,0.1,1.7,0.3,1.9l1.2,0.9c0.1,0.1,0.1,0.1,0.2,0.2c-1.7,0-3.3,0.1-4.9,0.1c0,0,0,0,0-0.1
			c0,0,0.3-1.3,0.1-1.9c-0.1-0.5-0.5-1-0.8-1.3c-1.2-1.5-3.3-2.2-5.7-2.7l-1.6-0.1h-0.6l-1.7,0.1c-0.9,0.1-1.8,0.2-2.6,0.4
			c-2.1,0.6-4.2,1.4-5.1,3.1l-0.3,0.9c-0.2,0.9-0.1,1.7,0.2,2.3c-1.8,0.1-3.6,0.2-5.4,0.3l0.3-0.3l0.1-0.6c0.1-0.3,0.5-0.4,0.7-0.7
			l0.2-0.1l0.4-0.4c-0.1-0.2-0.1-0.4-0.1-0.7c-0.2-0.1-0.4-0.1-0.6,0.1h-0.1l0.1-0.6c-0.4-0.1-0.8-0.1-1.3-0.2l-0.4,0.1
			c-0.1-0.1-0.2-0.2-0.3-0.3c-0.3-0.1-1.7-0.6-2-0.6l-4.3-0.2l-2.9,0.3c-3.2,0.8-6.4,1.4-7.4,4.4c0.1,0.2,0.1,0.1,0.2,0.2l-0.1,0.1
			c0.2,0.2,0.3,0.3,0.4,0.4c-0.4,0.1-0.9,0.4-1,0.9c-3.4,0.4-6.7,0.9-9.8,1.4c-0.1,0-0.2,0.1-0.2,0.3c0,0.1,0.1,0.2,0.3,0.2
			c3.1-0.5,6.3-1,9.7-1.4c0,0.1,0,0.1,0.1,0.2c0.1,0.2,0.2,0.1,0.3,0.2c0.2,0.2,0.1,0.4,0.3,0.6c0.3,0.1,0.6-0.2,1.1-0.2
			c0.6,0.4,2.3,1.1,3.4,1l2.5-0.4c0.6,0.1,1.5,0,2.1-0.1l2.4-0.2c1.7-0.4,4.1-1.2,5.5-2.1l0.4-0.6c2-0.1,4-0.3,6-0.4
			c0.2,0.2,0.3,0.4,0.6,0.7l1,0.8c1.9,1.3,5.6,2.1,9,1.6c0.7-0.1,1.6-0.3,2.1-0.6l1.3-0.4c0.9-0.5,2.2-1,2.8-1.8
			c0.3-0.3,0.4-0.6,0.6-0.9c1.9-0.1,3.7-0.1,5.7-0.1c0.6,0.6,1.4,1.2,2.3,1.1c0,0.3-0.1,0.7,0.1,1c0.2,0.2,0.5,0.2,0.7,0.3
			c0.6,0.3,1.3,0.8,1.8,1.2c1,0.8,1.7,1.1,2.8,1.7c0.3,0.2,0.6,0.4,1,0.5c0.9,0.1,1.7-0.6,2.2-0.9l4.4-2.8l2.3-1.5
			c0.3-0.2,0.6-0.2,0.8-0.3c2.2,0.1,4.3,0.2,6.4,0.2c0.2,0.3,0.5,0.6,0.9,0.8c0.2,0.2,0.3,0.4,0.6,0.5c0.6,0.3,1.3,0.6,1.9,0.8
			c0,0,3.7,1.1,7-0.1c0.3-0.1,0.9-0.7,1.1-1.1c0.1-0.1,0.2-0.3,0.2-0.4c2,0.2,3.9,0.3,5.8,0.5c0.1,0.1,0.1,0.1,0.2,0.1
			c0.1,0,0.1-0.1,0.1-0.1c0.2,0,0.4,0.1,0.6,0.1c-0.1,0.2-0.3,0.3-0.3,0.6c0.2,0.3,0.3,0.6,0.4,0.9c0.3,0.1,0.8-0.1,1.1,0.1
			c0.4,0.2,0.5,0.6,0.9,0.8c0.4,0.2,1.2,0.3,1.5,0.3l1.3,0.2c0.4,0,0.9,0.1,1.4,0.1c1.1,0.1,2.2,0.6,3.2,0.5
			c1.4-0.1,2.8-0.1,4.1-0.3l0.6-0.3l1.3,0.1l0.2-0.2c-0.1-0.2-0.2-0.5-0.3-0.9c2.7,0.4,5.3,0.8,7.6,1.3h0.1c0.1,0,0.2-0.1,0.2-0.2
			C49.8,417.3,49.7,417.2,49.6,417.2z M-44.8,410.8l0.2-0.1l0.1,0.3c-0.2,0.1-0.7,0.8-0.7,1.1l-0.4-0.1
			C-45.4,411.6-45.2,411-44.8,410.8z M-45.3,410.3c0.1,0.1,0,0,0.1,0.1l-0.1,0.1l-0.2,0.1l-0.4-0.4
			C-45.7,410.2-45.5,410.2-45.3,410.3z M-61.5,411.7c1.3-1.3,3.6-1.6,5.6-2.1l2.2-0.3c2.3-0.1,5-0.3,6.4,0.6
			c0.4,0.3,1.2,0.9,1.6,1.4c-0.9,1.3-3.5,1.4-5.4,1.9l-3.4,0.9c-1.1,0-2.2,0.2-3.3,0.3c-1.5,0.2-4.2,0.3-4.8-0.8
			C-63.1,412.6-61.9,412.1-61.5,411.7z M-48.2,413.3l-0.4,0.3l-0.6,0.4l-0.7,0.2l-0.8,0.1c0.9,0.1-3.5,1.4-3.1-0.1v-0.1
			c0.9-0.1,1.6-0.5,2.5-0.7l0.9-0.1c1.1-0.3,2.3-0.4,3.2-0.8l0.2,0.2l0.7-0.1l-0.7,0.5C-47.3,413.3-47.9,413.2-48.2,413.3z
			 M-47.7,413.6c-0.1,0.2-0.3,0.3-0.6,0.4c-0.3,0,0.1-0.3,0.1-0.3C-47.9,413.6-47.5,413.4-47.7,413.6z M-46.7,412.5L-46.7,412.5
			l0.7-0.4h0.1l0.1,0.3l-0.1,0.1C-46,412.6-46.4,412.4-46.7,412.5z M-54.3,414.5c-0.2,0.4-0.2,0.2-0.2,0.7c0,0.4-0.4,0.2-0.8-0.1
			c-0.4-0.3,0.1-0.4,0.7-0.6C-54.5,414.5-54.1,414.2-54.3,414.5z M-55.6,415.3L-55.6,415.3c-0.2,0.1-1.6,0.1-1.7,0.1
			c-0.1-0.1-0.2-0.1-0.2-0.2l-0.1-0.1c0.7-0.4,0.9-0.6,2.1-0.6l0.1,0.1v0.6h-0.2L-55.6,415.3z M-61.3,414.8L-61.3,414.8h-0.3H-61.3
			L-61.3,414.8L-61.3,414.8z M-62.9,416c-0.1-0.3-0.1-0.6-0.5-0.6c0.1-0.8,0.5-0.7,0.8-1.1l0.8,0.3c-0.2,0.3-0.6,0.2-0.9,0.3h-0.1
			l0.1,0.2c0.2,0.3,0.7,0.1,0.8,0l0.1,0.1c0.2,0.2,0.8,0.1,0.9-0.3l0.4-0.1l0.1,0.1c-0.1,0.2-0.2,0.4-0.4,0.4v0.2l0.2,0.1
			c0.2-0.1,0.3-0.2,0.4-0.4c0.3,0.1,0.3,0.2,0.6,0.1l-0.1-0.2l-0.3-0.1c-0.1-0.1-0.1-0.1-0.2-0.2h1.4l0.1,0.3
			c-0.5,0.5-1.2,0.4-1.9,0.6c-0.3,0.1-0.6,0.3-0.9,0.3C-62.1,415.8-62.1,415.7-62.9,416z M-47.6,414.8c-1,0.4-2.8,1-4.2,1.3
			s-3.1,0.1-4.3,0.3c-0.9,0.2-2.9,0.6-3.7,0.4l-1.1-0.5c0.1-0.1,0.1-0.1,0.2-0.1c0,0,1-0.1,1.3-0.1c0.2,0,0.4,0.3,0.7,0.2
			c3-0.6,6.5-0.8,9.3-1.8c1.2-0.4,3.4-0.8,3.7-2h0.1C-45.4,413.5-46.7,414.4-47.6,414.8z M-23.3,408.7c0.3,0.3,0.8,0.6,0.6,0.7
			s-0.3,0.3-0.4,0c-0.1-0.4-0.2-0.5-0.4-0.6C-23.7,408.6-23.3,408.7-23.3,408.7z M-39.8,410.1c0.1-0.3,0.4-0.4,0.4-0.4
			c0,0.3-0.1,0.4-0.1,0.7s-0.3,0.8-0.3,0.4C-39.8,410.3-40,410.3-39.8,410.1z M-22.8,412.9c-0.3,0.8-2.8,2.6-5.9,3.1
			c0,0-7.5,1.2-10.6-2.9c-1.2-1.6-0.2-2.3-0.2-2.3c0.4,1-0.1,1.6,1.8,3.2c0.9,0.7,2.3,1.2,3.7,1.4l0.9,0.1c1.8,0.3,4.1,0.1,5.6-0.3
			l0.5-0.1c2-0.3,3.7-2.1,4.2-2.4c0.1,0,0.1,0,0.2,0C-22.8,412.8-22.8,412.8-22.8,412.9z M-30.9,415.2c1.3,0.6-3.4,0.1-4.7-0.4
			c0,0-1.3-0.2-1.8-0.9c-2-1.7,0.7,0.2,1.3,0.4C-34.7,414.7-32.8,415.1-30.9,415.2L-30.9,415.2L-30.9,415.2z M-24.7,413.3
			c0.5-0.2,1.2-0.7,1.3-0.7c0,0-0.2,0.6-1.2,0.9c-1.2,0.7-3.8,1.6-5.7,1.6l1.1-0.4C-27.6,414.7-25.8,414.1-24.7,413.3z M-28.8,414.4
			c0.3,0,0.8-0.1,0.6,0c-0.3,0.2-0.4,0.3-0.6,0.2C-29.1,414.4-28.8,414.4-28.8,414.4z M-22.8,411.4c-0.6,1.2-2.3,2-3.7,2.4
			c-0.3,0.1-1.8,0.4-2.1,0.3c-0.1-0.1-0.2-0.2-0.2-0.3h-0.1c-0.1,0.1-0.3,0.7-0.4,0.7c-0.6,0.3-2.4,0.2-3.3,0.1
			c-2.9-0.4-6.1-1.4-6.6-3.7c-0.2-1.2,0-1.7,0.6-2.3c0.9-0.9,3.3-1.7,4.9-2l2.6-0.2h1.9c0.3,0.1,0.4,0.2,0.7,0.3l-0.1,0.2
			c-0.1,0.1-0.6,0-0.7-0.1c-0.5-0.1-0.9-0.1-1.4-0.1h-0.7l-1.8,0.3c-0.9,0.2-1.8,0.3-2.6,0.6c-0.7,0.3-1.2,0.6-1.7,1
			c-0.7,0.5-1.5,1.6-0.8,2.5h0.1V411l0.6-0.2c0-0.1-0.2-0.2-0.4-0.2c-0.1-1.3,1.1-1.7,2.1-2.2c0.4-0.2,1.2-0.5,1.5,0h0.1l0.2-0.4
			c0.1-0.2,1.5-0.7,1.9-0.6c0.2,0.1,0.3,0.3,0.3,0.4h0.1c0.1-0.1,0.1-0.4,0.2-0.4c0.7-0.4,2.2-0.2,3.3-0.2l-0.1,0.3l0.1,0.1l0.5-0.7
			c0.4-0.1,1.6,0.2,1.9,0.3c1.5,0.5,3,1.3,2.9,3.2h-0.1c-0.1-1.9-1.8-2.7-3.6-3.1c-0.3-0.1-0.7-0.2-1.1-0.2l-0.2,0.2l0.5,0.1
			c0.4,0.1,1.1,0.2,1.4,0.4c0.1,0.4-0.8,0.6-1.1,0.8l-0.3,0.3l-0.4,0.1c-0.1,0.1-0.1,0.1-0.1,0.2c-0.4,0-0.8,0.2-1,0.4
			c-0.1-0.3,0-0.6-0.3-0.8c-0.2-0.1-0.5-0.1-0.8-0.1l-0.5,0.1c-0.4,0.1-0.7,0.6-0.7,1.1c-0.2,0-0.3,0.1-0.3,0.2l0.1,0.1
			c0.2,0.1,0.4,0,0.6-0.1l0.5,0.1c0.4-0.1,0.6-0.1,0.8-0.2l0.1,0.1l-0.1,0.1l-0.2,0.1h-0.1h0.3l0.1,0.2l0.1,0.1
			c0.2,0.1,0.4,0.2,0.3,0.4c-0.1,0.1-0.1,0.1-0.2,0.1v0.1v0.1c0.3-0.1,0.4-0.2,0.6-0.3l0.4-0.1l0.4-0.2c0.3-0.1,0.7,0.1,0.9,0
			l0.1-0.1v-0.1c-0.1-0.1-0.2-0.1-0.3-0.1c0.5-0.3-0.1-0.9-0.4-1l0.8-0.4l0.4-0.3l0.5-0.4c0.2-0.1,0.4,0.1,0.6,0.1l0.4,0.2l0.6,0.4
			c0.2,0.2,0.4,0.4,0.6,0.7c0.6,1.4-0.2,2.7-1.4,3.2c-0.1-0.2-0.7-0.9-1-0.6c-0.1,0.1-0.1,0.3-0.1,0.4c0.1,0.3,0.2,0.3,0.6,0.3h0.2
			l0.3,0.2l-0.1,0.2c0.9-0.2,2-1.5,2.2-2.4l-0.1-1.1l0.1,0.1C-22.5,409.6-22.4,410.6-22.8,411.4z M-34.7,407.9
			c-0.1,0.2,0.1,0.2-0.4,0.1c-0.4-0.1-0.9,0.2-0.7,0c0.1-0.2,0.6-0.3,0.6-0.3c0.4-0.1,0.8-0.4,0.9-0.2
			C-34.1,407.7-34.7,407.7-34.7,407.9z M-27.1,410c-0.1,0.1-1.4,0.4-1.6,0.3c-0.9-0.2,0-0.7,0.2-1c0.3-0.1,0.6,0.2,0.8-0.1
			C-27.4,409.3-26.8,409.7-27.1,410z M-29.2,409.3c-0.1,0.3-1.3,0.6-1.7,0.3c-0.1-0.2,0.2-0.6,0.4-0.7l0.5-0.1
			C-29.7,409-29.1,409-29.2,409.3z M-25.6,412.5c-0.2,0.1-0.3-0.1-0.3-0.2C-25.8,412.3-25.7,412.3-25.6,412.5L-25.6,412.5z
			 M-22.1,411.2c-0.1,0.2-0.4,0.4-0.3,0.1c0.1-0.3,0.1-0.6,0.1-0.8c0-0.2,0.1,0,0.1,0C-22.2,410.8-22,411-22.1,411.2z M0.9,409.9
			c0.2,0.1,0.4,0.3,0.7,0.4l0.1,0.1l-1.1,0.8L-1,412c-0.1-0.8,0.8-0.8,1.4-1.2c0.2-0.1,0.3-0.3,0.5-0.5l-0.1-0.2
			c-0.3-0.6-0.7,0.1-1.1,0.1c-0.2,0-0.3-0.1-0.4-0.1c-0.2-0.1-0.1-0.4-0.2-0.7C-0.2,409.5,0.4,409.7,0.9,409.9z M-0.1,410.5l0.4-0.3
			h0.2c-0.1,0.3-0.3,0.3-0.6,0.4V410.5z M-1,410.4c0.2-0.1,0.4,0,0.6,0.1h0.1c-0.1,0.5-0.9,0.7-1,1.2l0.2,0.9
			c-0.1,0.1-0.2,0.2-0.3,0.2c-0.3,0.1-1-0.3-1.1-0.6c-0.4-0.3-1-0.1-1.2,0.1c-0.2,0.2-0.3,0.4-0.6,0.6l-0.2,0.1V413
			c0.1-0.2,0.2-0.3,0.2-0.6h0.1c0.4-0.1,0.3-0.4,0.6-0.6l0.6-0.4l0.5-0.3l0.5-0.1C-1.6,410.9-1.2,410.6-1,410.4z M-6.4,409.7
			c0.1,0.2-1,0.8,0.3,0.6c0.1,0.2-0.6,0.6,0.7,0.5c0,0.2-0.7,0.4-0.8,0.6c-0.1,0.1-0.7,0-0.7,0.1c-0.6,0.1-0.8,0.7-1.6,0.4
			c-0.2-0.4,0.9-0.6,1-1.1c0.5-1.5,0.4-2.1,0.8-2C-6.6,409-7.1,409.9-6.4,409.7z M-3.3,409.9l-0.1,0.1c-0.1-0.2-0.1-0.4-0.2-0.6
			l-0.2-0.1c0.1-0.2-0.1-0.2-0.2-0.3v-0.1l0.2-0.1h0.2l0.7,0.4l0.1,0.2C-3,409.6-3.2,409.6-3.3,409.9z M-2.5,409.6
			c0.4-0.1,0.5,0.1,0.8,0.3c0,0.4-1.1,0.7-1.4,0.6v-0.4C-2.9,409.8-2.6,409.8-2.5,409.6z M-3.5,410.6v0.3c-0.5,0.3-0.9,0.6-1.3,0.9
			c-0.3-0.1-0.4-0.2-0.8-0.2l-0.1-0.1v-0.1l0.2,0.1l0.1-0.4c0.1-0.3,0.6-0.4,0.7-0.7C-4,410.5-4.1,410.7-3.5,410.6z M-6.2,413.5
			c0.1,0,0.2,0,0.2,0.1c0.1,0.1,0,0.2,0,0.3c-0.1,0.1-0.3,0-0.3-0.1c-0.1,0.2-0.3,0.4-0.6,0.4v-0.1c0.8-0.6-0.2-1.3,0.1-1.8
			c0.1-0.2,0.6-0.4,0.8-0.4c0.1,0.1,0.1,0,0.2,0.1h0.1c-0.3,0.5-0.5,0.3-0.6,1.1C-6.2,413.1-6.2,413.2-6.2,413.5z M-5.9,412.5
			l0.3-0.2h0.1c0.1,0.1,0.1,0.2,0.2,0.2v0.2c-0.1,0.2-0.2,0.2-0.3,0.3h-0.3C-6,412.8-6,412.6-5.9,412.5z M-5.3,410.3h-0.1
			c-0.3-0.2-0.3-0.3-0.5-0.6c-0.6-0.8,0.2-0.9,0.7-1.4c0.4,0.1,0.8,0.6,1.2,0.9C-4.5,409.7-5,409.8-5.3,410.3z M-8,411
			c-0.1,0.4-0.3,0.2-0.7,0.4c-0.4,0.2-0.3,0.5-0.6,0.6c-0.4,0.1-0.2-0.1,0.1-0.4c0.2-0.3,0.3-0.4,0.6-0.7c0.2-0.4,0.5-0.3,0.6-0.2
			C-8,410.7-8,410.6-8,411z M-8.8,412.4c0.3,0,0.4,0.1,0.7,0.3c0.2-0.1,0.3-0.3,0.6-0.3c0.2,0.2,0.4,0.4,0.4,0.7
			c-0.1,0.1,0,0.1-0.1,0.1s-0.7-0.3-1.2-0.1l0.1,0.2l0.4-0.1c0.2,0.1,0.4,0.2,0.4,0.4c0.2,0.1,0.3-0.1,0.4-0.2v0.4
			c-0.1,0.2-0.2,0.3-0.4,0.5c-0.4,0.1-0.5-0.2-0.8-0.2c-0.3,0.1-0.3,0.2-0.7,0.1c-0.1-0.2-0.1-0.2-0.1-0.4c-0.2-0.1-0.3-0.2-0.4-0.4
			l0.1-0.5C-9.3,412.9-9.2,412.6-8.8,412.4z M-9.3,414.7c0.1-0.1,1.3,0.1,1.6,0.1c0.4,0,0.4-0.4,0.8-0.4l0.6,0.1
			c0.6-0.2,0.8-0.8,1.3-1.1c0.2-0.1,0.4,0,0.6,0c0.3,0,0.7-0.3,0.8-0.6c0.6-0.6,1-0.1,1-0.1l0.1,0.1c-0.8,0.5-1.8,0.8-2.5,1.2
			c-0.5,0.3-1.1,0.6-1.7,0.9c-0.3,0.2-0.6,0.6-1.1,0.7c-0.5-0.3-1.2-0.6-1.7-0.9L-9.3,414.7z M-5.9,407.5c0.5,0,0.6,0.3,1.1,0.4
			l2.8,0.9c0.3,0.1,0.4,0.3,0.7,0.3l0.1,0.1c-0.2,0-0.2,0-0.3,0.1h-0.1c0.1,0.1,0.1,0.2,0.2,0.2v0.1c-0.4-0.2-0.5-0.4-1.1-0.3
			c-0.1-0.5-0.7-0.8-1.2-0.8c-0.3,0-0.4,0.2-0.7,0.1c-0.5-0.2-1.2-1.3-2.1-0.6h-0.1C-6.3,407.8-6.1,407.7-5.9,407.5z M-16.5,409.2
			c1.3-0.7,1.8-0.8,2.7-1.8c0.5-0.7,0.8-1.6,1.1-2.4c0.1-0.4-0.1-1,0.3-1.2c0.1-0.1,0.9-0.1,1.2-0.2c0.7-0.2,2.2-0.1,3.1-0.8
			l0.2-0.1c0.1,0.7,0,1.4-0.1,1.9c-0.2,0.7-0.2,1.4-0.4,2.1l-0.4,0.7c-0.8,1.5-1.1,1.9-2.5,3.1c-0.6,0.5-2.4,1.6-3.1,1.5
			c-0.9-0.1-3.1-1.8-3.8-2.4C-17.8,409.3-17,409.5-16.5,409.2z M-16.8,412.1c-0.7-0.6-1.5-0.9-1.7-2.2c0.9,0.6,3.1,2.5,4.1,2.6
			c0.2,0,0.5-0.2,0.6-0.3c0.1,0.1,0.7-0.2,0.8-0.3c0.7-0.3,1.1-0.6,1.8-1.1c0.5-0.3,1.2-0.8,1.6-1.2c1.3-1.4,2.3-4.6,2.1-6.9
			l0.3-0.1l1.2-0.1c0.1,1,0.3,2,0.1,3c-0.4,1.9-2.3,4.9-3.8,6.1c-0.3,0.2-0.6,0.3-0.8,0.5c-0.4,0.3-1,0.3-1.4,0.6
			c-0.3,0.2-0.4,0.4-0.7,0.6C-14.5,414.1-16,412.9-16.8,412.1z M-11.8,413.5c0,0,0.2-0.6,1-0.3c0.6,0.4,0.3,1.1,1,0.9l0.1,0.3
			l-1,0.5c-0.2,0.1-0.3-0.1-0.4-0.3C-10.9,414-11.6,414-11.8,413.5z M-10.6,412.7c0-0.3,0.6-0.4,0.6-0.1c0,0.3,0.1,0.7-0.1,0.5
			C-10.3,413-10.6,413-10.6,412.7z M1.7,412.3c-0.3,0.2-1.3,0.9-1.6,1.1l-0.9,0.3l-1.3,1c-0.7,0.4-1.2,0.5-1.7,1l-0.2-0.1
			c-0.4,0.8-2.2,2-3.3,2.1c0-0.4,0.1-1-0.4-0.9l0.1,0.9c-0.6,0.3-1-0.2-1.4-0.3c-1.4-0.4-2.1-1.4-3.3-2.1c-0.5-0.3-1.2-0.4-1.6-0.9
			l-0.1-0.6l0.1-0.1c0.4,0.1,1.3-0.4,1.5-0.3l0.3,0.4l0.9,0.6c0.2,0.3,0.1,0.5,0.4,0.7c0.4,0,0.5-0.2,0.8-0.3c0.8,0.4,1.7,1,2.5,1.2
			l1.6-1.1l0.7-0.3c0.9-0.7,1.8-1.3,3-1.6l0.7,0.1L-1,413c0.1-0.2-0.1-0.5,0-0.7h0.1c0.8-0.6,2-0.8,2.8-1.6
			C2.2,410.9,1.7,412,1.7,412.3z M19.6,409c0.5,0.4,1.5,1.2,0.9,2.1h-0.1c-0.1-0.1-0.1-0.1-0.1-0.1c0.2-1.3-1-1.9-1.8-2.5l0.4,0.1
			C19.2,408.6,19.4,408.8,19.6,409z M17.9,411.3c-0.1,0.1-0.1,0.1-0.1,0.2c-0.2,0.1-0.5,0.2-0.7,0c-0.1-0.1-0.2-0.2-0.2-0.3
			c0.1-0.2,0.2-0.6,0.4-0.6l0.6-0.1c0.2-0.1,0.3,0.1,0.5-0.1c0-0.1,0.3-0.2,0.2-0.2l-0.1-0.2c0-0.2-0.1-0.7-0.2-0.8
			c0.2-0.5,0.5,0.6,0.6,0.6c0.2,0.1,0.6,0,0.4,0.3c-0.1,0.1-0.2,0.3-0.3,0.3c0.1,0.2,0.4,0.2,0.6,0.3l-0.4,0.4
			c-0.2,0.2-1.1,0.5-1.4,0.5c0-0.1,0.4-0.5,0.4-0.6C18,411.2,18,411.2,17.9,411.3z M16.9,410.3c0,0.2,0.1,0.2-0.1,0.3l-0.2,0.6
			c-0.2-0.1-0.2-0.4-0.6-0.5l-0.6-0.3l-0.1-0.2l-0.1-0.3c0.9,0.3,1.1,0.2,1.3,0.1C17.1,410.2,16.7,410.3,16.9,410.3z M16.5,410.1
			c-0.6-0.1-0.9-0.2-1.3-0.4l0.1-0.2c0.1-0.2,0.1-0.2,0.2-0.3c0.6,0.1,0.9,0.2,1.2,0.4C16.6,409.8,16.6,409.9,16.5,410.1z
			 M15.4,411.5c0.1-0.1,0.1-0.1,0.2-0.2c0-0.1,0-0.1,0-0.2c0-0.1,0.1-0.1,0.1-0.2l0.1-0.1c0.2,0,0.4,0,0.6,0.1l0.1,0.1
			c-0.1,0.1-0.2,0.2-0.2,0.2c0,0.2,0.1,0.2,0.1,0.3c0.2,0.1,0.5,0.1,0.6,0c0.2,0,0.2,0.1,0.2,0.2c-0.1,0.1-0.2,0.2-0.2,0.2
			c-0.6-0.1-0.9-0.1-1.4-0.3L15.4,411.5z M17.3,410.2c0.1-0.2,0.2-0.3,0.4-0.3l0.2-0.1c0.2,0.1,0.3,0.1,0.4,0.2
			c-0.1,0.2-0.8,0.4-0.9,0.3C17.4,410.3,17.3,410.2,17.3,410.2z M19.5,411.5l0.1,0.1c-0.1,0.2-0.2,0.3-0.3,0.3l-0.1-0.1v-0.1
			L19.5,411.5z M19.5,410.6c0.1-0.3,0.1-0.4,0.2-0.6v-0.1c-0.1-0.1-0.1-0.1-0.2-0.2l-0.2,0.1c-0.1,0.1-0.2-0.1-0.2-0.1
			c-0.1-0.1-0.3-0.6-0.4-0.7c-0.1-0.1-0.3-0.1-0.6-0.2c0.1-0.1,0.1-0.1,0.1-0.1c0.7,0.1,1.7,0.8,1.8,1.3c0.1,0.2,0.1,0.7-0.1,0.9
			v0.1c-0.1-0.1-0.1-0.2-0.1-0.2L19.5,410.6z M13.3,406.1l-0.1-0.3l0.1-0.1c0.2,0,0.2,0,0.3-0.1c0-0.1-0.1-0.2-0.1-0.3
			c0-0.1,0.1-0.1,0.1-0.3c0.3,0.2,0.3,0.2,0.7,0.2c0.1,0.2,0.3,0.4,0.5,0.4v0.2c0,0.1,0.2,0.5,0.3,0.5l0.2,0.1l0.1,0.2l0.2,0.2
			l0.1,0.8c-0.2,0.4-0.6,0.3-0.9,0.4l-0.1,0.3c0.4,0.1,1-0.1,1.2-0.4c0.2-0.2,0-0.6,0.1-0.8c0.1,0,0.2-0.1,0.3,0
			c0.1,0.1,0.2,0.6,0.1,0.7c0,0.2-0.1,0.3-0.3,0.4c-0.1,0-0.1,0-0.1-0.1l-0.1,0.1c0,0.2,0.1,0.2,0.1,0.3c0.2,0,0.7,0.1,0.7,0.1
			l0.1-0.1v-0.1c-0.1-0.1-0.2-0.2-0.3-0.2l0.2-0.2l0.1-0.6l0.3,0.2c0.2,0,0.2-0.1,0.3-0.2l0.1-0.2l0.3,0.2c-0.1,0.2-0.6,0.3-0.8,0.6
			l0.1,0.2l0.1,0.1c0.3-0.2,0.7-0.5,1-0.6c0.2-0.1,0.3-0.2,0.4-0.3c0.2-0.1,0.5-0.4,0.8-0.1c0.1,0,0.2,0.2,0.3,0.2
			c0-0.2-0.2-0.3-0.3-0.4l0.5-0.1c0.3-0.1,0.8-0.1,0.8-0.1c-0.5,0-1.2-0.1-1.4,0h-0.1l0.1-0.3l0.1-0.2c-0.3,0-0.3,0.5-0.4,0.6
			c-0.3,0.2-0.6,0.2-0.8,0.4l-0.3-0.2c0-0.2,0.1-0.2-0.1-0.5c0.1-0.2,0.3-0.2,0.4-0.2l0.2-0.3c0.3,0.2,0.3,0.2,0.6,0.1l0.2-0.4
			c0.1-0.1,0.4,0.1,0.5,0.1l0.1,0.3c0.2,0.1,0.3,0,0.4,0.1s0.2,0.2,0.4,0.2c0.2,0.1,0.1,0.4,0.2,0.5c0.1,0.1,0.3,0,0.4,0.1l0.1,0.1
			c-0.1,0.2-0.3,0.3-0.4,0.4c0,0.2,0,0.3,0,0.4c-0.1,0.1-0.4,0.1-0.4,0.1c-0.2-0.3-0.7-0.2-1.1-0.1c-0.3,0.1-0.4-0.2-0.7-0.1
			c-0.3,0.2-0.8,0.3-1.1,0.6v0.2c0.2,0,0.2-0.1,0.3-0.1l0.1,0.1c-0.1,0.2-0.1,0.2-0.2,0.3c0,0.3,0.3,0.1,0.4-0.1l0.1,0.1
			c0.1,0.1,0,0.2,0.2,0.3l-0.1,0.1l-0.4-0.1c-0.3,0-0.5,0.2-0.6,0.4H17c-0.1-0.1-0.1-0.1-0.2-0.2c0-0.2,0.3-0.4-0.3-0.4
			c0-0.1-0.1-0.2-0.1-0.2l-0.9,0.1c-0.2,0-0.2-0.1-0.3-0.2h-0.2c0,0.1,0,0.1,0.1,0.2c-0.1,0.3-0.3,0.2-0.5,0.3
			c-0.2-0.1-0.3-0.1-0.4-0.2c0-0.2,0-0.2-0.1-0.3c0.1-0.3,0.2-0.2,0.3-0.3c0.1-0.1,0.1-0.3,0.1-0.4c0.2-0.2,0.6-0.2,0.9-0.3
			c0.1,0,0.1,0,0.1-0.1l0.1-0.1l-0.1-0.1l-0.2-0.1c0-0.2,0.1-0.3,0-0.4c-0.1,0-0.1,0-0.2,0c0,0.2,0,0.3-0.1,0.3
			c-0.1-0.6-0.2-0.9-0.3-1.4h-0.1h-0.1l-0.1,0.2c-0.2,0-0.2-0.1-0.3-0.2c-0.1,0-0.1,0-0.2,0.1c0,0.3,0.5,0.5,0.6,0.7
			c0.1,0.2,0,0.5,0.1,0.7l-0.3,0.2c-0.2-0.1-0.2-0.1-0.3-0.2c0.1-0.1,0.3-0.3,0.2-0.5c-0.1-0.2-0.3-0.2-0.5-0.4
			c-0.1-0.1-0.2-0.3-0.2-0.4L13.3,406.1z M14.5,411.1c0.1,0.1,0.2,0.1,0.3,0.1c-0.2,0.4-0.3,0.6-0.8,0.5c0.1,0,0.2-0.1,0-0.2
			c-0.3-0.3-0.2-0.2-0.2-0.5c-0.1-0.3-0.3-0.2-0.3-0.2c0.1,0.3,0.1,0.4,0,0.7c0,0.1-0.1,0.1-0.1,0.2c-0.1,0-0.1,0-0.1,0
			c-0.3-0.1,0.1-0.3-0.1-0.4l0.1-0.3c0.1-0.1-0.1-0.2,0.1-0.2l-0.1-0.2c0-0.3,0.2-0.3,0.1-0.4c0.1-0.4,0.4,0.1,0.6,0.1
			c0.1-0.1,0.2-0.2,0.2-0.3h0.2l0.1,0.1c-0.1,0.1-0.1,0.2-0.2,0.2l0.1,0.1c0.1-0.1,0.2-0.1,0.3-0.1h0.1v0.1
			c-0.1,0.2-0.1,0.2-0.2,0.3c0.1,0.1,0.4,0.1,0.4,0.2l-0.2,0.1c-0.1,0.1-0.1,0.1-0.2,0.1H14.5z M11,410.5c0.1-0.4,0.2-0.5,0.5-0.7
			h0.1h0.2l0.2,0.1c-0.1,0.2-0.1,0.2-0.2,0.2c0,0.3,0.3,0.2,0.4,0.3l0.3,0.1c0.4,0.1,0.5,0.1,0.7,0.3c0,0.3-0.1,0.3-0.2,0.4
			C13.3,411.8,11,411.3,11,410.5z M10.3,410.2c0.1,0.1,0.2,0.2,0.2,0.2v0.1c0,0.1,0,0.1-0.1,0.2c-0.1,0.1-0.4-0.2-0.6-0.3l-0.6-0.1
			L8.9,410l-0.4-0.2l-0.2-0.3c-0.1-0.1-0.2-0.2-0.3-0.2c0-0.1,0-0.2,0.1-0.2c0.1,0,0.1,0.1,0.2,0.1c0.1-0.1,0.1-0.1,0.1-0.2
			c0.1-0.1,0.1-0.1,0.1-0.1c0.2,0,0.3,0.1,0.4,0.2l-0.1,0.2v0.2l0.1,0.1c0.3,0.1,0.3-0.3,0.4-0.5c0.1-0.2,0.2-0.1,0.1-0.2
			c-0.2,0-0.2-0.2-0.2-0.1c-0.1-0.1-0.1-0.1-0.2-0.1c0-0.2,0-0.3,0.1-0.4c0.2,0,0.6-0.2,0.4-0.2c0.1-0.1,0.1-0.1,0.1-0.1
			c0.1,0-0.1-0.2,0-0.3c0-0.1,0.4,0.2,0.3,0.1l-0.2-0.5c0.1,0.1,0.4,0.1,0.5,0.2c0.2,0,0.2-0.1,0.3-0.2l0.2,0.2
			c0.1,0.1,0.4-0.2,0.4-0.1c0.3,0-0.3,0.4,1,0.3c-0.1,0.2-0.4,0.3-0.5,0.3c0,0-0.6,0.4-0.5,0.5c0,0.2-0.1,0.2-0.2,0.3
			c0.1,0.1,0.1,0.2,0.2,0.2c-0.1,0.2-0.1,0.2-0.2,0.2l0.1,0.1l0.2,0.2c0,0.1,0,0.2-0.1,0.2l-0.5,0.1
			C10.7,409.8,10.5,410.1,10.3,410.2z M10.8,410.3c-0.1,0.3-0.1,0.4-0.2,0.3c-0.1-0.1-0.1-0.2,0-0.2
			C10.7,410.3,10.8,410.3,10.8,410.3z M8.1,408.7c-0.2,0.2-0.1-0.1,0-0.3c0.1-0.2,0.2-0.2,0.4-0.4c0,0-0.1,0.2-0.2,0.4
			C8.2,408.6,8.3,408.6,8.1,408.7z M9.2,407.8c0.2,0,0.3-0.1,0.3-0.1h0.1c0,0,0,0.1-0.1,0.3c-0.1,0.2-0.1,0.1-0.3,0
			C9.1,407.9,9,407.8,9.2,407.8z M11.5,408.9c0.1-0.3,0.5-0.6,0.6-0.8l0.4-0.1c0.7,0.1,0.5,0.2,0.8,0.6l0.3,0.1
			c0.1,0.1,0.1,0.1,0.2,0.2l0.1,0.1c0,0.2-0.1,0.4-0.1,0.6C13,410.2,11.9,409.5,11.5,408.9z M13.4,407.9c0.1-0.1,0.1-0.1,0.1-0.1
			c0.4,0.1,0.8,0.6,0.4,0.8c-0.2-0.1-0.4-0.2-0.6-0.3C13.4,408.2,12.6,407.7,13.4,407.9z M14.3,409.5L14.3,409.5
			c0.2,0,0.4,0.1,0.3,0.2c-0.1,0.1-0.3,0-0.4-0.1C14.2,409.6,14.3,409.6,14.3,409.5z M14.8,410c-0.1-0.2-0.1-0.2-0.1-0.2h0.1
			c0.1,0.2,0.2,0.2,0.3,0.3c0.1,0.1,0,0.3-0.2,0.2C14.8,410.1,14.9,410.2,14.8,410z M7.5,408l0.3-0.4c0.6-0.6,2.1-0.8,3.2-0.9
			l1.2,0.1l1.3,0.2c0.1,0.1,0.2,0.1,0.3,0.2v0.1c-0.1,0.4-0.4,0.2-0.8,0.2c0,0.2,0,0.2,0.1,0.3c-0.1,0.1-0.1,0.1-0.1,0.1
			c0,0-0.9-0.2-0.9-0.2h-0.1c0.1-0.2,0.1-0.1,0.3-0.2c0-0.1,0-0.2-0.1-0.2c-0.2-0.1-1.5-0.1-1.7-0.1c-1.1,0.1-2.1,0.3-2.7,1
			c-0.2,0.2-0.4,0.6-0.3,1c0.3,1.6,3.4,2.3,4.9,2.7l0.7,0.1c0.6,0.2,1.3,0.3,1.8,0.3l0.8,0.1c1-0.1,2.2,0.1,2.9-0.3l0.1,0.1
			c-0.1,0.3-1.2,0.3-1.6,0.4c-0.4,0.1-0.9,0-1.3,0.1l-0.7-0.1l-0.9-0.1c-0.4,0.1-1.2-0.1-1.6-0.2c-0.8-0.3-1.5-0.2-2.3-0.6
			c-1.1-0.5-2.5-1-3-2C7.4,409.1,7.2,408.5,7.5,408z M16.7,415.4h-2.1c-0.5,0.1-1.3-0.1-1.7-0.2c-0.8-0.2-1.6-0.2-2.3-0.6
			c-0.7-0.3-1.5-0.8-2-1.2l-0.6-0.8c-0.4-0.9-0.8-2-0.9-3.6c0.2,0.6,0.3,0.9,0.8,1.3l1.2,0.6c0.7,0.4,1.6,0.7,2.4,1.1l0.8,0.2
			c0.4,0.2,1.1,0.4,1.4,0.3h0.8c0.4,0.2,0.8,0.2,1.2,0.2c0.4,0.2,1.2,0,1.7-0.1c1.1-0.2,2.3-0.2,3.1-1.3c-0.1,0.3-0.6,1.3-0.8,1.6
			C18.9,414.6,18.7,415.2,16.7,415.4z M40.3,415.8l-0.2,0.4l-0.2-0.2v-0.1l0.3-0.3C40.3,415.7,40.3,415.7,40.3,415.8z M29,414.3
			c-0.1-0.2-0.1-0.6,0.1-0.7l0.1-0.1c0.1,0,0.4,0.1,0.4,0.1c0.4-0.2,0.8-0.2,1.1-0.3c0.3,0.2,0.9,0.2,1.1,0.6
			c0.1-0.1,0.1-0.1,0.1-0.2c0.4-0.1,1.1,0.6,1.2,0.9l-0.1,0.2l-0.3-0.1c-0.1,0.2-0.1,0.3-0.2,0.6c-0.2,0-1.6,0.1-1.8,0.1l-0.3-0.3
			l-0.8-0.1c-0.1-0.1-0.1-0.2-0.2-0.3L29,414.3z M29.5,415.6c-0.2,0.1-0.4,0.1-0.6-0.2c-0.2-0.3-0.1-0.3,0.2-0.4
			c0.2-0.2,0.2,0.1,0.4,0.4C29.5,415.2,29.7,415.4,29.5,415.6z M29.9,412.3c-0.1-0.2-0.4-0.6-0.4-0.6c0.3,0.1,0.9,0.3,0.8,0.6
			c-0.1,0.3,0.2,0.4,0.2,0.7c-0.1,0.2-0.2,0.2-0.4,0.1c-0.2-0.1-0.3-0.1-0.2-0.4C30,412.5,30,412.5,29.9,412.3z M35.1,415.3
			c0.1-0.1,0.1-0.2,0.1-0.2s0.1,0.3,0.3,0.3c0.2,0.1,0.8,0.2,0.8,0.2s-1.3,0.1-1.4,0C34.5,415.4,35,415.4,35.1,415.3z M34.6,415.3
			c-0.1,0.1-0.2,0-0.3,0c-0.1-0.1-0.1-0.2,0-0.3c0.1-0.1,0.1-0.1,0.2-0.1c0.1-0.1,0.1-0.3,0.2-0.3l0.2,0.1L35,415
			C35,415.2,34.8,415.3,34.6,415.3z M34.7,414.4c-0.1,0.1-0.2,0.1-0.6,0.3c-0.4,0.2-0.7,0.6-0.7,0.4c-0.1-0.2,0.1-0.2-0.1-0.6
			s-0.1-0.6-0.2-0.6c-0.2,0-0.4,0-0.4-0.2c0-0.2,0.8,0,1.3-0.1s0.7,0.1,1.2,0.3c0.4,0.2,0.8,0.3,0.6,0.5
			C35.5,414.6,34.8,414.4,34.7,414.4z M34.2,415.6v0.2l-0.1,0.1l-0.3-0.1l-0.1-0.2l0.3-0.2L34.2,415.6z M32,415.7l-0.1-0.1l0,0
			c0.6-0.1,0.6,0,0.9-0.5c0.1-0.1,0.1-0.1,0.2-0.1H33l0.1,0.1C33.2,415.7,32.5,415.8,32,415.7z M31.7,415.6L31.7,415.6
			c-0.2,0.1-0.3,0.2-0.6,0.1v-0.1v-0.1l0.4-0.1l0.2,0.1V415.6z M30.7,415.6c-0.1,0-0.4-0.1-0.5-0.2l0.2-0.1c0.1,0.1,0.2,0.1,0.3,0.1
			C30.7,415.4,30.7,415.5,30.7,415.6z M30,415.7c0.8,0.2,1.1,0.3,1.8,0.3c0.5-0.1,0.7,0.2,1.1,0.1c0.6,0.3,1.4,0.3,2.2,0.4l-1.2,0.1
			c-0.7,0.1-1.4-0.2-2.2-0.4c-0.6-0.1-1.2-0.2-1.7-0.4V415.7L30,415.7z M34.6,416.2l-0.2-0.5l1.1,0.2c0.4,0.1,0.7,0.1,0.8,0.3
			C36,416.3,35.1,416.3,34.6,416.2z M35.3,415.2v-0.2c0.2-0.1,0.4-0.1,0.6-0.2c0.5-0.2,0.7-0.1,0.7,0.3l-0.1,0.3l-0.1,0.1
			C36.1,415.4,35.7,415.4,35.3,415.2z M39.1,414.9c0.1-0.1,0.2-0.1,0.3-0.2c0.3,0.1,0.6,0.2,0.8,0.4c-0.2,0.7-0.7,1-1.4,0.7
			l-0.8-0.1l-0.1-0.1C37.7,415.1,38.6,414.5,39.1,414.9z M38.1,414.4c0-0.1,0.2-0.1,0.4-0.1c0.1,0,0.3,0.1,0.6-0.1
			c0.3-0.1,0.3,0,0.6,0.1c0.3,0.1,0.3,0,0.1,0.2c-0.2,0.2-0.3-0.2-0.8,0.1c-0.2,0.1-0.4,0-0.6,0C38.3,414.7,38.1,414.6,38.1,414.4z
			 M37.8,414.4c-0.2,0.1-0.1,0.8-0.3,0.9c-0.7,0.2-0.4-0.4-0.9-0.7c-0.2-0.1-0.3-0.1-0.4-0.2l-0.1-0.2l0.1-0.2
			c0.3-0.1,0.4-0.1,0.7,0.1l0.2-0.1c0.3,0.1,0.3,0.1,0.7,0.1l0.1,0.2V414.4z M37.2,415.7l0.2,0.1l0.1,0.1v0.1
			c-0.2,0.1-0.5,0.1-0.7,0.2l-0.2-0.1l-0.1-0.1C36.7,415.7,37,415.8,37.2,415.7z M37.3,416.2c0.3-0.1,0.6-0.3,0.8-0.3
			c0.2,0.1,0.3,0.2,0.6,0.2c0.3,0,0.7,0.1,0.9,0.1s0.3,0.1,0.2,0.2c-0.1,0.1-0.7-0.1-0.9,0.1c-0.2,0.1-0.4-0.1-0.8,0
			c-0.3,0-0.2,0.3-0.7,0.2C37.1,416.4,37,416.3,37.3,416.2z M34.8,410.6C34.7,410.6,34.8,410.6,34.8,410.6L34.8,410.6z M32.4,410.2
			l2.2,0.4l0.8,0.2c0.9-0.1,2-0.4,3,0.1c0.1-0.1,0.3,0.1,0.3-0.1l0.4-0.1c0.7,0.1,1.3,0.2,1.7,0.4c0.7,0.4,1.4,1.8,1.5,2.7l-0.2,0.4
			c-0.9,0.1-1.2-0.6-2.1-0.6l-2.3-0.4l-1.4-0.3c-0.7,0-1.8-0.1-2.5-0.3c-0.9-0.3-1.6,0.3-2.4-0.1l-0.4-0.9c-0.2-0.6-0.8-1.2-1.7-1.2
			l-0.8,0.1C28.5,410.6,30.1,410.1,32.4,410.2z M29.6,410.8c1.1,0.3,1.3,1.1,1.6,1.9c0.5,0.5,1.2,0.1,1.7,0.3l0.6-0.1l1.2,0.3
			c0.5,0,1,0.1,1.4,0.2c0.3,0.1,4.6,0.4,4.8,0.7c-0.5-0.2-3.9-0.2-4.4-0.3c-0.7-0.2-2.4-0.6-3.2-0.5c-0.3,0.1-1.4,0.2-1.8-0.1
			c-0.5-0.2-0.3-0.8-0.6-1.2c-0.4-0.6-1.2-0.8-2-0.3c-0.3,0.2-1.1,0.4-1.4,0.6C27.4,410.7,28.4,411.1,29.6,410.8z M25.6,412.3h0.3
			c1.4,0.7,1.7,0.1,2.9-0.4c0.4,0.1,0.7,0.1,0.8,0.3c0,0.2,0,0.8-0.1,0.9c-0.1,0.1-0.5,0.1-0.6,0.1c0.1-0.4,0.1-0.4,0.2-0.7l0.1-0.2
			H29c-0.4,0.6-0.4,0.7-0.9,1c0,0,0.4-0.2,0.6-0.3l-0.3,1.2l-0.2,0.1c-0.1,0.5,0.1,0.6,0.2,0.9c-0.1,0-0.1,0.1-0.1,0.1
			c-0.1,0-0.2-0.1-0.3-0.1l0.1-0.1l-0.5-0.4v-0.6c1,0.6,0.3,0.2,0-0.2c0-0.2,0-0.3,0-0.5c0-0.1,0.1-0.1,0.1-0.1
			c0.2-0.2,0.3-0.3,0.6-0.5c0.3-0.2,0-0.1-0.1-0.1c0.1-0.1,0.2-0.2,0.3-0.3l-0.2,0.1c-0.1,0.1-0.3,0.2-0.4,0.3
			c-0.2,0.1-0.6,0.2-0.7,0.2c-0.1,0-0.4-0.1-0.7-0.1l0,0c-0.3-0.1-0.5-0.3-0.9-0.4C25.6,412.4,25.6,412.3,25.6,412.3z M27.5,414.2
			c0-0.1,0-0.1,0-0.1c0-0.1-0.1-0.2,0-0.2l0,0C27.5,414,27.5,414.1,27.5,414.2z M26.1,413.2L26.1,413.2c0.1-0.1,0.2-0.1,0.2-0.1
			c0.1,0.1,0.2,0.1,0.3,0.1c-0.1,0.1-0.2,0.2-0.3,0.3c-0.1,0.1-0.2,0.1-0.2,0.2l0.1-0.3C26.1,413.3,26.1,413.2,26.1,413.2z
			 M25.7,412.7c-0.1-0.1-0.1-0.2-0.1-0.2l0,0C25.7,412.5,25.7,412.6,25.7,412.7z M26,413.1c-0.1-0.1-0.2-0.1-0.4-0.2
			c0.1-0.1,0.1-0.2,0.1-0.3c0.1,0.2,0.3,0.3,0.6,0.3l0,0C26.1,413,26,413.1,26,413.1L26,413.1z M26.1,413.9l0.1-0.2
			c0.1,0,0.1-0.1,0.2-0.1c0,0,0,0.1-0.1,0.1c0.4-0.1,0.7-0.3,0.9-0.6h0.1l0.1,0.1c0,0.1,0.1,0.2,0.1,0.3s0,0.1,0,0.2
			c-0.1,0.4,0,0.8,0,0.8s-0.3,0.4-0.4,0.4c-0.1,0-0.1,0.1-0.1,0.1v-0.1c0.2-0.3,0.2-0.6,0.2-1.1C26.6,413.7,26.4,413.7,26.1,413.9z
			 M26.8,415.5c-0.1-0.1,0.1-0.3,0.1-0.4c0.1-0.1,0.3-0.2,0.4-0.2c0.1-0.1,0.1-0.2,0.2-0.2c-0.1,0.2-0.1,0.3-0.2,0.5l0.1,0.1h0.1
			c0.1-0.1,0.2-0.2,0.2-0.4c0.1,0.1,0.2,0.2,0.3,0.3c0.2,0.1,0.4,0.1,0.4,0.1C27.9,415.4,27.4,415.6,26.8,415.5z M36.3,417.6
			c-0.3,0-0.9,0.1-2.1-0.3l-2.4-0.2l-2.4-0.3c-0.9,0-1.2-0.7-1.8-1h0.5l0.2-0.1c1.3,0.9,2.6,0.8,4.1,1.1c0.3,0.1,0.5,0.1,0.8,0.1
			l1.5,0.1l1.2,0.2c0.9,0.2,2.2,0.3,3.3,0.1l0.8,0.1C39.5,417.4,37.2,417.6,36.3,417.6z M40.8,417l-0.2-0.1l-0.7,0.2l-1.4-0.1
			c-0.4,0-1,0.2-1.4,0.1c-0.5-0.1-1.3-0.3-2-0.4c0.9-0.2,1.6,0.1,2.4,0.2l0.7-0.2c0.4-0.1,0.9,0.3,1.1-0.1c0.5,0.2,1.5-0.1,1.4-0.8
			c0-0.3-0.3-0.4-0.3-0.6c0-0.1,0.1-0.2,0.1-0.4c0.6,0.4,0.6,0.8,0.8,1.4c0.1,0.3,0.3,0.4,0.4,0.8l0.1,0.1L40.8,417z"/>
		<path class="st0" d="M-67.2,418.1L-67.2,418.1c0.4-0.1,0.8-0.2,1.3-0.3c0.2-0.1,0.3-0.2,0.2-0.4c-0.1-0.2-0.2-0.3-0.4-0.2
			c-0.4,0.1-0.8,0.2-1.2,0.3c-0.2,0.1-0.3,0.2-0.2,0.4C-67.5,418-67.4,418.1-67.2,418.1z"/>
		<path class="st0" d="M-63.6,411.8H-64c-0.1,0.4-0.2,0.4-0.2,0.8c0,0.2-0.1,0.4-0.1,0.7c0.2,0,0.3-0.1,0.4-0.1
			C-63.9,412.7-63.8,412.2-63.6,411.8z"/>
		<path class="st0" d="M-43.2,412.7l-0.2-0.4c-0.4,0.1-1.3,0.3-1.4,0.3C-44.4,412.7-43.4,412.7-43.2,412.7z"/>
		<path class="st0" d="M-46.6,408l0.2-0.3c-0.6,0-0.6-0.1-1.3,0c-0.3,0.1-0.7,0-1.1,0.1c-0.1,0.2,0,0.2-0.1,0.3
			C-48.1,407.9-47.2,407.9-46.6,408z"/>
		<path class="st0" d="M-60,411.6l0.2-0.1l0.1,0.2c0.3,0,0.6,0.1,0.7-0.1c0.2-0.1,0.2-0.3,0.2-0.5c-0.1-0.1-0.3-0.1-0.4-0.2
			l-0.3-0.1l-0.5,0.3l-0.1,0.2l0.1,0.2H-60z M-59.8,411.4l0.5-0.3c0,0.1,0.2,0.3,0.1,0.4C-59.3,411.5-59.6,411.4-59.8,411.4
			L-59.8,411.4z"/>
		<path class="st0" d="M-56.3,410.9c0.1-0.1,0.6-0.3,0.7-0.4h-0.7l-0.3,0.1v0.2L-56.3,410.9z"/>
		<path class="st0" d="M-55.3,412.3L-55.3,412.3l0.4-0.3l-0.3-0.1c-0.1,0.1-0.1,0.1-0.2,0.1v0.1C-55.3,412.3-55.3,412.2-55.3,412.3z
			"/>
		<path class="st0" d="M-52.4,410.2l-0.1-0.1l-0.2-0.1c-0.1,0.1-0.1,0.1-0.2,0.2l0.2,0.2L-52.4,410.2z"/>
		<path class="st0" d="M-60.5,413.8c1.3,0.4,2.4-0.1,3.6-0.4l0.1-0.1c-1.1-0.2-5.3,0.9-4.3-1.5v-0.1l-0.3-0.1l-0.2,0.1
			C-62.6,413.2-61.8,413.4-60.5,413.8z"/>
		<path class="st0" d="M-51.7,413.9c-0.5,0.2-1.3,0.3-1.6,0.7s0.6-0.2,0.8-0.2c0.3-0.1,1.4,0.3,1.2-0.1
			C-51.5,413.8-51.2,413.7-51.7,413.9z"/>
		<path class="st0" d="M-49.8,413.5c-0.4,0.1-0.6,0.2-0.6,0.2c0,0.3,0.1,0.6,0.4,0.2C-49.7,413.5-49.4,413.3-49.8,413.5z"/>
		<path class="st0" d="M-0.8,408c0.5-0.4,0.9-0.6,1.2-1l-0.9,0.4c-0.2,0.2-0.5,0-0.4,0.3C-1,408.1-0.9,407.7-0.8,408z"/>
		<path class="st0" d="M-4.8,407L-4.8,407c0.4-0.3,0.6-1,0.5-1.4l-0.1-0.2l-0.2,0.1c-0.1,0.2-0.2,0.8-0.3,1.1
			C-4.9,406.8-5,406.9-4.8,407z"/>
		<path class="st0" d="M-0.9,408.1L-0.9,408.1c0.7,0.2,1.8,0,2.4-0.3l0.1-0.2l-0.3-0.2c-0.3,0-0.9,0.3-1.4,0.3
			C-0.2,408-0.8,408-0.9,408.1z"/>
		<path class="st0" d="M-14.1,404.7c0.1,0.1,0.2,0.2,0.5,0.2c0.1-0.3,0-0.7,0.1-0.9c0.1-0.6-0.1-0.6-0.1-1.1l-0.6-0.2
			C-14.1,403.3-14.1,404-14.1,404.7z"/>
		<path class="st0" d="M-5.5,415.8l-0.1,0.1v0.2h0.2C-5.3,415.9-5.3,415.9-5.5,415.8z"/>
		<path class="st0" d="M-2.6,411.2l-0.5,0.4l0.7,0.1l0.1-0.2C-2.5,411.4-2.5,411.2-2.6,411.2z"/>
		<path class="st0" d="M-3.8,414.8c0,0.2,0,0.1,0.1,0.3c0.1-0.1,0.1-0.1,0.1-0.1v-0.1L-3.8,414.8z"/>
		<path class="st0" d="M-5.2,414.6v0.2v0.1l0.2-0.1C-5,414.7-5,414.6-5.2,414.6z"/>
		<path class="st0" d="M-6.3,413.7L-6.3,413.7c0.1-0.1,0.1-0.1,0.1-0.2l0,0C-6.3,413.6-6.3,413.6-6.3,413.7z"/>
		<polygon class="st0" points="-4.8,414.4 -4.9,414.5 -4.9,414.6 -4.8,414.6 -4.7,414.6 -4.7,414.5 		"/>
		<path class="st0" d="M-1.9,411.5v0.5c0.1-0.1,0.6-0.9,0.6-1l-0.1-0.1l-0.8,0.3C-2.2,411.2-1.6,411.2-1.9,411.5z"/>
		<polygon class="st0" points="-2.8,413.7 -2.7,413.8 -2.6,413.8 -2.6,413.7 -2.8,413.6 		"/>
		<path class="st0" d="M1,411.7l-0.1,0.2c0.1,0.1,0.1,0,0.3-0.1C1.1,412,1,412,0.9,412.1H0.8L0.7,412H0.6l-0.1,0.1v0.1l0.1,0.2
			c0.4-0.1,0.5-0.2,0.7-0.4l-0.1-0.2H1z"/>
		<path class="st0" d="M-0.5,412.6c-0.1,0.2-0.1,0.2-0.1,0.4h0.1h0.1v-0.2c0.1,0,0.1,0.1,0.2,0.1l0.1-0.1l-0.2-0.2H-0.5z"/>
		<path class="st0" d="M-12.3,404.6c-0.1-0.1-0.1-0.2-0.3-0.3l-0.1,0.1l0.2,0.2H-12.3z"/>
		<path class="st0" d="M-13.2,408.9c-0.1-0.2-0.1-0.2-0.2-0.2l-0.1,0.2L-13.2,408.9L-13.2,408.9z"/>
		<path class="st0" d="M-12.5,405.8c0.1,0.1,0.3,0.1,0.4,0.1l0.1-0.1c0-0.3-0.1-0.3-0.3-0.4l-0.2,0.3V405.8z"/>
		<path class="st0" d="M-12.1,407.5c-0.1-0.1-0.1-0.1-0.2-0.2l-0.1,0.1l0.1,0.1L-12.1,407.5L-12.1,407.5z"/>
		<path class="st0" d="M-12.1,409l-0.1,0.1c0.1,0.1,0,0.1,0.1,0.1c0.1,0.1,0,0,0.1,0h0.1l-0.1-0.2L-12.1,409z"/>
		<path class="st0" d="M-6.4,403.5c0.1-0.1,0.1-0.1,0.1-0.2c-0.1-0.1-0.1-0.1-0.2-0.1C-6.6,403.3-6.6,403.4-6.4,403.5z"/>
		<path class="st0" d="M-6.7,404.4L-6.7,404.4l-0.1-0.3h-0.1l0.1,0.2C-6.8,404.4-6.8,404.3-6.7,404.4z"/>
		<path class="st0" d="M-14.8,409.2l-0.2,0.1c-0.1,0.2-0.2,0.2-0.4,0.3v0.3l0.1,0.1c0.3,0.2,0.7-0.1,0.8-0.3l-0.1-0.2L-14.8,409.2z
			 M-15.2,409.8c0.1-0.1,0.2-0.2,0.2-0.3c0.1,0,0.1,0,0.1,0s0,0,0.1,0l0.1,0.1C-15,409.6-15.1,409.7-15.2,409.8z"/>
		<path class="st0" d="M-7,403.2l-0.1-0.3c-0.1-0.1,0-0.1-0.1-0.1l-0.1,0.2l0.2,0.1L-7,403.2z"/>
		<path class="st0" d="M-11,404.8L-11,404.8c0-0.2-0.1-0.2-0.2-0.3l-0.1,0.1L-11,404.8L-11,404.8z"/>
		<path class="st0" d="M-12.6,412.2l-0.1-0.3h-0.1h-0.1l-0.2,0.1v0.2C-12.7,412.2-12.8,412.2-12.6,412.2z"/>
		<polygon class="st0" points="-9.7,415.6 -9.8,415.7 -9.7,415.9 -9.6,415.9 -9.5,415.8 -9.6,415.6 		"/>
		<path class="st0" d="M-8.4,404.1c0-0.2-0.1-0.3-0.2-0.4c-0.1,0.1-0.1,0.1,0,0.2c-0.1,0.1,0,0.1-0.1-0.1l-0.1,0.1
			c-0.1,0.1-0.1,0.1-0.1,0.2v0.1l0.2,0.2C-8.5,404.2-8.5,404.1-8.4,404.1z"/>
		<path class="st0" d="M-9.2,416.2c-0.1,0.1-0.1,0.1-0.1,0.2l0.2,0.1v-0.2C-9.1,416.2-9.1,416.2-9.2,416.2z"/>
		<path class="st0" d="M-6.5,415.8L-6.5,415.8c-0.1,0.2-0.1,0.2,0.1,0.2L-6.5,415.8C-6.5,415.8-6.5,415.8-6.5,415.8z"/>
		<path class="st0" d="M-9.5,405l0.2-0.2c-0.1-0.2-0.2-0.3-0.2-0.4h-0.3l-0.3,0.4v0.1C-9.9,405-9.7,405-9.5,405z M-9.7,404.6
			L-9.7,404.6l0.1,0.1l-0.1,0.1h-0.1L-9.7,404.6C-9.7,404.7-9.7,404.7-9.7,404.6z"/>
		<path class="st0" d="M-10.3,407.3h0.1c0-0.1,0-0.1,0.1-0.1c-0.1-0.3-0.1-0.3-0.2-0.5h-0.1l-0.2,0.1v0.1
			C-10.8,407-10.3,407.3-10.3,407.3z M-10.3,406.9l0.1,0.1l-0.1,0.1V406.9L-10.3,406.9z"/>
		<path class="st0" d="M-7,406.2c-0.1-0.2-0.1-0.2-0.2-0.3l-0.1,0.2v0.1C-7.2,406.2-7.2,406.2-7,406.2z"/>
		<polygon class="st0" points="37.8,412.5 37.7,412.5 37.6,412.5 37.6,412.7 37.7,412.7 		"/>
		<path class="st0" d="M40.9,413.5l0.2-0.2c-0.1-0.3-0.4-0.6-0.8-0.7l-0.1,0.1C39.8,413.2,40.5,413.6,40.9,413.5z M41,413.2
			l-0.4,0.1l-0.1-0.2h-0.1l-0.1-0.2c0.1,0,0.1,0,0.1,0.1l-0.1-0.2C40.4,412.8,40.9,413.1,41,413.2z"/>
		<polygon class="st0" points="41,415.5 41,415.4 40.9,415.4 40.9,415.5 41,415.6 		"/>
		<path class="st0" d="M36.6,411.9l0.1-0.2v-0.1l-0.2-0.1l-0.1,0.1C36.5,411.8,36.5,411.8,36.6,411.9L36.6,411.9z"/>
		<path class="st0" d="M38.6,411.8L38.6,411.8c0.1,0,0.1-0.1,0.2-0.1c0-0.2-0.1-0.1-0.2-0.2l-0.1,0.2
			C38.5,411.8,38.5,411.7,38.6,411.8z"/>
		<path class="st0" d="M30,414.3c0.3,0.1,0.2,0,0.5-0.2c0.1,0,0.1,0,0.1-0.1l0.1,0.2c0.2,0.2,0.3,0.3,0.4,0.3l-0.3,0.2
			c0.1,0.1,0.4,0.1,0.7,0.1l0,0c0.2,0.2,0.6-0.1,0.8-0.1c0.1-0.2,0.1-0.2-0.1-0.2c-0.1,0.1-0.1,0.1-0.1,0.1c0,0-0.1-0.1-0.1-0.1
			c-0.2-0.1-0.3-0.1-0.4-0.1c0.1,0,0.2-0.1,0.3-0.1c0.1-0.1,0.2-0.3,0.1-0.4l-0.3-0.1v0.3c-0.2,0-0.4,0.1-0.6-0.1
			c-0.1-0.1-0.1-0.1,0-0.2h-0.1c0.2-0.1,0.3-0.2,0.1-0.3s-0.6-0.1-0.6-0.1c-0.2,0.1-0.3-0.3-0.5,0.1C30,414.1,29.7,414.3,30,414.3z"
			/>
		<path class="st0" d="M34.7,411.5c-0.1,0.2-0.1,0.2,0.1,0.3c0.2-0.1,0.2-0.1,0.3-0.2l-0.1-0.2c-0.2-0.1-0.2-0.2-0.5-0.2h-0.1
			c-0.1,0.2-0.1,0.2,0.1,0.3L34.7,411.5z"/>
		<path class="st0" d="M41,416.3l-0.1,0.1c-0.1,0.1-0.1,0.2-0.1,0.3c0.2,0.1,0.4,0,0.3-0.3L41,416.3z"/>
		<path class="st0" d="M32.6,411.2c0.2-0.4-0.1-0.4-0.5-0.6h-0.2h-0.1c-0.1,0.2,0,0.3,0,0.6C32.2,411.4,32.2,411.2,32.6,411.2z"/>
		<path class="st0" d="M33.5,413.7c-0.2,0.1,0,0.3,0,0.3c0.1,0.2,0.2,0.3,0.2,0.4c0,0.2,0.2,0.5,0.2,0.2c0.1-0.3,0.1-0.3-0.1-0.5
			C33.6,413.9,33.7,413.6,33.5,413.7z"/>
		<path class="st0" d="M35.1,414c-0.2,0-0.2-0.1-0.3-0.1c-0.2,0,0.1,0.3-0.3,0.2c-0.3-0.1-0.3-0.2-0.3-0.1c-0.1,0.1,0.1,0.2,0.3,0.3
			c0.2,0.2,0.4-0.1,0.6-0.2c0.2-0.1,0.5,0,0.5-0.1C35.5,414.1,35.3,414.1,35.1,414z"/>
		<path class="st0" d="M37.3,414.6c-0.2-0.2-0.7-0.3-0.7-0.3c-0.4-0.1,0.2,0.2,0.4,0.7c0.1,0.1,0.2,0.4,0.2,0.1
			S37.6,414.8,37.3,414.6z"/>
		<path class="st0" d="M39.1,415.7c0.3,0.1,0.4-0.1,0.6-0.3c0.3-0.2-0.2-0.1-0.4,0c-0.2,0.1-0.3,0.1-0.7,0c-0.3-0.1,0.1-0.1-0.1-0.2
			c-0.1-0.1-0.2,0-0.4,0.2c-0.2,0.2-0.1,0.2,0.2,0.2C38.7,415.6,38.8,415.7,39.1,415.7z"/>
		<path class="st0" d="M29.8,411.3c0.2,0,0.5-0.1,0.1-0.2c-0.4-0.1-1-0.1-1-0.1c-0.3,0.1-0.9,0.1-1.1,0.3c-0.2,0.3-0.6,0.7-0.1,0.5
			c0.4-0.2,0.2-0.2,0.7-0.4c0.4-0.2,0.4-0.2,0.7-0.3C29.4,411.2,29.6,411.4,29.8,411.3z"/>
		<path class="st0" d="M39.1,414.5C39.1,414.4,39.1,414.5,39.1,414.5l-0.2-0.1v0.1H39C39.1,414.5,39,414.5,39.1,414.5z"/>
	</g>
</g>
</svg>
