<?xml version="1.0" encoding="utf-8"?>
<!-- Generator: Adobe Illustrator 19.0.0, SVG Export Plug-In . SVG Version: 6.00 Build 0)  -->
<svg version="1.1" id="Layer_1" xmlns="http://www.w3.org/2000/svg" xmlns:xlink="http://www.w3.org/1999/xlink" x="0px" y="0px"
	 viewBox="-231 417 132.9 33.8" style="enable-background:new -231 417 132.9 33.8;" xml:space="preserve">
<style type="text/css">
	.st0{fill:#DF2027;}
</style>
<g>
	<path class="st0" d="M-190.4,437.7c0,0,1.2,0.6,2.7,0.2c1.5-0.5,3-4,1.7-4.7C-188.6,431.7-190.4,437.7-190.4,437.7z M-122.8,441.1
		c0,0-0.8,3.5,3.5,3.6c6.4,0.2,10-5.5,11.7-8.6c1.2-2.1,4.1-0.6,3.1,1.8c-2.4,5.7-6.8,10.6-13.6,11.9c-1.3,0.3-10.2,1.1-11.4-5.6
		c-1.4,1.7-5.1,5.4-9.2,5c-5.6-0.6-2.7-8.1-2.2-9.3c0.4-1.2,1.2-2.9-0.3-3.8c-1.4-0.8-3.6,0.8-3.6,0.8s-1.1,4.5-1.6,6.9
		s-0.6,4-0.6,4s-1,1.3-3.3,1.4c-3.9,0.1-3.4-5-3.4-5s-3.6,4.5-8,5c-4.4,0.5-4.3-4.8-4.3-4.8s-3.3,4.8-8.2,4.8
		c-3.4,0-3.7-3.7-3.5-5.4c-2.4,2.7-5.8,4.5-9.3,5.3c-1.5,0.3-11.4,2-11.2-7c0.2-9,5.9-12.4,9.1-13.1c3-0.6,10.8,0.6,8.3,8
		c-2.5,7.3-10.3,4.3-10.3,4.3s-0.1,3.4,3.2,3.4c5.3,0,10.7-5.7,11.3-8.2c0.4-2.3,0.7-4.2,0.9-5.7c0.8-4.4-0.3-6-0.3-6
		s1.1-1.4,3.6-2.5c4.9-2.1,6.5,1.2,5.6,5c-0.9,3.9-3,10.1-3.7,13s0.7,2.6,1.3,2.2c2.3-1.4,3.4-3,4.3-4.7c1.6-3.1,0.2-5.4,0.2-5.4
		s6.3-4.3,8.3-0.3c0.9,1.8-0.8,4.9-2,8.1c-1.2,3.2,0.7,2.5,1.3,2.1c3.2-2.1,4.9-6.8,5-7.6c0.1-0.8-0.5-1.3-0.5-1.3s3.1-3.7,6.4-4.1
		s2,3.5,2,3.5s4.4-4.4,8.3-3.4c3.5,0.9,3.6,4.5,3.1,5.8s-0.9,2.8-1.4,4.1c-0.5,1.3-1,4.6,1.1,3.4c2.7-1.5,3.4-4,3.5-4.2
		c1.5-6.2,6.2-8.5,8.7-9.4c2.9-1,10.5,0.6,7.9,8C-115.1,444.4-122.8,441.1-122.8,441.1z M-122,438c0.4,0.2,1.3,0.5,2.5-0.1
		c1.6-0.8,3.1-3.9,1.7-4.6c-2.2-1.2-3.9,2.8-4.4,4.1C-122.3,437.7-122.2,437.9-122,438z M-214.1,423.9l-5.5,19.5
		c-0.5,1.6,2.9,2.3,6.4-0.2c3.4-2.5,6.6-7.7,7.1-12.2C-205.2,421.9-214.1,423.9-214.1,423.9z M-228.7,430.2c0,0-2.8-1.2-2.2-4.1
		c1-4.9,9.6-9.7,20.3-9c10.6,0.8,14.6,8.2,11.7,18.2c-3.2,11-15.2,16.7-22.1,15.3c-5.4-1-6.6-4.7-5.6-10c0.5-2.8,1-3.9,2.1-8
		c1.2-4.1,1.3-6.4,1.3-6.4C-227.1,427.9-228.7,430.2-228.7,430.2z M-162.7,423.3c0.2-1.6,1.3-3.7,4.6-3.4c3.4,0.3,4.2,2.8,3.8,4.4
		c-0.3,1.6-1.4,3.6-4.5,3.2C-162.1,427.1-162.9,425-162.7,423.3z"/>
	<path class="st0" d="M-101.1,436.4h0.4c0.3,0,0.4,0,0.5,0s0.1-0.1,0.2-0.1c0-0.1,0.1-0.1,0.1-0.2c0-0.1,0-0.2-0.1-0.2
		c0-0.1-0.1-0.1-0.2-0.1c0,0-0.2,0-0.4,0h-0.4v0.6H-101.1z M-101.6,437.9v-2.7h1.1c0.3,0,0.5,0,0.6,0.1c0.1,0,0.2,0.1,0.3,0.3
		c0.1,0.1,0.1,0.3,0.1,0.4c0,0.2-0.1,0.4-0.2,0.5c-0.1,0.1-0.3,0.2-0.5,0.2c0.1,0.1,0.2,0.1,0.3,0.2s0.2,0.2,0.3,0.4l0.3,0.5h-0.6
		l-0.4-0.6c-0.1-0.2-0.2-0.3-0.3-0.4s-0.1-0.1-0.2-0.1c-0.1,0-0.1,0-0.3,0h-0.1v1.2H-101.6z M-102.9,436.6c0-1.3,1.1-2.4,2.4-2.4
		s2.4,1.1,2.4,2.4c0,1.3-1.1,2.4-2.4,2.4S-102.9,437.9-102.9,436.6z M-102.4,436.6c0,1,0.8,1.9,1.9,1.9c1,0,1.9-0.8,1.9-1.9
		c0-1-0.8-1.9-1.9-1.9C-101.6,434.7-102.4,435.5-102.4,436.6z"/>
</g>
</svg>
