<?xml version="1.0" encoding="utf-8"?>
<!-- Generator: Adobe Illustrator 19.0.0, SVG Export Plug-In . SVG Version: 6.00 Build 0)  -->
<svg version="1.1" id="Layer_1" xmlns="http://www.w3.org/2000/svg" xmlns:xlink="http://www.w3.org/1999/xlink" x="0px" y="0px"
	 viewBox="0 0 191.7 81.5" style="enable-background:new 0 0 191.7 81.5;" xml:space="preserve">
<style type="text/css">
	.st0{fill:#DF2027;}
</style>
<g>
	<g>
		<path class="st0" d="M180.3,6.1c0,0-0.3-0.5-0.8-0.2c-0.6,0.3-0.2,0.8-0.2,0.8s2.8,5,2.3,17.2c-0.5,11.4-5,16.8-5,16.8
			s-0.5,0.8-0.1,1.2c0.5,0.4,1.1-0.2,1.1-0.2s6.2-6.1,6.8-18.1C184.8,11.7,180.3,6.1,180.3,6.1z"/>
		<path class="st0" d="M105.9,47.8c0,0-21.1-0.7-44.8,7.6S31.4,78.8,31.4,78.8s-0.9,2.2,0,2.6c1.2,0.6,2.2-1.2,2.2-1.2
			c15-26.7,67.1-30.7,72.4-31c2.5-0.2,2.1-0.6,2.1-0.6S108.1,48,105.9,47.8z"/>
		<path class="st0" d="M87.6,10.6c1.4,0,2.4-1.5,2.4-3.4S89.2,4,87.8,4c-1.2,0-2.4,1.2-2.4,3.1S86.2,10.6,87.6,10.6z"/>
		<path class="st0" d="M39.3,67.4c0,0,4.3-3.9,4.6-12.7c0.3-8.8-7.4-8.2-7.4-8.2c7.2-9.9,4.8-27.2-8.8-25.8
			C15.6,22,7.3,33.4,7.3,33.4C0.1,42.2,0,53.3,0,53.3s-0.2,7.8,3.7,11.3c3.7,3.3,8.3,1.5,9.7,0.4c5.7-4.6,4.5-12.5,4.5-12.5
			c-1.1-7.3-7.6-6.7-7.6-6.7s-0.7,0-0.8,0.6c-0.1,0.8,0.5,1,0.5,1c1.1,0.5,2.8,1.7,4,6c1.2,4.3,0.4,6.7,0.4,6.7
			c-0.6,3-3.1,3.3-3.1,3.3s-2.3,0.5-4.2-2.5c-1.7-2.7-2.6-6.8-2.7-11c0-8.8,6.1-16.5,6.1-16.5s5.9-7.8,12.9-9.5
			c6.9-1.7,10.8,4.1,12.1,8.8c2,7.3-1.4,13.7-1.4,13.7s-2.3-0.1-4.1,1.1c-2.1,1.3-1.3,3.3-1.3,3.3s0.5,2.2,2.9,1.1
			c2.5-1.2,3.2-3.2,3.2-3.2c5.7,1.3,6,11.8,3.8,15.6c-2.3,3.8-5.5,1.9-5.5,1.9s-4.2-2-8-13.4c-4.8-14.5-3.6-19.5-4-21.5
			c-0.2-1.1-0.8-1.3-1.2-1.1c-0.3,0.1-0.6,0.5-0.6,0.5c-3.2,5.1-1.1,16.3,0.1,20.9c1.2,4.6,5.2,15.3,11.3,17.7
			C36,71.5,39.3,67.4,39.3,67.4z"/>
		<path class="st0" d="M170.3,21.7c0,0,0-1.7-0.8-1.5c-0.7,0.1-0.6,0.5-0.9,1.6c-0.2,1.1-0.8,4-3.6,7.2c-1.1-3-4.9-12.1-4.2-19.7
			c0,0,0-1.1-1.2-1c-1.2,0.1-3.4,1.1-3.1,5.7c0.3,3.6,1.6,8.5,1.6,8.5s0,2.5-0.7,4.2c-0.7,1.8-2,3.1-3.1,2.9
			c-4.2-0.8-5.6-15.7-6.3-20.6c-0.4-2.4-1.7-2.6-3-0.9c-1,1.3-2.4,4.3,0.5,14.9c0,0-0.2,2.1-0.9,4c-0.9,2.2-2.3,4.1-3.5,3.6
			c-3.5-1.4-5-11.5-5-17.2c0,0,0.3-1.9-1.7-2c-3.1,0-5.1-0.7-5.4-1.1c-0.2-0.4-1.1-7.5-5.2-6.5c-1.9,0.5-2.2,2.9-0.9,4.9
			c1.2,1.8,3.9,3.2,3.9,3.2c1,6.4,1.9,17.7-2.3,20.7c-1.1,0.8-3.1-1.2-5-6.3c-2.4-6.5-3.7-15.3-3.7-15.3s3.4-0.3,4.6-1.5
			c1.4-1.5,1.3-3.9-0.3-2.8c-1.8,1.2-4.6,1.6-4.6,1.6s-0.3-3.7-0.3-6.6c0-1.3-1.6-2.4-2.7-0.2c-1.3,2.5-0.9,7.8-0.9,7.8
			s-2,0.2-4.2,0.2c-0.7,0,0.5,1.8,1.3,2c1.3,0.3,2.9,0,2.9,0s0.9,7.9,3.1,14.6c0,0-0.2,3.3-2.1,4.6c0,0,0.3-3-4.4-7
			c-2.1-1.8-3.8-3.1-5-4.2c-1-1-1.6-1.8-1.6-1.8s0.6-3.7-0.5-5.3c-1.3-1.9-3.1-1.2-3.6-0.5c-2,2.5,0.8,6.8,0.8,6.8s1.2,7.1,0.6,12.7
			c-0.5,4.9-2.7,8.5-4.1,7.3c-4.3-3.3-5.9-16.2-5.7-20.1c0,0,0.1-2-0.4-2.2c-1-0.3-3.2,1.3-3.5,5.1c-0.4,4.7,1.5,11.3,1.9,12.3
			c0,0-0.5,6.4-2.6,7.3c-1.2,0.6-2.4-1.6-3.2-2.6c-1.1-1.2-2.5-2.3-2.5-2.3s5-8.7,1.9-14.2c-1.6-2.9-4.6-1.9-5.8-1.1
			c-6.2,3.9-3.8,21-3.9,21.1c0,0-1.4-1.3-1.8-3.6c0.8-9.2,0.6-18.1-1.3-26.8c-1.2-5.7-4-5.5-5.4-4.9c-1.4,0.6-4.4,3.2-1.7,16.9
			c1.1,5.3,4.9,15.9,4.9,15.9s-0.2,5.7-2.2,7.4c-2.4,2-5-7.1-4.6-11.3c0.2-1.7-0.7-2.4-2.5-0.6c-2.5,2.4-1,8.8-0.7,11.5
			c0.3,2.8-0.1,5.5-1.4,5.8c-1.1,0.2-3.1,0.3-5-7.9c-1.9-8.3,0.5-12.6,2.7-13.6c2.5-1.1,3.5,2.1,3.5,3.3c0,0,3.2-1,1.4-4.1
			c-1.6-2.9-5.2-1.6-6.1-1.2c-6.5,3.2-7.4,12.3-5.3,19.7c2.3,8.4,7.5,8.1,9.1,7.5c2.2-0.9,3.4-3.7,2.9-7.9c0.1,0,2.5,4.9,6.2,3.3
			c3.3-1.4,3.5-8.6,3.5-8.6c0.1,0,2.8,6.1,5,5.3c1.6-0.5,1.1-3.5,0.8-6.3c-0.6-5.5-0.3-15.3,2.2-17.4c0,0,1.8-1.4,2.3,1.3
			c0.5,2.4,0.5,6.6-1.9,10.4c-0.5,0.8-1.1,0.6-0.7,1.7c0.3,1.1,1.7,1.2,2.7,2.5c0.7,0.9,2.4,6.4,6.3,5.5c3.9-0.9,4.7-8.4,4.7-8.4
			s2.8,6.4,7.6,5.5c2.7-0.5,3.4-5.5,3.4-5.5s2.2,3.5,7.2,2.2c4.9-1.2,5.8-6.2,5.8-6.2s2.4-0.3,3.4-3.7c0,0,3.6,8.3,8.6,7.3
			c6.2-1.3,5.9-16.7,4.8-23.8c0,0,2,0.1,3,1.4c0.5,0.7,0.8,9.6,1.6,13.3c0.3,1.6,2.6,7,7.6,6.5c3.9-0.4,5.7-7.4,5.7-7.4s2.8,6,7.5,6
			c4.3,0,5.4-6.6,5.4-6.6c0.8,2.3,1.2,3.5,2.2,6.4c0,0-3.5,3.5-5.9,7.5c-2.6,4.3-1.3,11.5,5.6,11.2c7.7-0.4,6.3-9.9,5.9-12.9
			c-0.2-1.7-1.9-6.6-1.9-6.6S170.7,25.9,170.3,21.7z M67.8,33.2C65.5,26.7,61,9.5,64.3,8.4c0,0,0.7-0.3,1.3,1.2
			c0.3,0.8,1.4,5.5,2,14.6C67.8,28.8,67.8,33.2,67.8,33.2z M105.4,37.1c-3.1,0.7-4-2.5-2.2-3c1.9-0.5,5-0.4,5-0.4
			S108.6,36.4,105.4,37.1z M100.9,32.3c0.7-4.8-0.1-11.5-0.1-11.5c1.6,1.2,3.8,3.3,5.5,5.9c1.5,2.3,2.1,5,2.1,5
			C104.5,31.1,100.9,32.3,100.9,32.3z M161.4,48.4c-1.7,0.2-3.3-1.2-3.6-2.8c-0.6-4.2,5.6-10.5,5.6-10.5S167.2,47.7,161.4,48.4z"/>
	</g>
	<g>
		<path class="st0" d="M188.4,4.7c0.5,0,1.1,0.1,1.6,0.4s0.9,0.7,1.2,1.2c0.3,0.5,0.4,1.1,0.4,1.6c0,0.6-0.1,1.1-0.4,1.6
			c-0.3,0.5-0.7,0.9-1.2,1.2c-0.5,0.3-1,0.4-1.6,0.4c-0.6,0-1.1-0.1-1.6-0.4c-0.5-0.3-0.9-0.7-1.2-1.2c-0.3-0.5-0.4-1-0.4-1.6
			c0-0.6,0.1-1.1,0.4-1.6c0.3-0.5,0.7-0.9,1.2-1.2S187.9,4.7,188.4,4.7z M188.4,5.2c-0.5,0-0.9,0.1-1.3,0.3c-0.4,0.2-0.8,0.6-1,1
			c-0.2,0.4-0.4,0.9-0.4,1.3c0,0.5,0.1,0.9,0.4,1.3c0.2,0.4,0.6,0.8,1,1s0.9,0.4,1.3,0.4c0.5,0,0.9-0.1,1.3-0.4c0.4-0.2,0.8-0.6,1-1
			c0.2-0.4,0.4-0.9,0.4-1.3c0-0.5-0.1-0.9-0.4-1.3s-0.6-0.8-1-1C189.3,5.3,188.9,5.2,188.4,5.2z M187,9.7V6.2h1.2
			c0.4,0,0.7,0,0.9,0.1c0.2,0.1,0.3,0.2,0.4,0.3c0.1,0.2,0.2,0.3,0.2,0.5c0,0.3-0.1,0.5-0.3,0.7c-0.2,0.2-0.4,0.3-0.7,0.3
			c0.1,0.1,0.2,0.1,0.3,0.2c0.1,0.1,0.3,0.4,0.5,0.7l0.4,0.7h-0.7l-0.3-0.5c-0.2-0.4-0.4-0.7-0.6-0.8c-0.1-0.1-0.3-0.1-0.4-0.1h-0.3
			v1.5H187z M187.6,7.7h0.7c0.3,0,0.5,0,0.7-0.1c0.1-0.1,0.2-0.2,0.2-0.4c0-0.1,0-0.2-0.1-0.3s-0.1-0.1-0.2-0.2
			c-0.1,0-0.3-0.1-0.6-0.1h-0.6V7.7z"/>
	</g>
</g>
</svg>
