<?xml version="1.0" encoding="utf-8"?>
<!-- Generator: Adobe Illustrator 19.0.0, SVG Export Plug-In . SVG Version: 6.00 Build 0)  -->
<svg version="1.1" id="Layer_1" xmlns="http://www.w3.org/2000/svg" xmlns:xlink="http://www.w3.org/1999/xlink" x="0px" y="0px"
	 viewBox="-175 385.1 244.3 68.8" style="enable-background:new -175 385.1 244.3 68.8;" xml:space="preserve">
<style type="text/css">
	.st0{fill-rule:evenodd;clip-rule:evenodd;fill:#DF2027;}
	.st1{fill:#DF2027;}
</style>
<g>
	<g>
		<path class="st0" d="M-90.1,398.7c0,0-7.6,4.9-9-0.1c-1.3-5.1,16.9-14.7,21.1-4.3c4.2,10.2-22.6,27-58.7,33.1c0,0-0.2,0-0.2,0.2
			c0,0.1,0.2,0.1,0.2,0.1s13.2-1.3,29.1-7.1c19.5-7.1,33.2-16.6,30-26.6c-1.4-4.3-7.8-7.8-16.1-3.7c-7.5,3.7-7.2,8.1-6,9.6
			c1.1,1.5,3.6,3,9.6-0.9c0,0,0.3-0.1,0.1-0.3C-89.8,398.6-90.1,398.7-90.1,398.7z M-171,450.6c0,0,12.6,4.2,29.3,3.1
			c30.9-2,59.2-10.3,120.3-29.8c70.2-22.5,92.3-8.2,90.1,2c-1.7,7.9-11.6,9.3-13.2,9.4c-4.5,0.4-13.1-0.6-12.6-5.8
			c0.5-5.7,9.9-3.8,9.9-3.8s0.2,0.1,0.2-0.1c0-0.1-0.2-0.2-0.2-0.2s-10.6-2.3-11.3,4.9c-0.5,5.5,8.3,7.5,13.1,7.1
			c5.1-0.4,14.6-2.3,14.8-12.8c0.2-10.5-20.6-25.4-90.8-2.9c-61.1,19.5-89.6,29.4-120.5,31.4c-16.7,1.1-29.1-2.9-29.1-2.9
			s-0.3-0.1-0.3,0.1C-171.4,450.6-171,450.6-171,450.6z"/>
		<path class="st0" d="M60.1,409.5l-4.7-1.3l-1-3.9l4.7,1.3L60.1,409.5z M58.3,403.1l-4.2-1.1l-3.2-12.7l4.2,1.1L58.3,403.1z
			 M52.9,403c0.4,1.5,0.1,2.6-0.8,3.4c-0.9,0.8-2.2,1.1-3.9,1c-0.8-0.1-1.7-0.2-2.9-0.5c-1.1-0.2-2.2-0.6-3.1-1.1l-0.8-3.3
			c0.8,0.4,1.6,0.8,2.5,1.1c0.9,0.3,1.9,0.5,3,0.6c0.8,0.1,1.4,0,1.8-0.2c0.4-0.2,0.6-0.5,0.4-1.1c-0.1-0.4-0.4-0.7-0.8-0.9
			c-0.5-0.3-1.2-0.5-2.3-0.7c-1.9-0.3-3.2-0.8-4.2-1.6c-0.9-0.7-1.5-1.7-1.8-2.8c-0.3-1.3,0-2.3,0.9-3c0.9-0.7,2.2-1,3.8-0.9
			c0.7,0.1,1.5,0.2,2.3,0.4c0.8,0.2,1.6,0.4,2.2,0.6l0.8,3.4c-0.8-0.4-1.6-0.6-2.3-0.8c-0.7-0.2-1.5-0.3-2.4-0.4
			c-0.7-0.1-1.2,0-1.5,0.2c-0.3,0.2-0.4,0.4-0.4,0.7c0.1,0.5,0.5,0.9,1,1.1c0.6,0.2,1.1,0.3,1.7,0.4c1.8,0.3,3.2,0.8,4.3,1.6
			C51.9,400.8,52.6,401.8,52.9,403z M41,406.4l-4,0.2l-2.1-8.4c-0.1-0.5-0.4-0.9-0.9-1.3c-0.5-0.4-1.1-0.5-1.8-0.5
			c-0.7,0-1.3,0.2-1.7,0.5c-0.4,0.3-0.7,0.6-1,0.9l2.2,9l-4,0.2l-3.3-13.3l3.9-0.5l0.3,1.3l1.4-1c0.4-0.3,0.9-0.5,1.4-0.7
			c0.5-0.2,1-0.2,1.5-0.3c1.4-0.1,2.6,0.3,3.6,1.1c1,0.8,1.7,1.8,2,3.1L41,406.4z M20.6,400.9c-0.3-1.1-0.8-2-1.6-2.8
			c-0.8-0.8-1.7-1.1-2.7-0.9c-1.2,0.2-1.9,0.7-2.2,1.5c-0.3,0.8-0.3,1.9,0,3.1c0.3,1.1,0.8,2.1,1.6,2.8c0.8,0.7,1.7,1,2.8,0.9
			c1.1-0.2,1.9-0.6,2.2-1.3C21,403.4,21,402.3,20.6,400.9z M24.6,400.3c0.5,2.2,0.3,4-0.6,5.5c-1,1.5-2.6,2.4-4.8,2.7
			c-2.4,0.3-4.4-0.1-5.9-1.2c-1.5-1.1-2.6-2.8-3.1-5c-0.5-2-0.3-3.8,0.7-5.3c0.9-1.6,2.5-2.5,4.8-2.9c2.2-0.3,4.2,0.1,5.8,1.2
			C23,396.5,24.1,398.1,24.6,400.3z M10.2,409.6l-3.9,0.8L3,397l3.8-1L10.2,409.6z M6.5,394.6l-3.9,0.8l-0.9-3.6l3.9-0.8L6.5,394.6z
			 M4.9,408.2l-2.1,3.2c-1.3-0.2-2.3-0.7-3.1-1.5c-0.8-0.8-1.4-1.8-1.7-3.1l-1.5-5.8l-1.3,0.3l-0.6-2.5l1.3-0.3l-1.1-4.4l3.8-1.1
			l1.2,4.7l2-0.4l0.6,2.5l-2,0.4l1.2,4.8c0.2,1,0.7,1.7,1.2,2.2C3.3,407.7,4,408.1,4.9,408.2z M-8.3,409.5l-1.4-5.8
			c-0.3-0.2-0.7-0.4-1.2-0.5c-0.5-0.1-1-0.1-1.5,0c-0.8,0.2-1.5,0.7-1.9,1.4c-0.4,0.7-0.4,1.8-0.1,3.2c0.3,1.1,0.8,1.9,1.4,2.5
			c0.7,0.5,1.5,0.7,2.4,0.5c0.5-0.1,1-0.3,1.4-0.6C-8.7,409.9-8.4,409.7-8.3,409.5z M-2.6,410l-2.4,3.2c-0.5,0-0.9-0.2-1.4-0.4
			c-0.4-0.2-0.7-0.5-0.9-0.9l-2,1.9c-0.1,0.1-0.2,0.2-0.4,0.3c-0.2,0.1-0.4,0.2-0.5,0.2c-1.8,0.5-3.4,0.2-4.9-0.7
			c-1.5-0.9-2.5-2.5-3-4.7c-0.5-2.1-0.3-4,0.5-5.6c0.9-1.7,2.3-2.7,4.1-3.2c0.8-0.2,1.5-0.2,2.2-0.1c0.7,0.1,1.2,0.3,1.5,0.5l2-1.3
			l0.8,0l2.1,8.5c0.2,0.7,0.5,1.3,0.8,1.7C-3.7,409.7-3.2,410-2.6,410z M-17.1,413.5l-2.1,3.4c-1.2-0.1-2.3-0.6-3.1-1.3
			c-0.8-0.7-1.3-1.7-1.7-3l-1.5-5.8l-1.3,0.4l-0.6-2.5l1.3-0.4l-1.1-4.4l3.7-1.4l1.2,4.7l2-0.6l0.6,2.5l-2,0.6l1.2,4.8
			c0.2,1,0.6,1.7,1.2,2.2C-18.6,413.1-17.9,413.4-17.1,413.5z M-29.8,412.4c-0.3-1.1-0.8-1.9-1.5-2.6c-0.8-0.6-1.6-0.8-2.6-0.5
			c-0.7,0.2-1.1,0.5-1.5,0.8c-0.3,0.3-0.6,0.6-0.7,0.9l1.6,6.3c0.3,0.2,0.6,0.3,1.1,0.3c0.5,0,1-0.1,1.6-0.3
			c1.1-0.3,1.7-0.9,2.1-1.7C-29.5,414.8-29.5,413.7-29.8,412.4z M-26.1,411.1c0.5,2.1,0.3,3.9-0.6,5.7c-0.9,1.7-2.3,2.8-4,3.4
			c-0.6,0.2-1.2,0.3-1.7,0.4c-0.5,0.1-1,0.1-1.3,0l1.1,4.5l-3.7,1.1l-4.3-17.4l3.5-1.3l0.4,0.7l1.1-1c0.3-0.3,0.7-0.6,1-0.8
			c0.3-0.2,0.6-0.4,1.1-0.5c1.8-0.6,3.4-0.3,4.8,0.7C-27.5,407.5-26.6,409-26.1,411.1z M-39.4,422.8L-43,424l-2.1-8.4
			c-0.1-0.5-0.4-0.9-0.8-1.1c-0.4-0.3-1-0.3-1.7,0c-0.6,0.2-1.1,0.5-1.5,0.9c-0.4,0.4-0.7,0.8-0.9,1.3l2.2,9l-3.7,1.3l-2.1-8.4
			c-0.1-0.5-0.4-0.9-0.8-1.1c-0.4-0.3-1-0.3-1.7,0c-0.7,0.2-1.2,0.6-1.6,1c-0.4,0.4-0.6,0.8-0.8,1.1l2.2,9l-3.7,1.3l-3.3-13.3
			l3.6-1.5l0.3,1.3l1.2-1.4c0.4-0.5,0.8-0.8,1.3-1.1c0.4-0.3,0.9-0.5,1.4-0.6c0.9-0.3,1.6-0.4,2.3-0.2c0.7,0.1,1.3,0.5,1.8,1
			l1.7-1.9c0.3-0.4,0.7-0.7,1.2-1c0.4-0.3,0.9-0.5,1.4-0.7c1.3-0.4,2.4-0.4,3.3,0.2c0.9,0.6,1.6,1.5,1.9,2.8L-39.4,422.8z
			 M-66.4,423.5c-0.4-0.9-1-1.5-1.7-1.9c-0.7-0.3-1.4-0.3-2.3,0c-1,0.3-1.6,0.9-2,1.6c-0.4,0.7-0.5,1.5-0.4,2.5L-66.4,423.5z
			 M-62.5,424.1l-9.7,3.3c0.5,1,1.1,1.7,1.8,1.9c0.8,0.3,1.6,0.2,2.5-0.1c0.7-0.3,1.5-0.6,2.3-1.2c0.8-0.5,1.4-1.1,1.9-1.6l0.8,3.4
			c-0.4,0.5-1,1-2,1.6c-0.9,0.5-1.6,0.9-2.2,1.1c-2.3,0.8-4.3,0.8-5.9-0.1c-1.6-0.8-2.7-2.3-3.2-4.5c-0.5-2.2-0.3-4.2,0.7-5.9
			c1-1.8,2.5-3,4.5-3.7c2-0.7,3.7-0.5,5.3,0.5C-64.2,419.9-63.1,421.6-62.5,424.1z M-78.5,419.1l-4.4,1.4l3.9,15.8l-4.2,1.3
			l-3.9-15.8l-4.4,1.4l-0.8-3.3l13-4L-78.5,419.1z M-98.4,434.5c-0.3-1.1-0.8-2-1.6-2.6c-0.8-0.6-1.7-0.9-2.6-0.6
			c-0.6,0.1-1.1,0.4-1.5,0.7c-0.4,0.3-0.7,0.6-0.8,0.9l1.6,6.3c0.3,0.2,0.6,0.3,1.1,0.3c0.5,0,1,0,1.5-0.1c1.2-0.3,1.9-0.8,2.3-1.6
			C-98.1,436.9-98.1,435.9-98.4,434.5z M-94.7,433.3c0.5,2,0.3,3.9-0.6,5.6c-0.9,1.7-2.3,2.7-4.2,3.2c-0.7,0.2-1.4,0.3-2.1,0.2
			c-0.7,0-1.3-0.1-1.7-0.3l-1.9,1.5l-1-0.2l-4.7-18.7l3.7-1l1.6,6.3l1.3-1c0.2-0.2,0.5-0.4,0.8-0.6c0.3-0.2,0.7-0.4,1.1-0.5
			c1.9-0.5,3.5-0.2,4.9,0.9C-96.1,429.7-95.2,431.2-94.7,433.3z M-114.2,441.1l-1.5-5.8c-0.3-0.3-0.7-0.5-1.2-0.6
			c-0.5-0.1-1-0.2-1.6,0c-0.8,0.2-1.5,0.6-1.9,1.3c-0.4,0.7-0.4,1.8-0.1,3.2c0.3,1.1,0.8,2,1.4,2.5c0.7,0.6,1.5,0.8,2.4,0.6
			c0.5-0.1,1-0.3,1.4-0.5C-114.6,441.5-114.4,441.2-114.2,441.1z M-108.5,441.9l-2.4,3c-0.5-0.1-1-0.2-1.4-0.5c-0.4-0.3-0.7-0.6-1-1
			l-2,1.8c-0.1,0.1-0.2,0.1-0.4,0.2c-0.2,0.1-0.4,0.2-0.5,0.2c-1.8,0.4-3.5,0-5-1c-1.5-1-2.5-2.6-3.1-4.8c-0.5-2.1-0.3-3.9,0.6-5.5
			c0.9-1.6,2.3-2.6,4.2-2.9c0.8-0.1,1.5-0.1,2.2,0c0.7,0.2,1.2,0.3,1.5,0.5l2-1.2l0.8,0.1l2.1,8.5c0.2,0.7,0.5,1.3,0.8,1.7
			C-109.6,441.5-109.1,441.8-108.5,441.9z M-129.5,440.9c-0.3-1.1-0.8-2-1.7-2.8c-0.8-0.7-1.7-1.1-2.7-1c-0.6,0.1-1.1,0.2-1.5,0.4
			c-0.4,0.2-0.7,0.5-0.8,0.8l1.6,6.3c0.3,0.2,0.6,0.4,1.1,0.5c0.5,0.1,1,0.1,1.6,0.1c1.2-0.1,2-0.5,2.4-1.2
			C-129.1,443.3-129.1,442.3-129.5,440.9z M-125.6,440.2c0.5,2,0.3,3.8-0.7,5.3c-0.9,1.5-2.4,2.3-4.4,2.5c-0.7,0.1-1.4,0.1-2.2-0.1
			c-0.8-0.1-1.4-0.3-1.8-0.5l-2,1.2l-1.1-0.4l-4.7-18.7l3.9-0.4l1.6,6.3l1.3-0.8c0.3-0.2,0.6-0.3,0.9-0.5c0.3-0.2,0.7-0.3,1.2-0.3
			c1.9-0.2,3.6,0.3,5,1.5C-127,436.6-126.1,438.2-125.6,440.2z M-145.5,445l-1.4-5.8c-0.3-0.3-0.8-0.6-1.2-0.8
			c-0.5-0.2-1-0.3-1.6-0.3c-0.9,0-1.5,0.3-2,0.9c-0.4,0.6-0.5,1.6-0.1,3c0.3,1.1,0.8,2,1.5,2.7c0.7,0.7,1.6,1,2.5,1
			c0.6,0,1.1-0.1,1.5-0.2C-145.9,445.3-145.6,445.1-145.5,445z M-139.5,446.8l-2.6,2.4c-0.5-0.1-1-0.4-1.4-0.7
			c-0.4-0.3-0.8-0.7-1-1.1l-2.1,1.3c-0.1,0.1-0.2,0.1-0.5,0.1c-0.2,0.1-0.4,0.1-0.6,0.1c-1.9,0-3.6-0.6-5.2-1.8
			c-1.5-1.2-2.6-2.9-3.1-5.1c-0.5-2.1-0.3-3.8,0.7-5.1c1-1.4,2.4-2,4.4-2c0.8,0,1.6,0.1,2.4,0.4c0.8,0.3,1.3,0.6,1.6,0.8l2.1-0.8
			l0.9,0.2l2.1,8.5c0.2,0.7,0.5,1.3,0.9,1.8C-140.6,446.3-140.1,446.6-139.5,446.8z M-152.9,449.6l-5.7-1.1l-7.6-8.6l-1,0.8l1.6,6.5
			l-4.7-0.9l-4.7-19l4.7,0.9l1.9,7.4l6.7-6.1l3.6,3.2l-5.5,5L-152.9,449.6z"/>
	</g>
	<g>
		<path class="st1" d="M60.4,385.1c0.6,0,1.3,0.2,1.9,0.5c0.6,0.3,1.1,0.8,1.4,1.4c0.3,0.6,0.5,1.2,0.5,1.9c0,0.7-0.2,1.3-0.5,1.9
			s-0.8,1.1-1.4,1.4c-0.6,0.3-1.2,0.5-1.9,0.5c-0.7,0-1.3-0.2-1.9-0.5c-0.6-0.3-1.1-0.8-1.4-1.4s-0.5-1.2-0.5-1.9
			c0-0.7,0.2-1.3,0.5-1.9s0.8-1.1,1.4-1.4C59.2,385.2,59.8,385.1,60.4,385.1z M60.4,385.8c-0.5,0-1,0.1-1.5,0.4
			c-0.5,0.3-0.8,0.6-1.1,1.1c-0.3,0.5-0.4,1-0.4,1.5c0,0.5,0.1,1,0.4,1.5c0.3,0.5,0.6,0.9,1.1,1.1c0.5,0.3,1,0.4,1.5,0.4
			c0.5,0,1-0.1,1.5-0.4c0.5-0.3,0.8-0.6,1.1-1.1c0.3-0.5,0.4-1,0.4-1.5c0-0.5-0.1-1-0.4-1.5c-0.3-0.5-0.6-0.9-1.1-1.1
			S60.9,385.8,60.4,385.8z M58.7,390.8v-4h0.8c0.8,0,1.2,0,1.3,0c0.3,0,0.5,0.1,0.6,0.2c0.1,0.1,0.3,0.2,0.4,0.4
			c0.1,0.2,0.1,0.4,0.1,0.6c0,0.3-0.1,0.5-0.3,0.7c-0.2,0.2-0.5,0.3-0.8,0.4c0.1,0,0.2,0.1,0.3,0.1c0.1,0.1,0.2,0.2,0.3,0.3
			c0,0,0.1,0.2,0.3,0.5l0.5,0.8h-1l-0.3-0.6c-0.2-0.4-0.4-0.7-0.6-0.8c-0.1-0.1-0.3-0.2-0.6-0.2h-0.2v1.6H58.7z M59.5,388.6h0.3
			c0.5,0,0.8,0,0.9-0.1c0.1,0,0.2-0.1,0.3-0.2c0.1-0.1,0.1-0.2,0.1-0.3c0-0.1,0-0.2-0.1-0.3c-0.1-0.1-0.2-0.1-0.3-0.2
			s-0.4-0.1-0.9-0.1h-0.3V388.6z"/>
	</g>
</g>
</svg>
