<?xml version="1.0" encoding="utf-8"?>
<!-- Generator: Adobe Illustrator 19.0.0, SVG Export Plug-In . SVG Version: 6.00 Build 0)  -->
<svg version="1.1" id="Layer_1" xmlns="http://www.w3.org/2000/svg" xmlns:xlink="http://www.w3.org/1999/xlink" x="0px" y="0px"
	 viewBox="0 0 247 58" style="enable-background:new 0 0 247 58;" xml:space="preserve">
<style type="text/css">
	.st0{fill-rule:evenodd;clip-rule:evenodd;fill:#DF2027;}
	.st1{fill:#DF2027;}
</style>
<g>
	<path class="st0" d="M240.5,22.5h0.9c0.6,0,0.9,0,1.1-0.1c0.1,0,0.3-0.1,0.3-0.3c0.1-0.1,0.1-0.3,0.1-0.5c0-0.2-0.1-0.4-0.2-0.5
		c-0.1-0.1-0.3-0.2-0.5-0.2c-0.1,0-0.4,0-0.9,0h-0.9V22.5z M239.2,26v-6h2.6c0.6,0,1.1,0.1,1.4,0.2c0.3,0.1,0.5,0.3,0.7,0.6
		c0.2,0.3,0.3,0.6,0.3,0.9c0,0.4-0.1,0.8-0.4,1.1c-0.3,0.3-0.7,0.5-1.2,0.6c0.3,0.2,0.5,0.3,0.6,0.5c0.2,0.2,0.4,0.5,0.7,1l0.7,1.2
		h-1.4l-0.9-1.3c-0.3-0.5-0.5-0.8-0.6-0.9c-0.1-0.1-0.2-0.2-0.4-0.2c-0.1,0-0.3-0.1-0.6-0.1h-0.2V26H239.2z M236.4,23
		c0-2.9,2.4-5.3,5.3-5.3c2.9,0,5.3,2.4,5.3,5.3c0,2.9-2.4,5.3-5.3,5.3C238.8,28.3,236.4,25.9,236.4,23z M237.5,23
		c0,2.3,1.9,4.2,4.2,4.2c2.3,0,4.2-1.9,4.2-4.2c0-2.3-1.9-4.2-4.2-4.2C239.4,18.8,237.5,20.7,237.5,23z"/>
	<path class="st1" d="M225.8,50.7c0,3.8-2.4,7.1-8.9,7.1c-2.5,0-3.5-0.9-4.6-1c-0.9-0.2-1.8-0.1-2.5,0.8v-8.6c1.1,3.2,2.9,7,6.4,7.9
		c4.9,1.2,6.6-2.7,6.4-4.6c-0.2-2-0.3-3.9-6.9-7.4c-3.8-2-4.9-4.2-5.1-6.1c-0.3-2.4,0.9-7.1,7.2-7.1c2.4,0,3.5,0.8,4.3,1
		c0.5,0.2,1.6,0.3,2.4-0.4v6.3c-0.9-2.4-3.5-6-6.7-6.2c-3.5-0.3-5.1,3.2-3.8,5.7c0.8,1.4,2.5,3,4.8,4.3
		C224.4,45.6,225.8,47.6,225.8,50.7z M202.4,41.8c0.3-4.8-1.7-9.4-5.8-9.4c-3.4,0-6.5,2.7-6.8,9.4H202.4z M206.2,42.5h-16.5
		c-0.1,0.2-0.1,0.4-0.1,0.6c0,5.5,2,10.1,5.7,11.6c4.7,1.9,9-0.2,10.6-4.7c-0.9,4.3-3.8,8-9.3,8c-6.8,0-11-5.9-11-13.2
		c0-7.3,4-13.2,11-13.2c4.5,0,9.1,2.7,9.4,10.2L206.2,42.5z M184,36.7c-0.7-1.3-2.4-2.4-4.4-2.2c-2.2,0.2-4.2,2.7-4.2,5.7V54
		c0,2,1.3,2.7,4.4,3.4h-12.4c3.1-0.7,4.4-1.4,4.4-3.4V36.6c0-1.6-0.6-3-4.4-2.5c0,0,5-1.5,8-2.5v5.7c1-3.1,3.1-5.2,5.4-5.6
		c1.7-0.3,2.6,0.3,3.2,0.5V36.7z M162.5,46.3c0-3.5-2.4-9-8.2-9.4c-1.9,0.2-3.8,0.2-5.9,0v16c0,1.2,0.2,3.6,2.5,3.6h2.4
		C160.5,56.6,162.5,50.9,162.5,46.3z M159.5,28.2c0-6.9-5.5-9.2-10.3-9.2c-0.3,0-0.6,0.1-0.9,0.1v17.3
		C158,37.2,159.5,31.7,159.5,28.2z M166.8,46.4c-0.2,6.1-4.7,11-11.6,11h-2.4h-12.6c3.1-0.7,3.6-2.3,3.6-4.4V20c0,0-4,1.7-5.9,4.9
		c3.4-7.1,12.1-7.1,12.1-7.1c8.1,0,13.9,3.5,13.9,10c0,4.2-2.9,7.2-7.2,8.5C163.9,37.7,166.9,41.5,166.8,46.4z M138.1,36.7
		c-0.7-1.3-2.4-2.4-4.4-2.2c-2.2,0.2-4.2,2.7-4.2,5.7V54c0,2,1.3,2.7,4.4,3.4h-12.4c3.1-0.7,4.4-1.4,4.4-3.4V36.6
		c0-1.6-0.6-3-4.4-2.5c0,0,5-1.5,8-2.5v5.7c1-3.1,3.1-5.2,5.4-5.6c1.7-0.3,2.6,0.3,3.2,0.5V36.7z M116.6,41.8
		c0.3-4.8-1.7-9.4-5.8-9.4c-3.4,0-6.5,2.7-6.8,9.4H116.6z M120.4,42.5h-16.5c-0.1,0.2-0.1,0.4-0.1,0.6c0,5.5,2,10.1,5.7,11.6
		c4.7,1.9,9-0.2,10.6-4.7c-0.9,4.3-3.8,8-9.3,8c-6.8,0-11-5.9-11-13.2c0-7.3,4-13.2,11-13.2c4.5,0,9.1,2.7,9.4,10.2L120.4,42.5z
		 M90.7,46.8v-6.8c0-4.9-2.3-7.6-5.8-7.6c-4.3,0-7.2,5.9-7.2,12.5c0,6.3,2.5,10.9,6.9,10.9C88.1,55.7,90.7,52,90.7,46.8z
		 M225.6,12.7c16.5,3.6,7.8,27-28,12.6C112.3-9,35.1,4.1,37.1,16c2,11.8,43,3.9,52.5,2l4.7-1.1v36.4c0,1.4,0.3,2.6,1.2,2.7
		c0.9,0.2,1.7-0.1,2.8-1.7c-1,2.1-2.5,3.6-4.6,3.6c-2.1,0-3.1-1.2-3.1-4.5v-1.8c-1,3.2-3.6,6.4-7.3,6.4c-5.8,0-9.8-4.9-9.8-12.2
		c0-9.4,4.6-14.3,11.1-14.3c3,0,4.7,1.1,6.1,2.5V21.9c0-1.4,0-3.3-3.3-2.4c-15.8,4.5-53.1,13.2-56.6-2.2
		c-3.7-16,73.4-31.5,166.8,5.3C216.3,30,233.1,23.1,225.6,12.7z M71.9,57.4H61.5c3.2-0.7,3.6-1.4,3.6-3.4V40c0-4.9-1.6-6.2-4.1-6.2
		c-2.9,0-7.2,3.2-7.2,7.7V54c0,2,0.5,2.7,3.6,3.4H46.5c3.2-0.7,3.6-1.4,3.6-3.4V36.6c0-1.6-0.6-3-4.4-2.5c0,0,5-1.5,8-2.5V38
		c2-4.2,5.7-6.5,8.6-6.5c3.8,0,6.4,1.7,6.4,8V54C68.7,56,68.7,56.7,71.9,57.4z M40.8,41.8c0.3-4.8-1.7-9.4-5.8-9.4
		c-3.4,0-6.5,2.7-6.8,9.4H40.8z M44.6,42.5H28.1c-0.1,0.2-0.1,0.4-0.1,0.6c0,5.5,2,10.1,5.7,11.6c4.7,1.9,9-0.2,10.6-4.7
		c-0.9,4.3-3.8,8-9.3,8c-6.8,0-11-5.9-11-13.2c0-7.3,4-13.2,11-13.2c4.5,0,9.1,2.7,9.4,10.2L44.6,42.5z M30.2,30.8
		C27.8,25,25.6,19.7,22,19.7c-2.9,0-4.7,1.5-4.7,4v30c0,2.1,2.1,2.9,5.2,3.6H7.6c3.1-0.7,5.2-1.5,5.2-3.6v-30c0-2.5-1.7-4-4.6-4
		C4.5,19.7,2.4,25,0,30.8l1-12h28.2L30.2,30.8z M242.1,52.2c-0.9,3.4-2.9,5.6-6.2,5.6c-3.2,0-4.6-2.3-4.6-6.9v-16c0-1.6-0.1-2-4.4-2
		v-0.7c0,0,4.6,0,8-6.2v6.2h5.4V33H235v18c0,2.7,0.6,4,1.9,4.5C238.9,56.1,240.7,55.3,242.1,52.2z"/>
</g>
</svg>
