<?xml version="1.0" encoding="utf-8"?>
<!-- Generator: Adobe Illustrator 19.0.0, SVG Export Plug-In . SVG Version: 6.00 Build 0)  -->
<svg version="1.1" id="Layer_1" xmlns="http://www.w3.org/2000/svg" xmlns:xlink="http://www.w3.org/1999/xlink" x="0px" y="0px"
	 viewBox="0 0 201.3 106.1" style="enable-background:new 0 0 201.3 106.1;" xml:space="preserve">
<style type="text/css">
	.st0{fill:#DF2027;}
</style>
<g>
	<path class="st0" d="M197.7,94.9c0.8,0,1.3,0.3,1.5,1c0.7,2.3,0.8,4.5,0.4,6.7c0,0.4-0.4,0.8-1.1,1l-24.8,2.4
		c-2.1,0.2-3.3-1.3-3.4-4.5c-0.1-2.8,0.5-4.4,1.8-4.7c0.2-0.1,1.3-0.2,3.3-0.3c0.6,0,1.5-0.1,2.7-0.2l-19.2-32.7l-1.2-0.6l0.8,27.5
		l7.1,0.2c0.9,0.1,1.4,0.6,1.4,1.7c0.1,3.5-0.2,6-0.9,7.7H166c-3.7,0-6.4,0-7.9,0c-3.1,0.1-7.6,0.3-13.4,0.7c-0.9,0-2.1,0.1-3.6,0.2
		c-1.2,0.1-2-0.5-2.3-1.7c-0.3-1-0.5-2.2-0.3-3.7c0.1-1.5,0.3-2.7,0.6-3.6c0.1-0.3,0.3-0.5,0.7-0.5l7.3-0.1l-2.2-80.7
		c-0.6,0.1-1.2,0.1-1.7,0.2l-1.5,0c-0.6,0-1.1,0-1.5-0.1c-1.3-0.1-2.2-0.6-2.5-1.7c-0.3-0.6-0.4-1.3-0.5-2.1c-0.1-2.9,0.2-4.8,1-5.6
		c0.3-0.3,1.6-0.6,4-0.8l2.9,0c1,0.1,1.9,0.1,2.7,0.1c1.6,0,3.2-0.1,5-0.2l9.4-0.4l3-0.1c0.6-0.2,1,0.1,1.3,0.8
		c0.5,1.6,0.8,3.1,0.8,4.7c-0.1,2.5-0.9,3.8-2.3,3.9l-8.2,0.8l0.8,45.5c2.7-4.3,6.6-10.8,11.4-19.7l-5.8-0.3c-0.4,0-0.6-0.2-0.6-0.5
		l-0.1-5.2c0.3-2.1,1.1-3.1,2.5-3.2l21.1-0.4c1.8,0,2.7,0.5,2.8,1.7c0,0.6-0.1,1.3-0.2,2.1c-0.2,0.7-0.1,1.7,0,2.9
		c0.2,1.6-0.4,2.5-1.8,2.6c-0.9,0.1-1.9,0.2-2.9,0.2l-2.5,0c-1,0.1-1.8,0.8-2.6,2c-1.8,3.1-4,7.1-6.4,11.9l-4.2,8.4l22.2,36.4
		L197.7,94.9z M97.8,59.2c0.1-3.1,0.3-5.9,0.7-8.5l-18.3,0.8l0.6,33.8c0.1,4.3,0.6,8.5,1.5,12.6c0.2,0.2,0.3,0.3,0.5,0.1
		c2.4-2.8,4-6.1,5-9.9c1.2-4.7,1.9-10.8,1.9-18.4c0-1.9-0.2-3.4-0.6-4.6c-0.5-1.8-0.6-3.1-0.3-4c0.2-0.7,1.2-1.3,2.8-1.5
		c1-0.3,2.8-0.4,5.6-0.5C97.4,59.2,97.6,59.2,97.8,59.2z M145.4,73.3c-0.7,5.1-1.3,8.5-1.9,10.3c-0.9,3.2-2.7,6.2-5.2,9
		c-4.1,4.8-9.6,7.2-16.3,7.4c-10,0.2-16.6-3.3-19.8-10.3c-0.8-1.8-1.5-3.8-2.1-6l0,0.3c-0.8,8.5-3.4,14.2-7.6,17.1
		c-2.9,2-6.1,3.2-9.7,3.4c-6,0.4-10-1.4-11.9-5.1c-1.2-2.3-1.8-6.3-1.9-11.9l-0.6-35.4l-3.3,0l0.2,1.7l0.1,3.7
		c-0.1,1.5-0.4,3.4-0.9,5.7c-0.6,1-2.2,1.7-4.8,2.2c-1,0.2-1.9,0.3-2.9,0.3l-2,0c-2.5-0.4-4-1.2-4.5-2.5c-0.5-1.2-0.6-3.1-0.1-5.7
		c0.1-0.4,0.1-1.2,0.1-2.2c0-1.3-0.3-4.4-0.8-9.2l-0.6-5.7c-0.9-7.2-1.3-11.1-1.4-11.6c-0.7-4.5-1.9-8.3-3.4-11.4
		c-1.5-3.1-3.5-4.6-5.9-4.4c-2.6,0.4-5.3,2.9-7.9,7.7c-3.7,6.6-5.3,12.7-4.9,18.2c0.6,8.2,5.5,16.1,14.4,23.7
		c7.1,6.2,12.7,11.8,16.7,17c2.5,3.3,4,6.8,4.5,10.5c0.9,6.4-2.5,10.8-10.3,13.3c-4.1,1.3-8.1,2-12,2.1c-7.6,0-14.6-1-20.9-2.9
		c-4.4-1.2-8.2-3.1-11.5-5.5c-4.7-3.2-6.7-6.5-6-10c0.5-2.2,1.8-4,4.1-5.2c2-1,4.3-1.5,6.7-1.4c5.7,0.3,9.5,2.2,11.4,5.6
		c0.9,1.7,1.7,3.3,2.3,4.8l0.9,2.1c0.3,0.7,0.5,1,0.6,1.1c0.4,0.4,2.1,0.8,5.1,1.2c1.2,0.1,2.4,0.2,3.8,0.1c5.2-0.4,8.6-1.8,10.1-4
		c1-1.5,1.3-3,1-4.6c-0.5-2.8-2.3-5.8-5.6-8.8c-1.2-1.1-4.3-3.8-9.5-8.3l-5.6-4.7c-3.8-3.2-6.2-5.3-7.3-6.5
		c-2.4-2.4-4.4-5.1-5.8-7.8c-3-5.7-4.3-11.6-4-17.9c0.2-4.9,1.5-9.5,4-14c2.5-4.4,5.7-8,9.7-10.6c5.5-3.6,11.6-5,18.3-4.4
		c6.9,0.6,12.1,3.4,15.8,8.4c3,4.2,5.1,10.1,6.4,17.6c0.6,3.4,1,6.9,1.3,10.4l0.2,2.1l4.5-0.1c0-4-0.1-7.9-0.2-11.8
		c-0.3-2.1-0.6-3.8-1-5.1c-0.6-2.1-0.1-3.7,1.7-4.7c1.8-1,3.9-1.5,6.3-1.4c3.3,0.2,5,1.3,5,3.3l0,19.1l13.2-0.2
		c3.5-0.1,4.8,3,4.8,4.8c0,0.8,0.1,2,0.1,3.4c0.3-1.7,0.7-3.3,1.1-4.8c1-3.5,2.3-6.1,4-7.9c1.7-1.9,4.2-3.5,7.6-4.9
		c3.8-1.5,7.7-2.2,11.9-2.3c5,0.1,8.8,1.3,11.5,3.6c4,3.6,7,9.8,8.9,18.6C145.1,59.2,145.7,66.3,145.4,73.3z M133.4,69.1
		c-0.3-9.4-1.8-17.6-4.5-24.4c-2.2-5.6-5.2-8.3-9-8.3c-2.9,0-5.1,2.1-6.7,6.2c-1.4,3.3-2,13.3-2.1,16.3c-0.1,2.6-0.1,6,0.2,10.2
		c0.3,6,1.2,11.2,2.8,15.8c2.3,6.9,5.8,9.7,10.5,8.5c3.5-0.9,6-4.2,7.6-9.9C133.2,79.6,133.6,74.8,133.4,69.1z"/>
	<path class="st0" d="M192,31.2c0,2.3,1.9,4.1,4.1,4.1c2.3,0,4.1-1.8,4.1-4.1c0-2.3-1.9-4.1-4.1-4.1C193.9,27.1,192,28.9,192,31.2z
		 M191,31.2c0-2.8,2.3-5.1,5.1-5.1c2.8,0,5.1,2.3,5.1,5.1c0,2.8-2.3,5.1-5.1,5.1C193.3,36.3,191,34,191,31.2z M193.7,34.1v-5.9h2.5
		c0.6,0,1.1,0.1,1.4,0.2c0.3,0.1,0.5,0.3,0.7,0.6c0.2,0.3,0.3,0.6,0.3,0.9c0,0.4-0.1,0.8-0.4,1.1c-0.3,0.3-0.6,0.5-1.2,0.5
		c0.3,0.2,0.5,0.3,0.6,0.5c0.2,0.2,0.4,0.5,0.7,1l0.7,1.1h-1.4l-0.8-1.3c-0.3-0.5-0.5-0.7-0.6-0.9c-0.1-0.1-0.2-0.2-0.4-0.2
		c-0.1,0-0.3-0.1-0.6-0.1h-0.2v2.4H193.7z M194.9,30.8h0.9c0.6,0,0.9,0,1.1-0.1c0.1,0,0.2-0.1,0.3-0.2c0.1-0.1,0.1-0.3,0.1-0.4
		c0-0.2-0.1-0.4-0.2-0.5c-0.1-0.1-0.3-0.2-0.4-0.2c-0.1,0-0.4,0-0.9,0h-0.9V30.8z"/>
</g>
</svg>
