<?xml version="1.0" encoding="utf-8"?>
<!-- Generator: Adobe Illustrator 19.0.0, SVG Export Plug-In . SVG Version: 6.00 Build 0)  -->
<svg version="1.1" id="Layer_1" xmlns="http://www.w3.org/2000/svg" xmlns:xlink="http://www.w3.org/1999/xlink" x="0px" y="0px"
	 viewBox="-167 345.6 259.7 41.3" style="enable-background:new -167 345.6 259.7 41.3;" xml:space="preserve">
<style type="text/css">
	.st0{fill:#DF2027;}
</style>
<g>
	<g>
		<g>
			<path class="st0" d="M-114.6,371.7l1.5-2.6c0.6-1.1,0.8-1.9-0.5-2.8l-0.4-0.3l-0.2-0.2c-0.9,2-1.9,3.8-3.6,5.7
				c-3.3,3.6-9.2,4.5-9.3,4.6c-0.3-0.6,1.3-0.4,1.5-0.7c0.7-0.3,4.6-1.3,7.3-4.1c1.6-1.7,2.7-3.7,3.6-5.9c-1.7-1.4,0.6-4.1,2.1-4.1
				c-0.3,1.2-0.8,2.6-1.4,4l1.7,1.3c0.8,0.6,2.4,1.8,0.9,4.7l-1.5,2.6c-1.3,2.3,0.2,1.5,1.7,0.3c1.3-1,3.1-3,4.2-5
				c0.2-0.3,0.5-0.1,0.3,0.2c-0.9,1.6-1.9,2.9-3,4c-1.7,1.8-3.2,2.9-4.5,2.9C-115.4,376.1-116.4,374.8-114.6,371.7z"/>
			<path class="st0" d="M-100.4,364.1c2,0,3.5,1.2,2.1,3.4c-1.3,2-5,3.2-8.1,3.7c-0.7,1.6-0.7,3.1,0.3,3.8c1.6,1,4.1,0.2,6-1.3
				c1.5-1.2,2.9-2.7,4-4.6c0.2-0.3,0.5-0.1,0.3,0.2c-1.1,1.8-2.4,3.5-4.1,4.8c-2,1.6-4.3,2.5-7,1.8c-1.9-0.5-3.3-2.7-1.8-5.9
				C-107.2,366.8-104,364.1-100.4,364.1z M-105.2,369c-0.4,0.6-0.7,1.2-1,1.8c2.3-0.5,4.2-1.7,5.4-3.7c0.9-1.5,0.9-2.5,0.1-2.5
				C-101.7,364.6-103.7,366.5-105.2,369z"/>
			<path class="st0" d="M-88.5,366.4c1.1-1.8,2.2-2.1,4-2.1l-5.3,9.5c-1.3,2.3,0.5,1.3,2.1,0.2c1.4-1,3.1-3,4.2-5
				c0.2-0.3,0.4-0.1,0.3,0.2c-2.4,4.1-5.7,6.9-7.9,6.9c-0.9,0-1.7-0.8-1.2-2.6c-1.4,1.7-2.9,2.6-4.2,2.6c-2.6-0.1-2.4-3.2-0.9-6
				c1.4-2.5,4.7-6.5,7.7-6C-88.7,364.3-88.3,365.1-88.5,366.4z M-94.4,370.1c-1.7,3-2.2,5.3-0.9,5.3c1,0,3.1-2.2,4.8-5.3
				c1.7-3,2.1-5.1,1-5.1C-90.5,365-92.7,367-94.4,370.1z"/>
			<path class="st0" d="M-74.7,364.4c4.1-7.2,9.7-15,17-17.6c5.1-1.8,9.7-2,12.8,1.8c0.6,0.7,0.9,2-0.6,2.5c-1.5-5.9-7.1-5.7-12-3.9
				c-6.4,2.5-11.3,11.7-15,18.3l-4.6,8.3c-1.3,2.3,0.9,1.4,2.4,0.2c1.3-1.1,3.1-3,4.2-5c0.2-0.3,0.4-0.1,0.3,0.2
				c-1.3,2.2-3,4.1-4.5,5.4c-1.1,0.8-4,2.6-4.8,0.8c-0.2-0.4-0.3-1,0-1.8c-1.4,1.6-2.9,2.6-4.2,2.6c-2.6-0.1-2.4-3.2-0.9-6
				c1.4-2.5,4.7-6.5,7.7-6c1,0.2,1.4,1,1.2,2.3L-74.7,364.4z M-81.7,370.1c-1.7,3-2.2,5.3-0.9,5.3c1,0,3.1-2.2,4.8-5.3
				c1.7-3,2.1-5.1,1-5.1C-77.8,365-80.1,367-81.7,370.1z"/>
			<path class="st0" d="M-63.7,364.1c2,0,3.5,1.2,2.1,3.4c-1.3,2-5,3.2-8.1,3.7c-0.7,1.6-0.7,3.1,0.3,3.8c1.6,1,4.1,0.2,6-1.3
				c1.5-1.2,2.9-2.7,4-4.6c0.2-0.3,0.5-0.1,0.3,0.2c-1.1,1.8-2.4,3.5-4.1,4.8c-2,1.6-4.3,2.5-7,1.8c-1.9-0.5-3.3-2.7-1.8-5.9
				C-70.5,366.8-67.4,364.1-63.7,364.1z M-68.6,369c-0.4,0.6-0.7,1.2-1,1.8c2.3-0.5,4.2-1.7,5.4-3.7c0.9-1.5,0.9-2.5,0.1-2.5
				C-65.1,364.6-67,366.5-68.6,369z"/>
			<path class="st0" d="M-50.7,364.4c4.1-7.2,9.7-15,17-17.6c5.1-1.8,9.7-2,12.8,1.8c0.6,0.7,0.9,2-0.6,2.5c-1.5-5.9-7.1-5.7-12-3.9
				c-6.4,2.5-11.3,11.7-15,18.3l-4.6,8.3c-1.3,2.3,0.9,1.4,2.4,0.2c1.3-1.1,3.1-3,4.2-5c0.2-0.3,0.4-0.1,0.3,0.2
				c-1.3,2.2-3,4.1-4.5,5.4c-1.1,0.8-4,2.6-4.8,0.8c-0.2-0.4-0.3-1,0-1.8c-1.4,1.6-2.9,2.6-4.2,2.6c-2.6-0.1-2.4-3.2-0.9-6
				c1.4-2.5,4.7-6.5,7.7-6c1,0.2,1.4,1,1.2,2.3L-50.7,364.4z M-57.7,370.1c-1.7,3-2.2,5.3-0.9,5.3c1,0,3.1-2.2,4.8-5.3
				c1.7-3,2.1-5.1,1-5.1C-53.8,365-56,367-57.7,370.1z"/>
		</g>
		<g>
			<path class="st0" d="M-123.7,348.8c0.6-0.4,1.3-0.7,1.9-1c3-1.3,6.4-0.8,8,1.7c0.6,0.9,0.8,2.3-1,2.8c0-2.9-2.4-5.8-5.7-4.3
				c-0.7,0.3-1.4,0.8-2,1.3c5.2,2.1,8.3,6.2,4.2,9.8c-1.2,1-3.8,1.9-6.9,2.2c6.8,1.9,7.6,7.9,4.1,11.4c-4.5,4.4-12.1,5.4-18.9,1.7
				c-2.8,2.5-6.2,4.4-9.7,5.6c-0.9,0.3-1.9,0.6-2.9,0.8c4.2,6.8,13.1,7,17.5,2.1c0.6-0.7,0.8-0.3,0.3,0.2c-4.6,5.4-14.3,5.3-19.5-2
				c-4.7,0.8-9.3,0.1-12.1-3.4c-0.7-0.9-1-2.4,0.7-3c1.4,5.3,6.2,6.5,11.1,5.7c-1-1.5-1.8-3.3-2.3-5.4c-6.4-0.4-8.1-6.5-6.7-11.8
				c2.8-10.2,12.5-15.8,23.2-16.6C-134.9,346.2-128.9,347-123.7,348.8z M-152.9,380.1c1-0.2,2-0.5,2.9-0.9c7.7-3,11-8.9,15.5-16.8
				l2-3.4c2.1-3.5,4.5-7.4,8-9.7c-5-1.7-10.6-2.3-16-1.8c-9.7,1-18.5,8.3-20.1,17.1c-0.7,3.8-0.3,8.2,3.2,9.4
				c-0.2-0.9-0.3-1.8-0.3-2.7c-0.2-3.8,1.6-10.3,6-14.7c8.4-8.5,16.5-5.1,12.3,5.3c-2,5-6.3,10.3-12.1,12.3
				c-1.1,0.4-2.2,0.6-3.1,0.8C-154.3,377-153.7,378.7-152.9,380.1z M-154.7,374.2c0.5,0,1.2-0.1,1.8-0.3c6.9-1.7,10.9-7.6,12.8-12
				c3.5-8.1-1-12.7-8.3-4.9C-152.9,361.7-155.3,368.9-154.7,374.2z M-130.2,361.3l-2,3.5c-1.8,3.3-4.3,6.4-7.2,9
				c6,3.1,13.1,2.3,16.2-3.2C-121.1,366.6-122.6,361.3-130.2,361.3z M-123.1,349.8c-1.8,1.8-3.2,4.2-4.5,6.6l-2.2,4.1
				c4.7,0.5,7.9-1,9.2-2.5C-118,355-118.8,351.6-123.1,349.8z"/>
		</g>
		<g>
			<path class="st0" d="M-24.2,364.4c3.3-5.6,10.3-10.7,16.9-7.7c4.4,2,4.3,7.8,2.4,12.2c-3.8,9-13.2,11.3-14.4,4.1
				c-0.6-3.9,1.3-7.9,4.2-10.5c2-1.7,2.8,0,1.3,1.1c-2.7,2-5.2,5.6-4.8,9.5c0.6,6.7,10.2,3.6,13.2-4.5c1.6-3.8,2-10-2.5-11.5
				c-5-1.7-10.2,2.7-13,7c-3.6,5.5-5.8,15.7,3.1,16.9c4.4,0.6,10.3-1.8,14.6-7.7c4.5-6.2,1.7-14.2,6.7-18.4c0.8-0.7,1.9-1.6,4.4-1.4
				c1.7,0.2,3.4,1.5,3.3,3.3c0,1.2-1.2,2.7-2.7,2.7c-1,0-1.7-0.6-1.6-1.4c0.1-0.8,1.1-1.4,2.1-1.4c0.3,0,0.5,0,0.7,0.1
				c0.8-1.4-0.3-2.5-1.5-2.7c-2-0.4-2.8,0.5-3.5,1.5c-3.4,4.2-0.2,11.2-5.4,18.1c-3.6,4.8-10.5,7.9-15.8,7.9
				C-27.5,381.6-28.3,371.2-24.2,364.4z"/>
			<path class="st0" d="M13.7,364.2c2,0,3.5,1.2,2.1,3.4c-1.3,2-5,3.2-8.1,3.7c-0.7,1.6-0.7,3.1,0.3,3.8c1.6,1,4.1,0.2,6.1-1.3
				c1.5-1.2,2.9-2.7,4-4.6c0.2-0.3,0.5-0.1,0.3,0.2c-1.1,1.8-2.4,3.5-4.1,4.9c-2,1.6-4.3,2.5-7,1.8c-1.9-0.5-3.3-2.7-1.8-5.9
				C6.9,366.9,10.1,364.2,13.7,364.2z M8.9,369.1c-0.4,0.6-0.7,1.2-1,1.8c2.3-0.5,4.2-1.7,5.4-3.7c0.9-1.5,0.9-2.5,0.1-2.5
				C12.3,364.6,10.4,366.5,8.9,369.1z"/>
			<path class="st0" d="M17.9,373.9c-1.3,2.3,0.9,1.4,2.4,0.2c1.4-1.1,3.2-3,4.3-5c0.2-0.3,0.4-0.1,0.3,0.2c-1.4,2.2-3,4.1-4.6,5.4
				c-1,0.8-3.9,2.6-4.8,0.8c-0.4-0.7-0.3-1.9,0.8-3.8l4-7.3c4.1-7.2,9.7-15,17-17.6c5.1-1.8,9.7-2,12.8,1.8c0.6,0.7,0.9,2-0.6,2.5
				c-1.5-5.9-7.1-5.8-12-3.9c-6.4,2.5-11.3,11.7-15,18.3L17.9,373.9z"/>
			<path class="st0" d="M31.3,364.2c2,0,3.5,1.2,2.1,3.4c-1.3,2-5,3.2-8.1,3.7c-0.7,1.6-0.7,3.1,0.3,3.8c1.6,1,4.1,0.2,6.1-1.3
				c1.5-1.2,2.9-2.7,4-4.6c0.2-0.3,0.5-0.1,0.3,0.2c-1.1,1.8-2.4,3.5-4.1,4.9c-2,1.6-4.3,2.5-7,1.8c-1.9-0.5-3.3-2.7-1.8-5.9
				C24.5,366.9,27.7,364.2,31.3,364.2z M26.4,369.1c-0.4,0.6-0.7,1.2-1,1.8c2.3-0.5,4.2-1.7,5.4-3.7c0.9-1.5,0.9-2.5,0.1-2.5
				C29.9,364.6,28,366.5,26.4,369.1z"/>
			<path class="st0" d="M42.6,368.5c-0.8,0-1.4-0.5-1.2-1.2c0.2-0.9,1.2-1.5,2.3-1.2c0.5-0.9-0.1-1.4-0.9-1.4
				c-2-0.2-4.1,2.6-5.2,4.4c-0.5,0.7-0.9,1.5-1.2,2.2c-0.7,1.6-0.7,3.1,0.3,3.8c1.6,1,4.1,0.2,6-1.3c1.6-1.2,2.9-2.7,4.1-4.6
				c0.2-0.3,0.5-0.1,0.3,0.2c-1.1,1.8-2.3,3.5-4.1,4.9c-2,1.6-4.3,2.5-7,1.8c-1.9-0.5-3.3-2.7-1.8-5.9c1.4-3.1,4.6-5.8,8.2-5.8
				C46,364.2,45.6,368.6,42.6,368.5z"/>
			<path class="st0" d="M49.2,364.4c4.1-7.2,9.7-15,17-17.6c5.1-1.8,9.7-2,12.8,1.8c0.6,0.7,0.9,2-0.6,2.5c-1.5-5.9-7.1-5.8-12-3.9
				c-6.1,2.3-10.7,10.6-14.3,17.1h2.9c0.5,0,0.3,0.6-0.3,0.6h-3l-3.9,7.3c-0.9,1.7-1.2,2.8-0.6,3c0.6,0.2,1.4,0,2.2-0.5
				c2.2-1.1,4.3-3.3,5.6-5.6c0.2-0.3,0.4-0.1,0.3,0.2c-1.5,2.4-3.2,4.5-5.7,5.9c-3.8,2.2-6.9,0.6-3.7-5l2.9-5.2h-1.8
				c-0.5,0-0.4-0.6,0.2-0.6H49.2z"/>
			<path class="st0" d="M57.4,364.4c1.1,0,2.5,0.8,1.3,2.9l-3.6,6.6c-1.3,2.3,0.6,1.3,2.1,0.2c1.3-1,3.1-3,4.2-5
				c0.2-0.3,0.4-0.1,0.3,0.2c-2.4,4.1-5.8,6.9-7.9,6.9c-1.1,0-2.1-1.4-0.4-4.5L57.4,364.4z M60.6,359.6c0.9,0,1.5,0.6,1.4,1.4
				c-0.2,0.8-1,1.4-1.8,1.4c-0.9,0-1.5-0.6-1.4-1.4C58.9,360.3,59.8,359.6,60.6,359.6z"/>
			<path class="st0" d="M65.5,375c0,0.1,0.2,0.1,0.3,0.2c1.1,0.4,2.6-0.4,3.5-1.1c1.3-1,3.1-3,4.2-5c0.2-0.3,0.4-0.1,0.3,0.2
				c-1.2,2.1-2.7,3.9-4.2,5.1c-1.7,1.4-3.5,1.8-4.5,1.8c-0.5,0-0.9-0.2-1.2-0.4c-0.8,0.3-1.5,0.4-2.4,0.4c-3.3,0-3.3-2.7-1.5-6.1
				c1.9-3.3,4.9-6,8.2-6c3.3,0,3.4,2.7,1.6,6C68.8,372,67.3,373.8,65.5,375z M63.3,375.1c-0.5-1.1,0.6-2.6,2.6-2.6
				c1.2-1.6,2.2-3.3,2.8-5.2c0.6-1.8,0.1-2.5-0.8-2.5c-1.2,0-3.5,2.4-5.2,5.5c-1.7,3.1-2.2,5.6-1,5.6
				C62,375.7,62.5,375.6,63.3,375.1z"/>
			<path class="st0" d="M86.3,369.3c-2.4,4.1-5.8,6.9-7.9,6.9c-1.1,0-2.1-1.4-0.4-4.5l2.9-5.2c1.2-2.1-0.3-1.7-2.2-0.2
				c-0.9,0.7-1.9,1.8-2.7,3l-3.7,6.7c-1.1,0-2.4-0.7-1.2-2.9l4.8-8.6c1.1,0,2.4,0.7,1.4,2.7c1.5-1.5,3.5-2.9,4.9-2.9
				c1.1,0,2.2,1.4,0.5,4.5l-2.9,5.2c-1.3,2.3,0.6,1.3,2.1,0.2c1.3-1,3.1-3,4.2-5C86.2,368.9,86.4,369.1,86.3,369.3z"/>
		</g>
	</g>
	<g>
		<path class="st0" d="M89,358.6c0.6,0,1.2,0.2,1.8,0.5c0.6,0.3,1,0.8,1.4,1.3s0.5,1.2,0.5,1.8c0,0.6-0.2,1.2-0.5,1.8
			c-0.3,0.6-0.8,1-1.3,1.3s-1.2,0.5-1.8,0.5c-0.6,0-1.2-0.2-1.8-0.5s-1-0.8-1.3-1.3s-0.5-1.2-0.5-1.8c0-0.6,0.2-1.3,0.5-1.8
			c0.3-0.6,0.8-1,1.4-1.3S88.4,358.6,89,358.6z M89,359.3c-0.5,0-1,0.1-1.4,0.4c-0.5,0.3-0.8,0.6-1.1,1.1c-0.3,0.5-0.4,1-0.4,1.5
			c0,0.5,0.1,1,0.4,1.5s0.6,0.8,1.1,1.1c0.5,0.3,0.9,0.4,1.5,0.4c0.5,0,1-0.1,1.5-0.4c0.5-0.3,0.8-0.6,1.1-1.1
			c0.3-0.5,0.4-1,0.4-1.5c0-0.5-0.1-1-0.4-1.5c-0.3-0.5-0.6-0.8-1.1-1.1C90,359.5,89.5,359.3,89,359.3z M87.4,364.2v-3.9h0.8
			c0.7,0,1.2,0,1.2,0c0.3,0,0.5,0.1,0.6,0.2c0.1,0.1,0.3,0.2,0.4,0.4c0.1,0.2,0.1,0.4,0.1,0.6c0,0.3-0.1,0.5-0.3,0.7
			c-0.2,0.2-0.4,0.3-0.8,0.4c0.1,0,0.2,0.1,0.3,0.1s0.2,0.2,0.3,0.3c0,0,0.1,0.2,0.3,0.5l0.5,0.8h-1l-0.3-0.6
			c-0.2-0.4-0.4-0.7-0.5-0.8s-0.3-0.2-0.5-0.2h-0.2v1.6H87.4z M88.2,362h0.3c0.5,0,0.7,0,0.8-0.1c0.1,0,0.2-0.1,0.3-0.2
			s0.1-0.2,0.1-0.3c0-0.1,0-0.2-0.1-0.3c-0.1-0.1-0.2-0.1-0.3-0.2c-0.1,0-0.4-0.1-0.8-0.1h-0.3V362z"/>
	</g>
</g>
</svg>
