<?xml version="1.0" encoding="utf-8"?>
<!-- Generator: Adobe Illustrator 19.0.0, SVG Export Plug-In . SVG Version: 6.00 Build 0)  -->
<svg version="1.1" id="Layer_1" xmlns="http://www.w3.org/2000/svg" xmlns:xlink="http://www.w3.org/1999/xlink" x="0px" y="0px"
	 viewBox="0 0 288.2 66.4" style="enable-background:new 0 0 288.2 66.4;" xml:space="preserve">
<style type="text/css">
	.st0{fill:#DF2027;}
	.st1{fill-rule:evenodd;clip-rule:evenodd;fill:#DF2027;}
</style>
<g>
	<g id="XMLID_95_">
		<path id="XMLID_138_" class="st0" d="M16.5,37.4c-0.5,0.4-1,0.7-1.7,0.7h-3.9v17.6c0,0.8-0.3,1.4-0.8,1.9
			c-0.5,0.5-1.2,0.8-1.9,0.8c-0.7,0-1.4-0.3-1.9-0.8c-0.5-0.5-0.8-1.2-0.8-1.9V38H0l0-4.8h14.8c0.7,0,1.3,0.2,1.7,0.7
			c0.5,0.5,0.7,1.1,0.7,1.7S17,36.9,16.5,37.4z"/>
		<path id="XMLID_135_" class="st0" d="M30,52.5c-0.5,1.2-1.1,2.2-1.9,3.1c-0.8,0.9-1.8,1.6-2.9,2.1c-1.1,0.5-2.3,0.8-3.7,0.8
			c-1.3,0-2.6-0.3-3.7-0.8c-1.1-0.5-2.1-1.2-2.9-2.1c-0.8-0.9-1.5-1.9-1.9-3.1c-0.5-1.2-0.7-2.4-0.7-3.7c0-1.3,0.2-2.5,0.7-3.7
			c0.5-1.2,1.1-2.2,1.9-3.1c0.8-0.9,1.8-1.6,2.9-2.1c1.1-0.5,2.3-0.8,3.7-0.8c1.3,0,2.6,0.3,3.7,0.8c1.1,0.5,2.1,1.2,2.9,2.1
			c0.8,0.9,1.5,1.9,1.9,3.1c0.5,1.2,0.7,2.4,0.7,3.7C30.7,50.1,30.5,51.4,30,52.5z M25.2,47.1c-0.2-0.6-0.4-1.1-0.7-1.6
			c-0.3-0.5-0.7-0.9-1.2-1.2c-0.5-0.3-1.1-0.4-1.7-0.4c-0.7,0-1.2,0.2-1.7,0.4c-0.5,0.3-0.9,0.7-1.2,1.2c-0.3,0.5-0.5,1-0.7,1.6
			c-0.2,0.6-0.2,1.2-0.2,1.7c0,0.6,0.1,1.2,0.2,1.8c0.1,0.6,0.4,1.2,0.7,1.7s0.7,0.9,1.2,1.2c0.5,0.3,1.1,0.5,1.7,0.5
			c0.7,0,1.3-0.2,1.8-0.5c0.5-0.3,0.9-0.7,1.2-1.2c0.3-0.5,0.5-1,0.7-1.6c0.1-0.6,0.2-1.2,0.2-1.8C25.4,48.3,25.4,47.7,25.2,47.1z"
			/>
		<path id="XMLID_132_" class="st0" d="M33.3,40c0.5-0.5,1.1-0.8,1.9-0.8c0.8,0,1.3,0.3,1.6,0.8c0.3,0.5,0.5,1.1,0.6,1.7
			c0.6-0.8,1.3-1.4,2.2-1.8c0.9-0.4,1.8-0.6,2.8-0.6c1.3,0,2.5,0.3,3.5,0.8c1,0.6,1.9,1.3,2.6,2.2c0.7,0.9,1.3,1.9,1.7,3.1
			c0.4,1.2,0.6,2.3,0.6,3.5c0,1.2-0.2,2.4-0.6,3.6c-0.4,1.1-1,2.1-1.7,3c-0.7,0.9-1.6,1.6-2.7,2.1c-1.1,0.5-2.2,0.8-3.6,0.8
			c-1.7,0-3.1-0.6-4.3-1.8V66h-5.3V42C32.7,41.2,32.9,40.5,33.3,40z M38,50.4c0.1,0.6,0.3,1.2,0.6,1.6c0.3,0.5,0.7,0.9,1.2,1.2
			c0.5,0.3,1.1,0.5,1.8,0.5c0.6,0,1.2-0.1,1.7-0.4c0.5-0.3,0.9-0.7,1.2-1.1c0.3-0.5,0.6-1,0.7-1.6c0.2-0.6,0.2-1.2,0.2-1.7
			c0-0.6-0.1-1.2-0.2-1.8c-0.1-0.6-0.4-1.1-0.7-1.6c-0.3-0.5-0.7-0.8-1.2-1.1c-0.5-0.3-1.1-0.4-1.7-0.4c-0.7,0-1.2,0.1-1.7,0.4
			c-0.5,0.3-0.9,0.6-1.2,1c-0.3,0.4-0.5,0.9-0.7,1.5c-0.2,0.6-0.2,1.1-0.2,1.7C37.8,49.2,37.9,49.8,38,50.4z"/>
		<path id="XMLID_129_" class="st0" d="M52.7,40c0.5-0.5,1.1-0.8,1.9-0.8c0.8,0,1.3,0.3,1.6,0.8c0.3,0.5,0.5,1.1,0.6,1.7
			c0.6-0.8,1.3-1.4,2.2-1.8c0.9-0.4,1.8-0.6,2.8-0.6c1.3,0,2.5,0.3,3.5,0.8c1,0.6,1.9,1.3,2.6,2.2c0.7,0.9,1.3,1.9,1.7,3.1
			c0.4,1.2,0.6,2.3,0.6,3.5c0,1.2-0.2,2.4-0.6,3.6c-0.4,1.1-1,2.1-1.7,3c-0.7,0.9-1.6,1.6-2.7,2.1c-1.1,0.5-2.2,0.8-3.6,0.8
			c-1.7,0-3.1-0.6-4.3-1.8V66H52V42C52,41.2,52.3,40.5,52.7,40z M57.4,50.4c0.1,0.6,0.3,1.2,0.6,1.6c0.3,0.5,0.7,0.9,1.2,1.2
			c0.5,0.3,1.1,0.5,1.8,0.5c0.6,0,1.2-0.1,1.7-0.4c0.5-0.3,0.9-0.7,1.2-1.1c0.3-0.5,0.6-1,0.7-1.6c0.2-0.6,0.2-1.2,0.2-1.7
			c0-0.6-0.1-1.2-0.2-1.8c-0.1-0.6-0.4-1.1-0.7-1.6c-0.3-0.5-0.7-0.8-1.2-1.1C62.3,44.1,61.7,44,61,44c-0.7,0-1.2,0.1-1.7,0.4
			c-0.5,0.3-0.9,0.6-1.2,1c-0.3,0.4-0.5,0.9-0.7,1.5c-0.2,0.6-0.2,1.1-0.2,1.7C57.2,49.2,57.2,49.8,57.4,50.4z"/>
		<path id="XMLID_126_" class="st0" d="M71.4,58.1V41.9c0-0.8,0.3-1.4,0.8-1.9c0.5-0.5,1.2-0.8,1.9-0.8c0.4,0,0.7,0.1,1,0.2
			c0.3,0.2,0.6,0.3,0.8,0.6c0.2,0.2,0.4,0.5,0.6,0.8c0.1,0.3,0.2,0.7,0.2,1v16.2H71.4z M75.3,33.5c0.4,0.4,0.6,0.8,0.6,1.4
			c0,0.6-0.2,1-0.6,1.4c-0.4,0.4-0.8,0.6-1.4,0.6c-0.5,0-1-0.2-1.4-0.6c-0.4-0.4-0.6-0.8-0.6-1.4c0-0.5,0.2-1,0.6-1.4
			c0.4-0.4,0.8-0.6,1.4-0.6C74.5,32.9,74.9,33.1,75.3,33.5z"/>
		<path id="XMLID_124_" class="st0" d="M95.7,56.8c-0.1,0.3-0.3,0.6-0.6,0.9c-0.2,0.2-0.5,0.4-0.8,0.6c-0.3,0.1-0.7,0.2-1,0.2
			c-0.7,0-1.4-0.3-1.9-0.8c-0.5-0.5-0.8-1.1-0.8-1.9v-8.9c0-0.9-0.3-1.6-0.9-2.2c-0.6-0.6-1.4-0.9-2.2-0.9c-0.9,0-1.6,0.3-2.2,0.9
			c-0.6,0.6-0.9,1.4-0.9,2.2v11.2H79V41.9c0-0.4,0.1-0.7,0.2-1c0.1-0.3,0.3-0.6,0.6-0.9c0.2-0.3,0.5-0.5,0.8-0.6
			c0.3-0.1,0.7-0.2,1-0.2c0.7,0,1.3,0.3,1.6,0.8c0.3,0.5,0.5,1.1,0.6,1.7c0.6-0.8,1.3-1.4,2.1-1.8c0.9-0.4,1.8-0.6,2.8-0.6
			c1,0,1.9,0.2,2.8,0.5c0.9,0.3,1.6,0.8,2.3,1.4c0.7,0.6,1.2,1.3,1.5,2.1c0.4,0.8,0.6,1.8,0.6,2.8v9.7
			C95.9,56.1,95.9,56.5,95.7,56.8z"/>
		<path id="XMLID_121_" class="st0" d="M115.5,60.3c-0.4,1.3-1,2.3-1.9,3.2c-0.8,0.9-1.8,1.6-3,2.1c-1.2,0.5-2.6,0.8-4.1,0.8
			c-0.6,0-1.3,0-2-0.1c-0.7-0.1-1.3-0.2-1.9-0.4c0,0-0.1-0.1-0.1-0.1c0,0-0.1-0.1-0.1-0.1c0-0.1,0-0.4,0.1-0.8
			c0-0.4,0.1-0.9,0.2-1.4c0.1-0.5,0.1-1,0.2-1.4c0.1-0.4,0.1-0.7,0.1-0.8c0.6,0.2,1.2,0.3,1.9,0.4c0.6,0.1,1.3,0.2,1.9,0.2
			c1.4,0,2.5-0.4,3.2-1.3c0.7-0.9,1.1-2,1.1-3.3c0-0.2,0-0.4,0-0.5c-0.6,0.6-1.2,1.1-2,1.4c-0.8,0.3-1.6,0.5-2.4,0.5
			c-1.3,0-2.5-0.3-3.5-0.8c-1-0.5-1.9-1.2-2.7-2.1c-0.7-0.9-1.3-1.9-1.7-3c-0.4-1.1-0.6-2.3-0.6-3.6c0-1.2,0.2-2.5,0.6-3.6
			c0.4-1.2,1-2.2,1.7-3.2c0.7-0.9,1.6-1.7,2.7-2.2c1.1-0.6,2.3-0.8,3.6-0.8c1,0,1.9,0.2,2.7,0.6c0.9,0.4,1.6,1,2.1,1.8
			c0.1-0.7,0.3-1.2,0.6-1.7c0.3-0.5,0.8-0.7,1.6-0.7c0.9,0,1.5,0.3,1.9,0.8c0.4,0.5,0.6,1.2,0.6,2v14.3
			C116.1,57.7,115.9,59,115.5,60.3z M111,47.6c-0.1-0.4-0.2-0.9-0.3-1.3c-0.2-0.4-0.4-0.8-0.6-1.1c-0.3-0.3-0.6-0.6-1-0.9
			c-0.5-0.3-1.1-0.4-1.7-0.4c-0.7,0-1.3,0.1-1.8,0.4c-0.5,0.3-0.9,0.6-1.3,1.1c-0.3,0.4-0.6,1-0.7,1.5c-0.2,0.6-0.2,1.2-0.2,1.8
			c0,0.6,0.1,1.2,0.2,1.8c0.1,0.6,0.4,1.1,0.7,1.6c0.3,0.5,0.7,0.9,1.2,1.1c0.5,0.3,1.1,0.4,1.8,0.4c0.6,0,1.2-0.1,1.7-0.4
			c0.5-0.3,0.9-0.7,1.2-1.1c0.3-0.4,0.5-1,0.7-1.5c0.2-0.6,0.2-1.1,0.2-1.7C111.1,48.6,111.1,48.1,111,47.6z"/>
		<path id="XMLID_119_" class="st0" d="M133.3,57.4c-0.5,0.4-1,0.7-1.7,0.7h-11.8c-0.6,0-1.2-0.1-1.7-0.4c-0.5-0.3-0.7-0.8-0.7-1.5
			c0-0.5,0.2-0.9,0.5-1.4l7.8-10.5h-7.6v-4.7h13.1c0.6,0,1.1,0.1,1.6,0.4c0.4,0.3,0.7,0.8,0.7,1.4c0,0.3,0,0.5-0.1,0.7
			c-0.1,0.2-0.2,0.4-0.3,0.6l-7.8,10.6h6.5c0.7,0,1.2,0.2,1.7,0.7c0.5,0.4,0.7,1,0.7,1.7S133.8,57,133.3,57.4z"/>
		<path id="XMLID_117_" class="st0" d="M146.9,33.2c0.2-0.5,0.5-0.8,1-1.1c0.4-0.3,0.9-0.4,1.4-0.4c0.7,0,1.3,0.3,1.7,0.8
			c0.5,0.5,0.7,1.1,0.7,1.8c0,0.4-0.1,0.8-0.2,1.1l-3.2,7.2l-4.7-2.2L146.9,33.2z"/>
		<path id="XMLID_115_" class="st0" d="M169,56.8c-0.1,0.3-0.3,0.6-0.6,0.9c-0.2,0.2-0.5,0.4-0.8,0.6c-0.3,0.1-0.7,0.2-1,0.2
			c-0.7,0-1.4-0.3-1.9-0.8c-0.5-0.5-0.8-1.1-0.8-1.9v-8.9c0-0.9-0.3-1.6-0.9-2.2c-0.6-0.6-1.4-0.9-2.2-0.9c-0.9,0-1.6,0.3-2.2,0.9
			c-0.6,0.6-0.9,1.4-0.9,2.2v11.2h-5.3V41.9c0-0.4,0.1-0.7,0.2-1c0.1-0.3,0.3-0.6,0.6-0.9c0.2-0.3,0.5-0.5,0.8-0.6
			c0.3-0.1,0.7-0.2,1-0.2c0.7,0,1.3,0.3,1.6,0.8c0.3,0.5,0.5,1.1,0.6,1.7c0.6-0.8,1.3-1.4,2.1-1.8c0.9-0.4,1.8-0.6,2.8-0.6
			c1,0,1.9,0.2,2.8,0.5c0.9,0.3,1.6,0.8,2.3,1.4c0.7,0.6,1.2,1.3,1.5,2.1c0.4,0.8,0.6,1.8,0.6,2.8v9.7
			C169.2,56.1,169.2,56.5,169,56.8z"/>
		<path id="XMLID_113_" class="st0" d="M185.8,38.1v5.4h5.6c0.7,0,1.2,0.2,1.7,0.7c0.5,0.5,0.7,1.1,0.7,1.7c0,0.7-0.2,1.2-0.7,1.7
			c-0.5,0.4-1.1,0.7-1.7,0.7h-5.6v9.8h-5.5V36c0-0.8,0.3-1.5,0.8-2c0.6-0.5,1.2-0.8,2-0.8H194v4.9H185.8z"/>
		<path id="XMLID_110_" class="st0" d="M195.3,58.1V41.9c0-0.8,0.3-1.4,0.8-1.9c0.5-0.5,1.2-0.8,1.9-0.8c0.4,0,0.7,0.1,1,0.2
			c0.3,0.2,0.6,0.3,0.8,0.6c0.2,0.2,0.4,0.5,0.6,0.8c0.1,0.3,0.2,0.7,0.2,1v16.2H195.3z M199.2,33.5c0.4,0.4,0.6,0.8,0.6,1.4
			c0,0.6-0.2,1-0.6,1.4c-0.4,0.4-0.8,0.6-1.4,0.6c-0.5,0-1-0.2-1.4-0.6c-0.4-0.4-0.6-0.8-0.6-1.4c0-0.5,0.2-1,0.6-1.4
			c0.4-0.4,0.8-0.6,1.4-0.6C198.3,32.9,198.8,33.1,199.2,33.5z"/>
		<path id="XMLID_108_" class="st0" d="M202.5,58.1V33.8c0-0.8,0.3-1.4,0.8-1.9c0.5-0.5,1.2-0.8,1.9-0.8c0.7,0,1.4,0.3,1.9,0.8
			c0.5,0.5,0.8,1.2,0.8,1.9v24.3L202.5,58.1z"/>
		<path id="XMLID_106_" class="st0" d="M209.8,58.1V33.8c0-0.8,0.3-1.4,0.8-1.9c0.5-0.5,1.2-0.8,1.9-0.8c0.7,0,1.4,0.3,1.9,0.8
			c0.5,0.5,0.8,1.2,0.8,1.9v24.3L209.8,58.1z"/>
		<path id="XMLID_103_" class="st0" d="M217,58.1V41.9c0-0.8,0.3-1.4,0.8-1.9c0.5-0.5,1.2-0.8,1.9-0.8c0.4,0,0.7,0.1,1,0.2
			c0.3,0.2,0.6,0.3,0.8,0.6c0.2,0.2,0.4,0.5,0.6,0.8c0.1,0.3,0.2,0.7,0.2,1v16.2H217z M220.9,33.5c0.4,0.4,0.6,0.8,0.6,1.4
			c0,0.6-0.2,1-0.6,1.4c-0.4,0.4-0.8,0.6-1.4,0.6c-0.5,0-1-0.2-1.4-0.6c-0.4-0.4-0.6-0.8-0.6-1.4c0-0.5,0.2-1,0.6-1.4
			c0.4-0.4,0.8-0.6,1.4-0.6C220.1,32.9,220.6,33.1,220.9,33.5z"/>
		<path id="XMLID_101_" class="st0" d="M241.4,56.8c-0.1,0.3-0.3,0.6-0.6,0.9c-0.2,0.2-0.5,0.4-0.8,0.6c-0.3,0.1-0.7,0.2-1,0.2
			c-0.7,0-1.4-0.3-1.9-0.8c-0.5-0.5-0.8-1.1-0.8-1.9v-8.9c0-0.9-0.3-1.6-0.9-2.2c-0.6-0.6-1.4-0.9-2.2-0.9c-0.9,0-1.6,0.3-2.2,0.9
			c-0.6,0.6-0.9,1.4-0.9,2.2v11.2h-5.3V41.9c0-0.4,0.1-0.7,0.2-1c0.1-0.3,0.3-0.6,0.6-0.9c0.2-0.3,0.5-0.5,0.8-0.6
			c0.3-0.1,0.7-0.2,1-0.2c0.7,0,1.3,0.3,1.6,0.8c0.3,0.5,0.5,1.1,0.6,1.7c0.6-0.8,1.3-1.4,2.1-1.8c0.9-0.4,1.8-0.6,2.8-0.6
			c1,0,1.9,0.2,2.8,0.5c0.9,0.3,1.6,0.8,2.3,1.4c0.7,0.6,1.2,1.3,1.5,2.1c0.4,0.8,0.6,1.8,0.6,2.8v9.7
			C241.6,56.1,241.5,56.5,241.4,56.8z"/>
		<path id="XMLID_98_" class="st0" d="M261.1,60.3c-0.4,1.3-1,2.3-1.9,3.2c-0.8,0.9-1.8,1.6-3,2.1c-1.2,0.5-2.6,0.8-4.1,0.8
			c-0.6,0-1.3,0-2-0.1c-0.7-0.1-1.3-0.2-1.9-0.4c0,0-0.1-0.1-0.1-0.1c0,0-0.1-0.1-0.1-0.1c0-0.1,0-0.4,0.1-0.8
			c0-0.4,0.1-0.9,0.2-1.4c0.1-0.5,0.1-1,0.2-1.4c0.1-0.4,0.1-0.7,0.1-0.8c0.6,0.2,1.2,0.3,1.9,0.4c0.6,0.1,1.3,0.2,1.9,0.2
			c1.4,0,2.5-0.4,3.2-1.3c0.7-0.9,1.1-2,1.1-3.3c0-0.2,0-0.4,0-0.5c-0.6,0.6-1.2,1.1-2,1.4c-0.8,0.3-1.6,0.5-2.4,0.5
			c-1.3,0-2.5-0.3-3.5-0.8c-1-0.5-1.9-1.2-2.7-2.1c-0.7-0.9-1.3-1.9-1.7-3c-0.4-1.1-0.6-2.3-0.6-3.6c0-1.2,0.2-2.5,0.6-3.6
			s1-2.2,1.7-3.2c0.7-0.9,1.6-1.7,2.7-2.2c1.1-0.6,2.3-0.8,3.6-0.8c1,0,1.9,0.2,2.7,0.6c0.9,0.4,1.6,1,2.1,1.8
			c0.1-0.7,0.3-1.2,0.6-1.7c0.3-0.5,0.8-0.7,1.6-0.7c0.9,0,1.5,0.3,1.9,0.8c0.4,0.5,0.6,1.2,0.6,2v14.3
			C261.8,57.7,261.5,59,261.1,60.3z M256.6,47.6c-0.1-0.4-0.2-0.9-0.3-1.3c-0.1-0.4-0.4-0.8-0.6-1.1c-0.3-0.3-0.6-0.6-1-0.9
			c-0.5-0.3-1.1-0.4-1.7-0.4c-0.7,0-1.3,0.1-1.8,0.4c-0.5,0.3-0.9,0.6-1.3,1.1c-0.3,0.4-0.6,1-0.7,1.5c-0.2,0.6-0.2,1.2-0.2,1.8
			c0,0.6,0.1,1.2,0.2,1.8c0.1,0.6,0.4,1.1,0.7,1.6c0.3,0.5,0.7,0.9,1.2,1.1c0.5,0.3,1.1,0.4,1.8,0.4c0.6,0,1.2-0.1,1.7-0.4
			c0.5-0.3,0.9-0.7,1.2-1.1c0.3-0.4,0.5-1,0.7-1.5c0.2-0.6,0.2-1.1,0.2-1.7C256.7,48.6,256.7,48.1,256.6,47.6z"/>
		<path id="XMLID_96_" class="st0" d="M278.9,57.4c-0.5,0.4-1,0.7-1.7,0.7h-11.8c-0.6,0-1.2-0.1-1.7-0.4c-0.5-0.3-0.7-0.8-0.7-1.5
			c0-0.5,0.2-0.9,0.5-1.4l7.8-10.5h-7.6v-4.7h13.1c0.6,0,1.1,0.1,1.6,0.4c0.4,0.3,0.7,0.8,0.7,1.4c0,0.3,0,0.5-0.1,0.7
			c-0.1,0.2-0.2,0.4-0.3,0.6l-7.8,10.6h6.5c0.7,0,1.2,0.2,1.7,0.7c0.5,0.4,0.7,1,0.7,1.7S279.4,57,278.9,57.4z"/>
	</g>
	<g>
		<g>
			<path class="st0" d="M286.1,45l-1.1-1.3c0.3-0.1,0.5-0.2,0.8-0.4c0.2-0.2,0.3-0.5,0.3-0.8c0-0.2,0-0.4-0.1-0.6
				c-0.1-0.2-0.2-0.3-0.3-0.4c-0.1-0.1-0.3-0.2-0.5-0.3c-0.2-0.1-0.4-0.1-0.6-0.1H283c0,0,0,0-0.1,0c0,0,0,0.1-0.1,0.1
				c0,0,0,0.1,0,0.1s0,0.1,0,0.1v3.6c0,0.1,0,0.3,0.1,0.4c0.1,0.1,0.2,0.2,0.4,0.2s0.3,0,0.4-0.1c0.1-0.1,0.1-0.2,0.1-0.3v-1.4
				l1.4,1.8c0,0,0,0,0.1,0.1c0,0,0.1,0.1,0.1,0.1c0,0,0.1,0,0.2-0.1c0.1,0,0.2-0.1,0.2-0.2c0.1-0.1,0.2-0.1,0.2-0.2
				c0.1-0.1,0.1-0.1,0.1-0.1C286.2,45.2,286.2,45.1,286.1,45C286.1,45.1,286.1,45,286.1,45z M284.5,42c0.1,0,0.3,0.1,0.4,0.2
				c0.1,0.1,0.2,0.2,0.2,0.4c0,0.1,0,0.3-0.1,0.4c-0.1,0.1-0.2,0.2-0.4,0.2h-0.7v-1H284.5z"/>
			<path class="st0" d="M287.9,41.8c-0.2-0.5-0.5-0.9-0.8-1.2c-0.3-0.3-0.8-0.6-1.2-0.8c-0.5-0.2-1-0.3-1.5-0.3s-1,0.1-1.5,0.3
				c-0.5,0.2-0.9,0.5-1.2,0.8c-0.3,0.4-0.6,0.8-0.8,1.2c-0.2,0.5-0.3,1-0.3,1.5c0,0.5,0.1,1,0.3,1.5c0.2,0.5,0.5,0.9,0.8,1.2
				c0.3,0.3,0.8,0.6,1.2,0.8c0.5,0.2,1,0.3,1.5,0.3s1-0.1,1.5-0.3c0.5-0.2,0.9-0.5,1.2-0.8c0.3-0.3,0.6-0.8,0.8-1.2
				c0.2-0.5,0.3-1,0.3-1.5S288.1,42.3,287.9,41.8z M284.3,46.5c-0.4,0-0.9-0.1-1.2-0.3c-0.4-0.2-0.7-0.4-1-0.7
				c-0.3-0.3-0.5-0.6-0.7-1c-0.2-0.4-0.2-0.8-0.2-1.2c0-0.4,0.1-0.8,0.2-1.2c0.2-0.4,0.4-0.7,0.7-1c0.3-0.3,0.6-0.5,1-0.7
				c0.4-0.2,0.8-0.3,1.2-0.3s0.9,0.1,1.2,0.3c0.4,0.2,0.7,0.4,1,0.7c0.3,0.3,0.5,0.6,0.7,1c0.2,0.4,0.2,0.8,0.2,1.2
				c0,0.4-0.1,0.9-0.2,1.2c-0.2,0.4-0.4,0.7-0.7,1c-0.3,0.3-0.6,0.5-1,0.7C285.2,46.4,284.7,46.5,284.3,46.5z"/>
		</g>
	</g>
	<g>
		<path class="st1" d="M257.1,29.4c0.2,0,0.3-0.1,0.4-0.3c0.1-0.2-0.1-0.4-0.3-0.5c-1.8-0.4-3.7-0.9-5.7-1.3c-0.2,0-0.4,0.1-0.5,0.3
			c0,0.2,0.1,0.4,0.3,0.5C253.3,28.5,255.2,29,257.1,29.4C257,29.4,257,29.4,257.1,29.4z"/>
		<path class="st1" d="M97.4,7.2c-0.2-0.6-0.7-1.1-1.4-1.3c-0.2,0.2-0.3,0.4-0.4,0.6c0.4,0.3,1,0.4,1.3,0.8L97.4,7.2z"/>
		<path class="st1" d="M105.3,12.9c0,0.1,0,0.1,0.1,0.2c0.5,0.2,1-0.1,1.3-0.3l0-0.1l-0.9-0.1L105.3,12.9z"/>
		<path class="st1" d="M108.9,13.9c0.2,0.5,1.2,0.1,1.5-0.1c0.1-0.1,0-0.2,0-0.3c-0.1-0.1-0.2-0.1-0.5-0.1
			C109.5,13.5,109.1,13.5,108.9,13.9z"/>
		<path class="st1" d="M100.9,20.8c0.2,0.2,0.8,0.3,0.9-0.1c-0.2-0.1-0.4-0.3-0.7-0.3C101,20.6,100.9,20.7,100.9,20.8z"/>
		<path class="st1" d="M96.7,20.3l-0.2,0.3c0.1,0.5,1.1,0.5,1.5,0.3l0,0l-0.7-0.2L96.7,20.3z"/>
		<path class="st1" d="M112.9,19.4L112.9,19.4c0.1,0.2,0.2,0.2,0.5,0.2l0.1-0.3c-0.1-0.1-0.2-0.1-0.4-0.1L112.9,19.4z"/>
		<path class="st1" d="M97.4,19.3l0.6,0c0.1,0,0.1-0.3,0.1-0.4c-0.2-0.1-0.5-0.2-0.9-0.2c-0.3,0.2-0.9,0.4-0.6,0.8
			C97,19.5,97.1,19.3,97.4,19.3z"/>
		<path class="st1" d="M101.2,18.1c-0.2-0.1-0.3-0.1-0.6-0.1c-0.8,0.3-1.4-0.1-1.1,1.1c0.6,0.1,1-0.1,1.5-0.1
			C101.1,18.8,101.2,18.5,101.2,18.1z"/>
		<path class="st1" d="M106,17.8l-0.2,0.1c-0.1,0.5,0.6,0.6,0.7,0.2C106.6,17.8,106.4,17.7,106,17.8z"/>
		<path class="st1" d="M115.3,15.6c-0.1,0.1-0.2,0.2-0.2,0.5c-0.5,0-0.7,0.2-0.9,0.4l-0.5-0.1l-0.1,0.2c0.5,0.3,1.3-0.2,1.9-0.4
			c0.1-0.1,0.1-0.4,0.1-0.5L115.3,15.6z"/>
		<path class="st1" d="M100.4,14.6l0.1-0.3c-0.2-0.1-0.6-0.1-0.9-0.1c-0.2,0.1-0.3,0.2-0.5,0.3c-0.1,0-1.8-0.4-1.4,0.2
			c0,0.1,1,0.2,1.2,0.3c0.4,0,0.5-0.3,0.8-0.4L100.4,14.6z"/>
		<path class="st1" d="M102.9,14.3l-0.3-0.1c-0.1,0.1-0.2,0.2-0.2,0.5C102.8,14.8,103,14.6,102.9,14.3z"/>
		<path class="st1" d="M101.6,13.5c-0.2-0.1-0.4-0.2-0.7-0.2c-0.1,0.1-0.2,0.3-0.2,0.5c0.2,0.1,0.3,0.2,0.6,0.2L101.6,13.5z"/>
		<path class="st1" d="M94.1,12.8c-0.1-0.1-0.2-0.1-0.4-0.1c-0.3,0.2-0.6,0.3-0.7,0.7l0.1,0.1C93.6,13.4,94,13.1,94.1,12.8z"/>
		<path class="st1" d="M102.1,13.1c0,0.1,0.1,0.1,0.2,0.2c0.3,0,1.2-0.4,1.1-0.7l-0.1-0.2l-0.2,0C102.8,12.6,102.1,12.7,102.1,13.1z
			"/>
		<path class="st1" d="M113.1,12.2c0.1-0.1,0.1-0.2,0.1-0.4l-0.7-0.2c-0.1,0.1-0.2,0.3-0.1,0.5C112.6,12.2,112.9,12.2,113.1,12.2z"
			/>
		<path class="st1" d="M99.4,11.7c0.4-0.2,0.3-0.8-0.2-0.9c-0.3,0.2-0.7,0.3-1,0.6C98.3,11.8,99,12,99.4,11.7z"/>
		<path class="st1" d="M106.4,10.8l0.8-0.3l0.7,0.1c0.1,0,0.1-0.2,0.1-0.3c-0.2-0.2-0.5-0.3-0.9-0.2l-0.8,0.3
			c-0.5,0.1-1.2-0.5-1.4,0.2C105.1,10.7,106.2,10.9,106.4,10.8z"/>
		<path class="st1" d="M105.7,19l-0.9-0.1c-0.3-0.1-0.5-0.2-0.9-0.2c-0.5,0.4,0,0.4-0.1,0.7c-0.1,0.2-0.4,0.5-0.2,0.8
			c0.2,0.4,1.3,0.4,1.9,0.4C105.7,20.4,106.3,19.3,105.7,19z M104,20l0.2-0.8l1.1,0.2l0,0C105.8,20.9,104.7,20,104,20z"/>
		<path class="st1" d="M112,18.9c-0.6,0.3-2,0.1-2.9,0.1c-0.1,0.3-0.2,0.7-0.1,1.1c0.5,0.1,2.5,0.4,3,0.1
			C112.4,19.9,112.6,19,112,18.9z M111.7,19.7l-2.4,0l0-0.5c0.7,0,1.5,0.1,2.4,0.1L111.7,19.7z"/>
		<path class="st1" d="M93.8,14.6c0.5,0.1,1-0.3,1.5-0.4c1.4-0.2,1.5,0.8,2.8-0.1c1.1-0.8,0.7-2-0.9-2c-0.9,0.3-2.7,0.6-2.1,1.9
			c-0.6,0-1,0.2-1.4,0.4L93.8,14.6z M96.8,12.5c0.5,0,1.1,0.1,1.4,0.3c0.2,2.1-1.9,0.7-2.7,0.6l0,0C95.4,12.7,96.3,12.7,96.8,12.5z"
			/>
		<path class="st1" d="M102.7,15.3c-0.1,0.3,0,0.7,0.2,0.9c0.5,0.3,3.7,0.5,4.1,0.1c0.9-0.9-0.2-1.8-1.4-1.8c-0.2,0.1-0.6,0-0.9,0
			C103.9,14.6,102.9,14.6,102.7,15.3z M103.2,15.1c0.7-0.3,3.4-0.7,3.4,0.4c-0.8,0-0.2,0.5-0.9,0.6c-0.3,0-2.2-0.4-2.6-0.5
			L103.2,15.1z"/>
		<path class="st1" d="M97.5,16l-0.9,0.6l-1.5,1.2c0.1,0.5,0.7,1,1.3,0.7l0.6-0.7l1.2-1C98.2,16.4,97.8,16.1,97.5,16z M97.5,17.1
			c-0.3,0.3-1.3,1.4-1.6,1.1l-0.3-0.4c0.6-0.4,0.8-0.8,1.8-1.3l0.2,0.1l0,0L97.5,17.1z"/>
		<path class="st1" d="M101.6,11.9c0.2,0,0.7,0.2,1,0.1c0.8-0.3,0.3-1.7-0.4-1.8c-0.7,0.3-1.9,0-1.8,0.9c0,0.2,0.1,0.5,0.2,0.6
			L101.6,11.9z M102.3,10.7c0,0.8-0.5,0.6-1.3,0.6C101.1,10.8,101.7,10.6,102.3,10.7z"/>
		<path class="st1" d="M104.9,18.4c0.1-0.1,0.4-0.5,0.3-0.7c-0.1-0.2-2.7-0.5-3.3-0.5c-0.1,0.2-0.7,0.8-0.2,1l0.9,0l0.7,0.3
			C103.8,18.6,104.4,18.5,104.9,18.4z M103,17.8c-0.3-0.1-0.8,0-1.2,0l0.2-0.2l0.7-0.1c0.4,0,0.5,0.2,0.9,0.3l1.2,0l-0.1,0.3l-1.2,0
			L103,17.8z"/>
		<path class="st1" d="M113.6,14.4c0.4,0.2,1.1,0.5,1.7,0.4c0.9-1.1,0.8-1.1-0.3-1.8c-0.2-0.1-0.3-0.4-0.5-0.5
			c-0.4,0.4-0.8,0.8-1,1.3l0.2,0.1L113.6,14.4z M114.4,13l1,0.6l0,0.1l-0.4,0.7l-1-0.6L114.4,13z"/>
		<path class="st1" d="M93.3,17.3l-0.6,0.2c-0.3,0.4,0.5,1,0.9,0.8C94.3,18.2,93.9,17.3,93.3,17.3z M93.2,17.9l-0.1-0.1l0.1-0.2
			l0.4,0.1l0,0.2L93.2,17.9z"/>
		<path class="st1" d="M102,15.3c0.1-0.2,0.2-0.3,0.2-0.6c-0.2-0.2-0.7-0.2-1.2-0.2l-0.2,0.1C100.3,15.4,101.2,15.3,102,15.3z
			 M101,14.7L101,14.7l0.7,0l-0.1,0.3c-0.2,0.1-0.5,0-0.7,0L101,14.7z"/>
		<path class="st1" d="M99.7,16.7c0.4,0.2,1.3,0.6,2,0.4c0.3-0.1,0.6-0.7,0.7-0.9c-0.4-0.3-0.9-0.6-1.6-0.6
			C100.4,15.9,99.9,16.2,99.7,16.7z M100.7,16l1.2,0.3c-0.4,0.6-1,0.4-1.6,0.2L100.7,16z"/>
		<path class="st1" d="M111.1,11c0.2-0.1,0.3-0.4,0.3-0.7c-0.4-0.3-1.5-0.2-2.2-0.2l-0.1-0.1c-0.2,0.2-0.4,0.3-0.5,0.7l1.8,0.1
			C110.6,10.9,110.8,11.1,111.1,11z M111,10.6c-0.3,0.1-1.6,0-1.8-0.1C109.5,10.4,110.7,10.2,111,10.6z"/>
		<path class="st1" d="M114.1,15.6c0-0.5-0.2-0.6-0.7-0.6c-0.2,0.2-0.8,0.4-0.6,0.8C113.1,16.5,113.8,15.8,114.1,15.6z M113.4,15.4
			c0.1,0,0.2,0.1,0.3,0l0,0.2c-0.2,0.1-0.3,0.2-0.5,0.2C113.2,15.6,113.3,15.5,113.4,15.4z"/>
		<path class="st1" d="M96.3,15.3c-0.1-0.1-0.2-0.1-0.3-0.1c-0.8,0.4-3.2-0.5-3.4,0.4l0.2,0.9l1.4-0.3l1.8-0.1L96.3,15.3z
			 M95.6,15.8c-0.9,0-1.9,0-2.5,0.3L93,15.5l2.7,0L95.6,15.8z"/>
		<path class="st1" d="M109.9,18c0.2,0,0.5,0,0.7,0c0.2,0,0.3,0,0.4,0c0.7,0,0.8-0.4,1-1c0-0.1,0.1-0.3,0.1-0.4
			c0.1-0.3,0.1-0.5,0-0.6c-0.2-0.2-0.5-0.2-0.9-0.2l-0.5,0c-0.1,0-0.3,0-0.5,0c-0.1,0-1.8,0.3-2.1,1.2c-0.1,0.2-0.1,0.4,0.1,0.6
			C108.6,18,109.2,18,109.9,18z M109.5,17c0.3-0.4,0.6-0.2,0.6-0.2c1-0.2,1.7-0.6,1.2-0.1c-0.5,0.6-0.2,0.6-0.9,0.6
			C109.8,17.4,109.2,17.5,109.5,17z"/>
		<path class="st1" d="M104,11.4c0.9,0.4,0.3-0.4-0.1-1.5c0,0-0.8-0.1-0.8,0.5C103.2,11.1,103.2,11.1,104,11.4z"/>
		<polygon class="st1" points="107.2,19.2 108.2,19.8 108.7,18.5 107.5,18.2 		"/>
		<path class="st1" d="M107.9,17c0-0.3-0.2-0.4-0.6-0.4l-0.2,0.1C106,17.8,107.7,17.4,107.9,17z"/>
		<path class="st1" d="M102,19.3l-0.5,0.3c-0.3,0.5,1.4,0.6,1.6,0.2C103.2,19.6,102.9,19.3,102,19.3z"/>
		<path class="st1" d="M117.1,14.7c0-0.3-0.2-0.4-0.6-0.4l-0.2,0.1C116.2,15,117,15.1,117.1,14.7z"/>
		<path class="st1" d="M116,8.8c0.2,0.2,0.4,0.2,0.5,0.3c0.5-0.4,1-0.9,1.5-1.1l-0.5-0.4c-0.4,0.3-0.5,0.2-0.9,0.6
			C116.5,8.4,116.1,8.6,116,8.8z"/>
		<path class="st1" d="M110.2,3.9l-0.6-0.1c-0.2,0.5-0.8,1-0.8,1.5c0,0.2-0.2,0.6-0.2,0.9c0.3,0,0.4,0,0.5,0
			C109.2,5.5,109.9,4.4,110.2,3.9z"/>
		<path class="st1" d="M116.7,6.3l-0.6-0.5c-0.5,0.4-0.7,0.3-1.2,0.8c-0.2,0.2-0.6,0.5-0.9,0.8c0.3,0.2,0.5,0.2,0.6,0.3
			C115.3,7.2,116,6.6,116.7,6.3z"/>
		<path class="st1" d="M184.4,12.2l-0.1-0.3c-0.2-0.1-0.5-0.1-0.6-0.2c-0.2-0.2-0.1-0.4-0.2-0.7c-0.1-0.1-0.1-0.1-0.3-0.2
			c-0.1,0.1-0.2,0.2-0.3,0.3C182.8,12.1,183.7,12.3,184.4,12.2z"/>
		<path class="st1" d="M180.6,5.9L180.6,5.9c0.1-0.8-0.2-1.4-0.4-2.1l-0.3-0.1l-0.3,0.1c0.2,0.6,0.7,1.2,0.8,2L180.6,5.9z"/>
		<path class="st1" d="M190.4,7.7c0.4-0.7,1-1.1,1.5-1.6l-0.2-0.2l-0.3,0c-0.5,0.5-0.9,1-1.2,1.8l0.1,0L190.4,7.7z"/>
		<path class="st1" d="M179.5,12c0-0.1-0.1-0.1-0.3-0.1c0,0,0,0,0-0.1c0-0.1,0.1-0.1,0.1-0.2l0.9-0.3l-0.4,0.1l0,0l-0.2-0.2
			l-0.4,0.1l0.1-0.1l0.2-0.3c0-0.2,0.8-1,0.7-1.1l-0.8,0.9c0,0,0,0-0.1,0l-0.2,0.4l0,0c0,0.1-0.2-0.1-0.2-0.2l-0.2,0l-0.6-0.5
			c0,0.2,0.3,0.6,0.6,0.8c0.1,0.1,0.1,0.1,0.2,0.2l0,0c-0.8,2.4-1-2-1.1,1.7l-1,0.7l0.3,0l1-0.5l0,0l0,0.1l0.3-0.1
			c0.3-0.1,0.4-0.6,0.6-0.8l1.1-0.3C180.2,12,179.8,12.1,179.5,12z"/>
		<path class="st1" d="M185.1,15.6c0,0.2,0.2,0.8,0.3,0.6c0.1-0.2,0.5-0.1,0.2-0.5C185.2,15.4,185.1,15.6,185.1,15.6z"/>
		<path class="st1" d="M249.5,26.9c-4.4-0.9-9.2-1.7-14.2-2.5c-0.6-1.4-1.5-2.8-2.6-2.7l0-0.2l0,0c1.4,0.5,2.2,1,3.5,1.2
			c1-0.9,0.6-2.6,0.2-3.5c-1.1-2.8-2.1-3.7-6.2-4.4c-1.4,0.8-2.3-0.2-4-0.1l-2.2,0.2l-3.2-0.6c-4.2-0.3-10.9-1-12.3,3.7
			c-1,0.1-1.7-0.6-2.2-1.2l-0.5,0l-0.1,0.7c-0.2,0.3-0.6,0.4-0.9,0.6l0.5,0.8l-0.4,0.6l0.1,0.3l1,0.4c0.1,0.3-0.1,0.6-0.2,0.9
			c-3.2-0.3-6.5-0.6-9.9-0.8c0.5-1,0.9-2,1.4-3.3c0.3-0.8,0.6-1.8,0.4-2.6c-0.3-1.4-1.6-2.3-2.7-3.1l0-0.1c0.7,0.1,0.9,0.2,1.2,0.6
			c0.3,0,0.7-0.4,1-0.2c0.3,0,0.3,0,0.5-0.1c0-0.3,0.1-0.9-0.1-1.1l0.3-0.1l0.1-0.4l0.3,0l0.1-0.1c0-0.3-0.1-0.8-0.3-1.1
			c-0.3,0-0.5,0.2-0.8,0c-0.1-0.1-0.2-0.2-0.2-0.3c-0.1-0.3,0.1-0.6,0-0.9l0-0.1c-0.4,0-0.6,0.2-0.8,0.4c-0.3-0.1-0.2-0.3-0.4-0.4
			c-0.1-0.1-0.3,0.1-0.4,0.2l-0.1-0.1l-0.1-0.1c0-0.2,0.1-0.2,0.2-0.3l0-0.3c-0.4-0.2-1.2-0.2-1.5-0.5c-0.2,0-0.2,0-0.3,0.1
			c-0.1,0.4-0.1,0.7-0.3,1c-0.4,0-0.6-0.1-0.8-0.3c-0.2,0-0.2,0-0.3,0.1c0,0.3-0.1,0.4-0.2,0.5l-0.8-0.1c0,0.3,0,0.4,0.1,0.6
			c0,0.3-0.1,0.3-0.3,0.4c0,0.2,0.1,0.3,0.2,0.4c0,0.1,0,0.1-0.1,0.2l-1.9-0.5l-0.3-0.3c-0.3-0.1-0.5,0.1-0.6,0
			c-0.2-0.1-0.5-0.4-0.5-0.6c-0.1-0.1,0-0.1,0.1-0.1c0-0.3-0.4-0.5-0.7-0.6l0.1-0.2c0-0.3-0.1-0.4-0.4-0.4l0.2-0.3
			c0-0.2,0-0.2-0.1-0.3c-0.7-0.1-1-0.4-1.1-1l-0.1-0.1c-0.3,0-0.5,0.2-0.7,0.3c-0.3-0.1-0.5-0.3-0.6-0.5l-0.3,0
			c-0.2,0.1-0.5,1.1-0.4,1.2c-0.3,0.1-0.5,0.1-0.7,0.4c-0.2,0.5,0.4,1.1,0.7,1.3l0,0.1c-3.7-0.6-8.8-0.4-10.6,1.8
			c-0.8,1-0.9,3.2-0.8,4.6c0.2,2.3,0.6,3.7,1.3,4.9c-3.4-0.2-6.8-0.3-10.2-0.4c0.4-0.9,0.9-3.5,0.1-4.3l-0.8-0.2
			c-0.5-0.2-0.9-0.7-1.4-0.9l-2.8-0.8c-3.1-1.1-6.3-2.4-9.3-3.6l-0.9,0.6c0.9-2.5,2-6.7,0.2-9.4c-1.3,0.1-2.4,0.5-3.5,0.3
			c-0.6,0.6-7.2,2.1-8.7,1.9c-0.2,0.3-0.2,0.3-0.5,0.4c0.1,0.1,0.2,0.1,0.3,0.2c0.1,1-0.4,1.9-0.7,2.7c-0.9,2.8-1.9,4.9-4.8,6
			c-1.2,0.5-4,0.6-5,1.1c-0.5,0.5,0.2,3,0.6,3.4l2.2,1.7c0.1,0.1,0.2,0.2,0.3,0.3c-3,0-5.9,0.1-8.9,0.1c0,0,0,0,0-0.1
			c0,0,0.6-2.3,0.1-3.5c-0.2-0.9-0.9-1.8-1.4-2.4c-2.2-2.7-5.9-4-10.3-4.8l-2.9-0.2l-1,0l-3,0.1c-1.7,0.2-3.3,0.4-4.7,0.8
			c-3.7,1-7.6,2.5-9.1,5.5l-0.6,1.6c-0.4,1.7-0.1,3,0.4,4.1c-3.3,0.2-6.5,0.4-9.7,0.6l0.5-0.6l0.1-1.1c0.2-0.5,0.9-0.8,1.2-1.3
			L80,16.5l0.8-0.7c-0.1-0.4-0.1-0.7-0.2-1.2c-0.4-0.2-0.8-0.1-1.1,0.1h-0.1l0.1-1c-0.7-0.2-1.5-0.1-2.4-0.3l-0.7,0.1
			c-0.2-0.1-0.4-0.4-0.6-0.5c-0.6-0.2-3.1-1.1-3.6-1l-7.8-0.3l-5.2,0.6c-5.8,1.4-11.5,2.6-13.4,7.9c0.2,0.3,0.1,0.2,0.4,0.3
			l-0.2,0.2c0.3,0.4,0.5,0.5,0.8,0.8c-0.7,0.2-1.6,0.8-1.8,1.6c-6.2,0.8-12.1,1.6-17.6,2.6c-0.2,0-0.4,0.2-0.3,0.5
			c0,0.2,0.2,0.4,0.5,0.3c5.5-0.9,11.3-1.8,17.4-2.6c0,0.1,0,0.2,0.1,0.3c0.2,0.3,0.3,0.1,0.6,0.3c0.3,0.3,0.2,0.8,0.6,1
			c0.6,0.2,1.1-0.4,1.9-0.4c1.1,0.8,4.2,2,6.2,1.8l4.5-0.8c1,0.1,2.7,0,3.8-0.2l4.3-0.3c3.1-0.7,7.4-2.1,9.9-3.8l0.8-1
			c3.6-0.2,7.2-0.5,10.8-0.7c0.3,0.4,0.6,0.8,1,1.2l1.8,1.5c3.4,2.3,10.1,3.7,16.3,2.8c1.3-0.2,2.8-0.5,3.8-1l2.4-0.7
			c1.7-0.9,3.9-1.8,5.1-3.2c0.5-0.5,0.8-1.1,1.1-1.7c3.4-0.1,6.7-0.1,10.2-0.1c1.1,1,2.5,2.1,4.1,1.9c0,0.5-0.2,1.3,0.1,1.8
			c0.3,0.4,0.9,0.4,1.2,0.6c1.1,0.6,2.3,1.4,3.3,2.2c1.8,1.5,3,2,5.1,3.1c0.5,0.3,1.1,0.8,1.8,0.9c1.7,0.2,3-1,4-1.6l7.9-5.1
			l4.2-2.7c0.6-0.3,1-0.4,1.4-0.6c3.9,0.1,7.7,0.3,11.5,0.4c0.4,0.5,0.9,1,1.6,1.5c0.3,0.3,0.6,0.7,1,0.9c1,0.6,2.3,1.1,3.5,1.5
			c0,0,6.6,2,12.6-0.1c0.6-0.2,1.7-1.3,2-1.9c0.1-0.2,0.3-0.5,0.4-0.7c3.6,0.3,7.1,0.6,10.5,0.9c0.1,0.1,0.2,0.1,0.3,0.2
			c0.1,0,0.2-0.1,0.2-0.1c0.4,0,0.7,0.1,1.1,0.1c-0.1,0.4-0.5,0.6-0.6,1c0.3,0.5,0.6,1,0.8,1.6c0.5,0.2,1.5-0.2,1.9,0.1
			c0.7,0.3,0.9,1,1.7,1.4c0.7,0.3,2.1,0.5,2.7,0.5l2.3,0.4c0.8,0,1.6,0.1,2.5,0.1c2,0.1,4,1,5.8,0.9c2.6-0.1,5-0.1,7.4-0.5l1.1-0.5
			l2.4,0.2l0.3-0.3c-0.1-0.4-0.3-0.9-0.6-1.6c4.9,0.7,9.5,1.5,13.7,2.4c0,0,0.1,0,0.1,0c0.2,0,0.3-0.1,0.4-0.3
			C249.8,27.2,249.7,27,249.5,26.9z M79.4,15.4l0.4-0.1l0.2,0.6c-0.4,0.1-1.2,1.4-1.3,1.9l-0.7-0.2C78.3,16.9,78.8,15.7,79.4,15.4z
			 M78.5,14.6c0.1,0.1,0,0,0.1,0.2l-0.1,0.1L78.1,15l-0.7-0.8C77.8,14.3,78.2,14.4,78.5,14.6z M49.4,17c2.4-2.3,6.4-2.9,10.1-3.8
			l4-0.5c4.1-0.1,9-0.5,11.6,1c0.8,0.5,2.2,1.7,2.8,2.5c-1.7,2.4-6.3,2.6-9.8,3.4L62,21.2c-2,0-4,0.3-6,0.6
			c-2.7,0.4-7.6,0.5-8.7-1.5C46.4,18.7,48.6,17.7,49.4,17z M73.4,20l-0.8,0.6l-1.1,0.8l-1.3,0.4l-1.5,0.1c1.7,0.1-6.3,2.6-5.5-0.1
			l0-0.2c1.7-0.2,2.9-0.9,4.5-1.3l1.7-0.1c2-0.5,4.1-0.7,5.7-1.5l0.3,0.4l1.2-0.1c0,0-1.3,0.9-1.3,0.9C75,20,73.8,19.8,73.4,20z
			 M74.3,20.5c-0.2,0.4-0.6,0.6-1.1,0.7c-0.5,0,0.2-0.5,0.2-0.5C73.9,20.4,74.5,20.1,74.3,20.5z M76.1,18.4l-0.1-0.1l1.4-0.7l0.1,0
			l0.2,0.6l-0.1,0.1C77.3,18.6,76.5,18.3,76.1,18.4z M62.4,22.1c-0.3,0.7-0.3,0.3-0.3,1.2c0,0.8-0.7,0.3-1.4-0.2
			c-0.7-0.5,0.1-0.7,1.3-1.1C61.9,22.1,62.7,21.5,62.4,22.1z M59.9,23.5l-0.1,0.1c-0.2,0.1-2.7,0.1-3,0c-0.2-0.1-0.3-0.2-0.4-0.4
			L56.3,23c1.2-0.7,1.7-1.1,3.7-1l0.1,0.1l0,1.1l-0.3,0L59.9,23.5z M49.8,22.7l-0.1,0.1l-0.4-0.1l0.4-0.1L49.8,22.7L49.8,22.7z
			 M46.8,24.8c-0.2-0.5-0.2-1-0.9-1.1c0.1-1.5,0.9-1.2,1.5-2l1.4,0.5c-0.4,0.5-1,0.3-1.7,0.6l-0.1,0l0.1,0.3c0.3,0.5,1.2,0.2,1.5,0
			l0.1,0.2c0.4,0.3,1.5,0.2,1.7-0.6l0.7-0.2l0.2,0.2c-0.2,0.3-0.4,0.7-0.8,0.8l0,0.3l0.3,0.1c0.4-0.2,0.6-0.3,0.8-0.8
			c0.5,0.1,0.6,0.3,1.1,0.2l-0.1-0.3l-0.6-0.1c-0.2-0.1-0.2-0.2-0.3-0.4l2.5,0l0.1,0.6c-0.9,0.9-2.2,0.8-3.5,1
			c-0.5,0.1-1.1,0.6-1.6,0.5C48.3,24.4,48.2,24.2,46.8,24.8z M74.4,22.6c-1.8,0.8-5.1,1.8-7.5,2.3c-2.4,0.5-5.6,0.2-7.7,0.5
			c-1.6,0.3-5.2,1.1-6.6,0.7l-2-0.9c0.1-0.2,0.1-0.1,0.3-0.2c0,0,1.8-0.1,2.4-0.1c0.3,0,0.8,0.5,1.3,0.4c5.4-1.1,11.7-1.5,16.7-3.3
			c2.1-0.7,6.2-1.5,6.7-3.6l0.1,0C78.4,20.3,76,21.9,74.4,22.6z M118.1,11.7c0.5,0.5,1.4,1,1,1.2c-0.4,0.2-0.5,0.6-0.7,0
			c-0.2-0.7-0.3-0.9-0.7-1.1C117.4,11.4,118.1,11.7,118.1,11.7z M88.4,14.1c0.2-0.5,0.7-0.8,0.7-0.8c0,0.5-0.1,0.8-0.1,1.3
			c0,0.5-0.5,1.5-0.5,0.8C88.4,14.5,88.1,14.6,88.4,14.1z M119.1,19.2c-0.5,1.4-5.1,4.6-10.7,5.6c0,0-13.5,2.1-19.1-5.2
			c-2.1-2.8-0.4-4.1-0.4-4.1c0.7,1.8-0.2,2.9,3.2,5.8c1.6,1.3,4.2,2.1,6.7,2.6l1.6,0.2c3.2,0.5,7.3,0.1,10.1-0.5l0.9-0.2
			c3.6-0.6,6.6-3.8,7.5-4.4c0.1,0,0.2,0,0.3,0C119.1,19.1,119.1,19.1,119.1,19.2z M104.4,23.4c2.4,1-6.1,0.1-8.4-0.7
			c0,0-2.3-0.4-3.3-1.6c-3.6-3,1.2,0.4,2.3,0.7c2.7,0.7,6.1,1.4,9.4,1.5L104.4,23.4L104.4,23.4z M115.7,20c0.9-0.4,2.2-1.3,2.4-1.2
			c0,0-0.4,1-2.1,1.7c-2.1,1.3-6.9,2.8-10.2,2.9l1.9-0.7C110.5,22.5,113.6,21.4,115.7,20z M108.2,21.9c0.5,0,1.5-0.2,1,0
			c-0.5,0.3-0.7,0.6-1,0.3C107.8,22,108.2,21.9,108.2,21.9z M119.1,16.5c-1,2.2-4.2,3.6-6.6,4.4c-0.5,0.2-3.2,0.8-3.8,0.6
			c-0.2-0.1-0.3-0.4-0.4-0.6l-0.2,0c-0.1,0.2-0.5,1.2-0.7,1.3c-1,0.6-4.3,0.3-5.9,0.1c-5.2-0.7-11-2.5-11.8-6.6
			c-0.4-2.1,0-3.1,1.1-4.1c1.6-1.6,6-3.1,8.8-3.6l4.6-0.4l3.5,0c0.5,0.1,0.8,0.4,1.2,0.5l-0.1,0.3c-0.2,0.1-1.1,0-1.3-0.1
			c-0.9-0.1-1.6-0.1-2.5-0.1l-1.3,0l-3.3,0.6c-1.7,0.3-3.3,0.5-4.6,1.1c-1.2,0.6-2.1,1.1-3.1,1.8c-1.3,0.9-2.7,2.8-1.5,4.5l0.1,0
			l0-0.4l1-0.4c0-0.2-0.4-0.4-0.8-0.3c-0.2-2.3,1.9-3.1,3.7-3.9c0.7-0.3,2.2-0.9,2.7,0l0.2,0l0.4-0.8c0.2-0.3,2.7-1.2,3.4-1
			c0.3,0.1,0.5,0.5,0.6,0.8l0.1,0c0.2-0.2,0.2-0.7,0.4-0.8c1.3-0.8,4-0.4,5.9-0.3l-0.2,0.5l0.2,0.1l0.9-1.3c0.8-0.1,2.8,0.3,3.5,0.5
			c2.7,0.9,5.4,2.4,5.2,5.7l-0.1,0c-0.1-3.4-3.2-4.8-6.5-5.5c-0.6-0.1-1.3-0.4-2-0.4l-0.3,0.4l0.9,0.2c0.7,0.2,2,0.4,2.6,0.8
			c0.1,0.8-1.4,1.1-1.9,1.5l-0.5,0.5l-0.8,0.1c-0.1,0.1-0.1,0.2-0.1,0.3c-0.8,0-1.5,0.3-1.8,0.8c-0.1-0.6,0-1.1-0.5-1.4
			c-0.3-0.2-0.9-0.2-1.4-0.2l-0.9,0.1c-0.7,0.2-1.3,1.1-1.2,1.9c-0.3,0-0.5,0.1-0.6,0.3l0.1,0.2c0.3,0.1,0.7,0,1-0.1l0.9,0.1
			c0.7-0.1,1.1-0.2,1.5-0.4l0.1,0.1l-0.1,0.1l-0.4,0.1l-0.1,0l0.6,0l0.1,0.3l0.1,0.1c0.3,0.2,0.8,0.3,0.6,0.8
			c-0.1,0.2-0.1,0.2-0.4,0.2l0,0.2l0,0.1c0.5-0.1,0.7-0.4,1.1-0.6l0.7-0.1l0.8-0.4c0.6-0.1,1.2,0.1,1.7,0l0.2-0.1l0-0.2
			c-0.1-0.2-0.3-0.2-0.5-0.2c0.9-0.6-0.2-1.6-0.8-1.8l1.4-0.7l0.7-0.6l0.9-0.7c0.4-0.1,0.7,0.1,1,0.1l0.7,0.3l1,0.8
			c0.3,0.4,0.8,0.8,1,1.3c1.1,2.5-0.4,4.8-2.5,5.7c-0.2-0.3-1.3-1.7-1.8-1.1c-0.1,0.2-0.1,0.5-0.1,0.7c0.1,0.5,0.3,0.6,1,0.6l0.4,0
			l0.5,0.4l-0.2,0.3c1.6-0.4,3.6-2.7,4-4.3l-0.2-2l0.2,0.1C119.6,13.3,119.7,15.1,119.1,16.5z M97.7,10.2c-0.1,0.4,0.1,0.3-0.7,0.2
			c-0.8-0.1-1.6,0.4-1.3,0c0.2-0.4,1.1-0.5,1.1-0.5c0.8-0.2,1.5-0.8,1.7-0.4C98.7,9.8,97.7,9.8,97.7,10.2z M111.4,14
			c-0.1,0.1-2.5,0.7-2.9,0.6c-1.6-0.4,0-1.3,0.3-1.8c0.6-0.1,1.1,0.3,1.4-0.1C110.8,12.8,111.9,13.5,111.4,14z M107.5,12.8
			c-0.2,0.6-2.4,1.1-3,0.5c-0.1-0.3,0.4-1.1,0.7-1.2l0.9-0.1C106.7,12.1,107.7,12.2,107.5,12.8z M114,18.4c-0.3,0.1-0.6-0.1-0.6-0.4
			C113.6,18.1,113.8,18.2,114,18.4L114,18.4z M120.3,16.2c-0.2,0.4-0.8,0.8-0.6,0.1c0.2-0.6,0.2-1.1,0.2-1.4c0-0.3,0.2,0,0.2,0
			C120.2,15.5,120.5,15.8,120.3,16.2z M161.8,13.8c0.4,0.2,0.7,0.6,1.2,0.8l0.1,0.1l-1.9,1.5l-2.9,1.3c-0.2-1.4,1.4-1.5,2.5-2.1
			c0.4-0.2,0.6-0.6,0.9-0.9l-0.1-0.3c-0.6-1-1.2,0.2-1.9,0.1c-0.3,0-0.5-0.2-0.8-0.1c-0.3-0.2-0.1-0.8-0.3-1.3
			C159.7,13.1,160.8,13.4,161.8,13.8z M159.9,14.8l0.8-0.5l0.3,0c-0.1,0.5-0.6,0.6-1.1,0.8L159.9,14.8z M158.3,14.7
			c0.4-0.1,0.7,0,1,0.1l0.1,0c-0.1,0.9-1.6,1.2-1.8,2.2l0.3,1.7c-0.1,0.2-0.3,0.3-0.6,0.4c-0.6,0.2-1.8-0.6-2-1
			c-0.8-0.6-1.8-0.1-2.2,0.2c-0.4,0.3-0.6,0.8-1,1.1l-0.3,0.1l0-0.1c0.2-0.3,0.4-0.5,0.3-1l0.1,0c0.7-0.1,0.6-0.8,1.1-1.1l1.1-0.8
			l0.9-0.6l0.9-0.1C157.3,15.6,158,15.1,158.3,14.7z M148.6,13.5c0.2,0.3-1.8,1.4,0.6,1.1c0.1,0.3-1,1,1.3,0.9c0,0.3-1.2,0.7-1.4,1
			c-0.1,0.2-1.2,0-1.3,0.2c-1,0.1-1.4,1.2-2.8,0.8c-0.3-0.7,1.6-1,1.8-2c0.9-2.7,0.7-3.7,1.5-3.6C148.2,12.1,147.4,13.8,148.6,13.5z
			 M154.2,13.8l-0.2,0.1c-0.2-0.3-0.1-0.8-0.3-1.1l-0.4-0.2c0.2-0.3-0.1-0.4-0.3-0.6l0-0.1l0.3-0.1l0.4,0l1.2,0.7l0.1,0.3
			C154.8,13.3,154.4,13.3,154.2,13.8z M155.7,13.3c0.7-0.1,0.9,0.2,1.4,0.5c0,0.8-1.9,1.3-2.6,1.1l0-0.8
			C154.9,13.7,155.5,13.6,155.7,13.3z M153.9,15.1l0,0.6c-0.9,0.5-1.6,1-2.3,1.7c-0.6-0.1-0.8-0.4-1.4-0.4l-0.1-0.1l0-0.1l0.4,0.1
			l0.2-0.8c0.2-0.5,1-0.7,1.3-1.2C153,14.8,152.8,15.3,153.9,15.1z M148.9,20.2c0.2,0,0.3,0,0.4,0.1c0.1,0.2,0,0.3,0,0.5
			c-0.2,0.1-0.5,0-0.5-0.1c-0.2,0.4-0.5,0.8-1.1,0.7l0-0.1c1.4-1.1-0.4-2.3,0.1-3.3c0.1-0.3,1.1-0.7,1.5-0.7c0.2,0.1,0.1,0,0.3,0.2
			l0.1,0c-0.6,0.9-0.9,0.5-1,1.9C148.9,19.5,148.9,19.8,148.9,20.2z M149.5,18.4l0.6-0.4l0.2,0c0.2,0.1,0.2,0.3,0.4,0.3l0,0.4
			c-0.1,0.3-0.3,0.4-0.6,0.6l-0.6,0C149.4,19,149.4,18.7,149.5,18.4z M150.6,14.6l-0.2,0c-0.5-0.3-0.6-0.6-0.9-1.1
			c-1.1-1.4,0.3-1.7,1.2-2.5c0.8,0.1,1.5,1.1,2.1,1.6C152.1,13.4,151.1,13.7,150.6,14.6z M145.7,15.8c-0.1,0.7-0.5,0.4-1.3,0.7
			c-0.8,0.3-0.5,0.9-1.1,1c-0.7,0.1-0.3-0.2,0.1-0.7c0.4-0.5,0.5-0.7,1-1.3c0.4-0.7,0.9-0.5,1.1-0.4
			C145.7,15.2,145.8,15.1,145.7,15.8z M144.2,18.3c0.5,0,0.8,0.2,1.2,0.5c0.3-0.2,0.6-0.5,1.1-0.6c0.3,0.3,0.7,0.8,0.7,1.3
			c-0.1,0.2,0,0.1-0.1,0.2c-0.1,0.1-1.2-0.5-2.1-0.1l0.1,0.4l0.8-0.1c0.4,0.1,0.7,0.3,0.8,0.7c0.3,0.1,0.5-0.1,0.7-0.3V21
			c-0.1,0.4-0.4,0.6-0.8,0.9c-0.7,0.1-0.9-0.3-1.4-0.3c-0.6,0.1-0.5,0.4-1.3,0.2c-0.1-0.4-0.2-0.4-0.1-0.7c-0.3-0.2-0.5-0.4-0.8-0.7
			l0.1-0.9C143.4,19.2,143.6,18.7,144.2,18.3z M143.3,22.4c0.1-0.1,2.3,0.1,2.8,0.1c0.7,0,0.8-0.7,1.5-0.7l1,0.1
			c1.1-0.4,1.5-1.5,2.3-2c0.3-0.2,0.7,0,1,0c0.6,0,1.2-0.5,1.5-1c1.1-1,1.8-0.1,1.8-0.1l0.2,0.2c-1.4,0.9-3.2,1.4-4.5,2.2
			c-0.9,0.5-2,1.1-3,1.7c-0.6,0.4-1.1,1-1.9,1.2c-0.9-0.5-2.1-1-3-1.6L143.3,22.4z M149.5,9.5c0.9,0,1.1,0.5,1.9,0.7l5,1.6
			c0.5,0.2,0.8,0.5,1.3,0.6l0.1,0.1c-0.3,0-0.3,0-0.5,0.1l-0.1,0c0.1,0.2,0.2,0.3,0.4,0.4l0,0.2c-0.8-0.3-0.9-0.8-2-0.5
			c-0.2-0.9-1.3-1.5-2.1-1.5c-0.5,0-0.8,0.3-1.2,0.2c-0.9-0.3-2.2-2.3-3.7-1l-0.1,0C148.7,10,149.1,9.9,149.5,9.5z M130.4,12.5
			c2.3-1.2,3.3-1.4,4.8-3.3c0.9-1.2,1.5-2.8,1.9-4.3c0.2-0.7-0.1-1.8,0.6-2.1c0.1-0.1,1.7-0.1,2.2-0.3c1.3-0.4,3.9-0.2,5.5-1.4
			l0.3-0.1c0.2,1.2,0,2.5-0.2,3.5c-0.3,1.3-0.3,2.5-0.7,3.7L144,9.5c-1.5,2.7-1.9,3.5-4.5,5.5c-1.1,0.9-4.3,2.8-5.5,2.7
			c-1.6-0.2-5.5-3.3-6.8-4.3C128.1,12.8,129.5,13,130.4,12.5z M129.9,17.8c-1.2-1.1-2.7-1.7-3.1-4c1.6,1.1,5.5,4.5,7.3,4.7
			c0.4,0,0.9-0.3,1-0.5c0.1,0.1,1.3-0.4,1.5-0.5c1.3-0.6,2-1.1,3.2-1.9c0.9-0.6,2.2-1.4,2.9-2.1c2.4-2.5,4.2-8.2,3.7-12.5l0.5-0.1
			l2.1-0.2c0.1,1.8,0.5,3.6,0.1,5.4c-0.7,3.4-4.2,8.8-6.9,10.9c-0.5,0.4-1.1,0.6-1.5,0.9c-0.7,0.6-1.8,0.6-2.5,1
			c-0.5,0.3-0.7,0.7-1.2,1C134,21.3,131.4,19.2,129.9,17.8z M138.9,20.2c0,0,0.4-1.1,1.8-0.6c1.1,0.7,0.6,1.9,1.8,1.7l0.2,0.6
			l-1.8,0.9c-0.4,0.1-0.6-0.2-0.7-0.6C140.5,21.1,139.3,21.1,138.9,20.2z M141.1,18.9c0-0.5,1-0.8,1.1-0.2c0,0.6,0.2,1.2-0.2,0.9
			C141.6,19.3,141.1,19.4,141.1,18.9z M163.2,18.1c-0.5,0.4-2.4,1.7-2.9,1.9l-1.7,0.6l-2.4,1.8c-1.3,0.7-2.2,0.9-3.1,1.8l-0.3-0.2
			c-0.7,1.4-4,3.6-6,3.7c0-0.8,0.1-1.8-0.8-1.6l0.1,1.7c-1.1,0.5-1.8-0.3-2.6-0.5c-2.5-0.8-3.8-2.5-5.9-3.7
			c-0.9-0.5-2.2-0.8-2.8-1.6l-0.2-1l0.1-0.1c0.7,0.2,2.3-0.7,2.7-0.6L138,21l1.6,1c0.4,0.6,0.2,0.9,0.8,1.2c0.7,0,0.9-0.3,1.4-0.5
			c1.4,0.7,3.1,1.8,4.5,2.2l2.8-1.9l1.3-0.6c1.7-1.2,3.3-2.3,5.4-2.8l1.2,0.2l1.4-0.5c0.1-0.3-0.1-0.9,0-1.2l0.2,0
			c1.4-1,3.6-1.5,5-2.9C164.1,15.6,163.2,17.5,163.2,18.1z M195.5,12.1c0.9,0.8,2.7,2.2,1.6,3.7l-0.1,0c-0.1-0.1-0.1-0.1-0.2-0.2
			c0.3-2.4-1.8-3.5-3.2-4.5l0.7,0.2C194.8,11.4,195.1,11.8,195.5,12.1z M192.4,16.3c-0.1,0.1-0.1,0.1-0.2,0.3
			c-0.3,0.1-0.9,0.3-1.2,0c-0.2-0.1-0.3-0.3-0.4-0.5c0.1-0.4,0.4-1,0.8-1l1-0.1c0.3-0.1,0.6,0.1,0.9-0.1c0-0.2,0.6-0.3,0.3-0.3
			l-0.2-0.3c0-0.3-0.2-1.2-0.3-1.4c0.4-0.9,0.9,1,1.1,1.1c0.4,0.2,1.1,0,0.7,0.6c-0.2,0.2-0.3,0.5-0.5,0.6c0.1,0.4,0.7,0.4,1,0.6
			l-0.7,0.8c-0.4,0.4-1.9,0.9-2.6,0.9c0-0.2,0.7-0.9,0.7-1C192.6,16.2,192.5,16.2,192.4,16.3z M190.6,14.6c0,0.3,0.1,0.4-0.1,0.6
			l-0.3,1c-0.3-0.1-0.4-0.7-1-0.9l-1-0.5l-0.1-0.3l-0.1-0.5c1.6,0.6,2,0.3,2.4,0.1C190.9,14.3,190.3,14.5,190.6,14.6z M189.9,14.1
			c-1.1-0.1-1.6-0.4-2.4-0.8l0.1-0.3c0.1-0.4,0.1-0.3,0.3-0.5c1,0.1,1.7,0.3,2.2,0.8C190.1,13.6,190,13.8,189.9,14.1z M187.8,16.6
			c0.1-0.2,0.2-0.2,0.3-0.4c0-0.1,0-0.2,0-0.3c0-0.2,0.1-0.2,0.1-0.3l0.2-0.1c0.3,0,0.7,0,1,0.2l0.2,0.1c-0.1,0.2-0.3,0.3-0.4,0.4
			c0,0.3,0.1,0.3,0.1,0.5c0.3,0.1,0.9,0.1,1.1,0c0.4,0,0.3,0.1,0.3,0.3c-0.1,0.2-0.3,0.3-0.4,0.4c-1-0.1-1.7-0.2-2.5-0.5L187.8,16.6
			z M191.3,14.3c0.1-0.4,0.4-0.6,0.7-0.6l0.3-0.1c0.4,0.1,0.6,0.2,0.8,0.4c-0.1,0.4-1.5,0.8-1.7,0.6
			C191.4,14.5,191.3,14.4,191.3,14.3z M195.2,16.7l0.2,0.1c-0.1,0.4-0.3,0.5-0.6,0.6l-0.1-0.1l0-0.1L195.2,16.7z M195.2,15
			c0.1-0.6,0.1-0.8,0.4-1l0-0.2c-0.1-0.2-0.2-0.2-0.4-0.3l-0.3,0.2c-0.1,0.1-0.4-0.1-0.4-0.2c-0.2-0.1-0.6-1-0.8-1.3
			c-0.2-0.2-0.6-0.2-1-0.4c0.1-0.1,0.1-0.1,0.2-0.1c1.3,0.1,3,1.5,3.3,2.4c0.1,0.3,0.1,1.3-0.2,1.6l0,0.1c-0.1-0.1-0.1-0.3-0.2-0.4
			L195.2,15z M184.1,6.9l-0.2-0.5l0.1-0.2c0.3,0,0.4,0,0.6-0.1c0-0.2-0.1-0.4-0.1-0.6c0-0.1,0.2-0.2,0.2-0.5
			c0.5,0.4,0.5,0.4,1.2,0.3c0.1,0.3,0.5,0.7,0.9,0.8l0,0.3c0,0.1,0.4,0.9,0.5,0.9l0.4,0.2l0.1,0.4l0.3,0.4l0.1,1.4
			c-0.3,0.7-1.1,0.6-1.7,0.8l-0.1,0.5c0.8,0.1,1.8-0.2,2.1-0.7c0.3-0.4,0-1,0.2-1.4c0.1,0,0.4-0.1,0.6,0c0.2,0.1,0.4,1,0.2,1.2
			c0,0.4-0.2,0.6-0.5,0.8c-0.1,0-0.1,0-0.2-0.1l-0.2,0.1c0,0.3,0.1,0.4,0.1,0.5c0.3,0,1.2,0.2,1.3,0.2l0.2-0.1l0-0.2
			c-0.1-0.2-0.4-0.3-0.6-0.3l0.3-0.3l0.1-1l0.6,0.3c0.3,0,0.4-0.2,0.6-0.3l0.2-0.3l0.6,0.4c-0.1,0.3-1.1,0.6-1.4,1.1l0.1,0.3
			l0.1,0.1c0.5-0.4,1.2-0.9,1.8-1.1c0.3-0.1,0.5-0.3,0.8-0.5c0.4-0.2,0.9-0.7,1.4-0.2c0.2,0,0.4,0.3,0.5,0.3c0-0.3-0.3-0.6-0.5-0.7
			l0.9-0.1c0.6-0.1,1.5-0.1,1.4-0.2c-0.9,0-2.1-0.2-2.5,0l-0.1,0l0.2-0.5l0.2-0.4c-0.5,0-0.5,0.9-0.8,1.1c-0.5,0.4-1,0.3-1.5,0.7
			L192,9.4c0-0.4,0.2-0.4-0.1-0.9c0.1-0.4,0.5-0.3,0.7-0.4l0.4-0.5c0.5,0.4,0.6,0.4,1.1,0.1l0.4-0.8c0.1-0.1,0.7,0.1,0.9,0.2
			l0.2,0.6c0.3,0.2,0.6,0,0.8,0.1c0.2,0.1,0.4,0.4,0.7,0.3c0.3,0.1,0.2,0.8,0.4,0.9c0.2,0.2,0.5,0,0.7,0.2l0.1,0.1
			c-0.2,0.3-0.5,0.6-0.7,0.8c0,0.3,0,0.6,0,0.8c-0.1,0.1-0.7,0.2-0.8,0.2c-0.4-0.5-1.2-0.3-1.9-0.2c-0.5,0.1-0.8-0.3-1.2-0.1
			c-0.6,0.3-1.4,0.6-2,1l0,0.3c0.3,0,0.3-0.1,0.5-0.1l0.1,0.1c-0.1,0.3-0.2,0.4-0.4,0.5c0,0.6,0.6,0.1,0.7-0.1l0.2,0.1
			c0.2,0.2,0,0.4,0.4,0.6l-0.1,0.1l-0.7-0.1c-0.5,0-0.9,0.3-1.1,0.7l-0.5,0c-0.1-0.1-0.2-0.2-0.3-0.4c0-0.3,0.5-0.8-0.5-0.8
			c0-0.2-0.1-0.3-0.1-0.4c0,0-1.6,0.1-1.6,0.1c-0.4,0-0.4-0.1-0.6-0.3l-0.4,0c0,0.1,0,0.2,0.1,0.3c-0.1,0.6-0.5,0.4-0.9,0.5
			c-0.3-0.1-0.5-0.2-0.8-0.4c0-0.3,0-0.4-0.2-0.5c0.1-0.5,0.3-0.3,0.5-0.6c0.1-0.2,0.2-0.6,0.1-0.7c0.3-0.4,1-0.3,1.6-0.5
			c0.1,0,0.1,0,0.1-0.1l0.1-0.1l-0.1-0.1l-0.3-0.1c0-0.3,0.1-0.5,0-0.7c-0.2,0-0.2,0-0.3,0c0,0.3,0,0.5-0.2,0.6
			c-0.1-1-0.3-1.6-0.5-2.6l-0.2,0l-0.1,0L186,7.5c-0.3,0-0.4-0.1-0.6-0.3c-0.2,0-0.2,0-0.3,0.1c0,0.5,0.9,0.9,1.1,1.2
			c0.2,0.3,0,0.9,0.1,1.3l-0.6,0.3c-0.3-0.1-0.4-0.2-0.5-0.3c0.1-0.2,0.6-0.5,0.4-0.9c-0.1-0.3-0.6-0.4-0.9-0.7
			c-0.2-0.2-0.3-0.6-0.4-0.8L184.1,6.9z M186.2,16c0.1,0.1,0.3,0.1,0.5,0.2c-0.3,0.8-0.5,1-1.4,0.9c0.2,0,0.3-0.1,0-0.4
			c-0.5-0.6-0.4-0.4-0.4-0.9c-0.1-0.5-0.6-0.3-0.6-0.3c0.2,0.5,0.2,0.8,0,1.2c0,0.1-0.1,0.2-0.2,0.3c-0.1,0-0.1,0-0.2,0
			c-0.6-0.1,0.1-0.5-0.2-0.7l0.1-0.5c0.1-0.2-0.1-0.4,0.1-0.4l-0.1-0.3c0-0.5,0.4-0.5,0.2-0.7c0.1-0.7,0.8,0.2,1.1,0.1
			c0.2-0.1,0.3-0.3,0.4-0.5l0.3,0l0.1,0.2c-0.1,0.2-0.1,0.3-0.3,0.4l0.1,0.2c0.2-0.1,0.3-0.2,0.5-0.1l0.1,0l0,0.1
			c-0.1,0.3-0.2,0.4-0.4,0.5c0.1,0.1,0.7,0.2,0.8,0.3l-0.3,0.2c-0.1,0.1-0.2,0.1-0.4,0.2L186.2,16z M179.9,14.8
			c0.1-0.7,0.4-0.9,0.9-1.3l0.2,0l0.3,0l0.3,0.2c-0.1,0.3-0.2,0.3-0.3,0.4c0,0.5,0.5,0.3,0.7,0.6l0.6,0.1c0.8,0.1,0.9,0.2,1.2,0.6
			c0,0.5-0.2,0.6-0.4,0.8C184,17.3,180,16.3,179.9,14.8z M178.6,14.4c0.1,0.1,0.3,0.3,0.4,0.4l0,0.1c0,0.2,0,0.2-0.2,0.3
			c-0.2,0.1-0.8-0.4-1.1-0.5l-1.1-0.2l-0.4-0.5l-0.7-0.3l-0.4-0.6c-0.2-0.2-0.4-0.3-0.5-0.4c0-0.2,0-0.3,0.2-0.3
			c0.1,0,0.2,0.1,0.3,0.2c0.1-0.1,0.2-0.2,0.2-0.4c0.1-0.1,0.1-0.1,0.2-0.2c0.4,0,0.5,0.1,0.7,0.3l-0.1,0.4l0,0.3l0.2,0.1
			c0.6,0.1,0.5-0.5,0.8-0.9c0.1-0.4,0.4-0.1,0.2-0.3c-0.3,0-0.3-0.3-0.4-0.1c-0.2-0.1-0.2-0.1-0.3-0.2c0-0.4,0-0.5,0.2-0.7
			c0.3,0,1-0.3,0.7-0.4c0.1-0.2,0.1-0.1,0.2-0.2c0.2,0-0.2-0.4,0-0.5c0-0.2,0.7,0.3,0.6,0.2L178,9.1c0.2,0.1,0.8,0.2,0.9,0.3
			c0.4,0,0.3-0.1,0.5-0.4l0.4,0.4c0.1,0.2,0.7-0.4,0.8-0.2c0.5,0-0.6,0.8,1.8,0.5c-0.1,0.3-0.7,0.5-0.9,0.6c0,0-1,0.8-0.9,0.9
			c0,0.3-0.2,0.4-0.4,0.6c0.1,0.1,0.2,0.3,0.3,0.3c-0.1,0.3-0.2,0.3-0.4,0.4l0.2,0.2l0.4,0.3c0,0.1,0,0.3-0.1,0.3l-0.9,0.1
			C179.4,13.6,179.1,14.2,178.6,14.4z M179.6,14.5c-0.1,0.5-0.1,0.8-0.3,0.6c-0.2-0.2-0.2-0.3,0-0.4
			C179.4,14.5,179.6,14.5,179.6,14.5z M174.7,11.7c-0.4,0.3-0.2-0.1,0-0.5c0.2-0.4,0.3-0.3,0.8-0.7c0,0-0.1,0.4-0.4,0.7
			C174.9,11.4,175.1,11.4,174.7,11.7z M176.7,10c0.3,0,0.6-0.1,0.6-0.1l0.1,0c0,0,0,0.1-0.1,0.5c-0.1,0.4-0.2,0.2-0.5,0
			C176.5,10.2,176.3,10,176.7,10z M180.9,12c0.1-0.6,0.9-1.1,1.1-1.5l0.7-0.1c1.3,0.2,0.9,0.4,1.4,1l0.6,0.2
			c0.1,0.1,0.2,0.2,0.3,0.3l0.1,0.2c0,0.4-0.1,0.7-0.2,1C183.5,14.4,181.6,13,180.9,12z M184.2,10.2c0.1-0.1,0.1-0.1,0.2-0.2
			c0.8,0.1,1.5,1,0.8,1.5c-0.4-0.1-0.7-0.3-1.1-0.5C184.2,10.8,182.8,9.9,184.2,10.2z M185.8,13l0.1-0.1c0.3,0.1,0.7,0.2,0.5,0.5
			c-0.2,0.2-0.5,0-0.7-0.2C185.7,13.2,185.8,13.2,185.8,13z M186.8,14c-0.2-0.3-0.1-0.3-0.1-0.3l0.1,0c0.1,0.3,0.4,0.3,0.5,0.6
			c0.1,0.2,0,0.6-0.3,0.3C186.8,14.2,187,14.3,186.8,14z M173.7,10.3l0.6-0.7c1.1-1.1,3.8-1.4,5.7-1.6l2.2,0.2l2.3,0.3
			c0.2,0.1,0.3,0.2,0.6,0.3l0,0.1c-0.2,0.8-0.8,0.3-1.5,0.3c0,0.3,0,0.3,0.2,0.5c-0.1,0.1-0.1,0.1-0.2,0.1c0,0-1.6-0.3-1.6-0.4
			l-0.1,0c0.1-0.3,0.2-0.2,0.5-0.3c0-0.2,0-0.3-0.1-0.4c-0.3-0.1-2.7-0.2-3.1-0.2c-2,0.2-3.8,0.5-4.8,1.8c-0.3,0.4-0.7,1.1-0.5,1.8
			c0.6,2.8,6.2,4.1,8.8,4.9l1.3,0.2c1.1,0.4,2.3,0.5,3.2,0.5l1.5,0.2c1.8-0.1,3.9,0.2,5.3-0.5l0.2,0.1c-0.2,0.6-2.2,0.6-2.8,0.7
			c-0.7,0.1-1.6,0-2.4,0.1l-1.2-0.1l-1.7-0.1c-0.8,0.1-2.2-0.2-2.9-0.4c-1.5-0.5-2.7-0.4-4.1-1.1c-2-0.9-4.5-1.8-5.4-3.6
			C173.4,12.4,173.1,11.2,173.7,10.3z M190.3,23.8l-3.7,0c-0.9,0.1-2.3-0.2-3-0.4c-1.5-0.4-2.9-0.4-4.2-1c-1.2-0.6-2.7-1.4-3.6-2.2
			l-1.1-1.4c-0.8-1.7-1.5-3.6-1.6-6.5c0.4,1,0.5,1.7,1.4,2.4l2.2,1c1.3,0.8,2.9,1.3,4.4,1.9l1.4,0.3c0.7,0.3,1.9,0.7,2.6,0.6l1.4,0
			c0.8,0.3,1.5,0.4,2.1,0.3c0.8,0.4,2.1,0,3-0.1c1.9-0.3,4.2-0.4,5.6-2.3c-0.2,0.6-1.1,2.4-1.4,2.8
			C194.1,22.3,193.9,23.3,190.3,23.8z M232.7,24.5l-0.3,0.7l-0.3-0.3l0-0.2l0.5-0.5C232.8,24.3,232.7,24.2,232.7,24.5z M212.4,21.8
			c-0.2-0.3-0.1-1,0.2-1.3l0.1-0.1c0.1,0,0.8,0.1,0.8,0.1c0.7-0.4,1.4-0.3,2-0.6c0.6,0.3,1.7,0.4,2,1c0.1-0.1,0.2-0.1,0.2-0.4
			c0.8-0.1,2,1.1,2.2,1.7l-0.1,0.3l-0.6-0.1c-0.1,0.3-0.2,0.6-0.3,1c-0.4,0-2.8,0.2-3.2,0.1l-0.5-0.5l-1.4-0.2
			c-0.2-0.1-0.2-0.4-0.3-0.6L212.4,21.8z M213.2,24c-0.3,0.2-0.7,0.1-1-0.4c-0.3-0.5-0.1-0.6,0.3-0.8c0.3-0.3,0.4,0.2,0.7,0.7
			C213.2,23.4,213.6,23.8,213.2,24z M214,18.2c-0.2-0.3-0.7-1-0.7-1c0.5,0.2,1.6,0.5,1.5,1.1c-0.1,0.6,0.3,0.8,0.3,1.2
			c-0.1,0.3-0.4,0.4-0.8,0.2c-0.4-0.2-0.5-0.1-0.3-0.7C214.1,18.4,214.2,18.5,214,18.2z M223.3,23.6c0.1-0.2,0.2-0.4,0.2-0.4
			s0.2,0.5,0.5,0.5c0.3,0.1,1.4,0.3,1.4,0.3s-2.3,0.2-2.6,0C222.2,23.7,223.2,23.8,223.3,23.6z M222.5,23.6c-0.2,0.1-0.4,0-0.6,0
			c-0.1-0.2-0.2-0.3,0-0.5C222,23,222,23,222.3,23c0.1-0.2,0.2-0.5,0.3-0.6l0.3,0.1l0.3,0.5C223.1,23.4,222.8,23.5,222.5,23.6z
			 M222.7,22c-0.2,0.1-0.4,0.2-1.1,0.6c-0.8,0.4-1.2,1-1.3,0.7c-0.1-0.4,0.1-0.3-0.2-1c-0.3-0.7-0.2-1.1-0.4-1.1
			c-0.4,0-0.8,0-0.8-0.4c0-0.4,1.5,0,2.4-0.1c0.9-0.1,1.3,0.2,2.1,0.5c0.8,0.3,1.5,0.6,1,0.9C224.1,22.3,222.9,21.9,222.7,22z
			 M221.7,24.1l0,0.4l-0.2,0.1l-0.6-0.1l-0.1-0.3l0.5-0.3L221.7,24.1z M217.7,24.2l-0.1-0.2l0,0c1.1-0.1,1.1,0,1.6-0.9
			c0.1-0.1,0.2-0.1,0.3-0.2l0.1,0l0.1,0.2C220,24.3,218.6,24.4,217.7,24.2z M217.3,24.1L217.3,24.1c-0.4,0.2-0.6,0.3-1,0.2l0-0.1
			l0-0.2l0.7-0.2l0.3,0.1L217.3,24.1z M215.4,24c-0.2,0-0.8-0.2-0.9-0.4l0.4-0.1c0.2,0.1,0.3,0.1,0.5,0.2
			C215.5,23.8,215.5,23.9,215.4,24z M214.1,24.2c1.5,0.4,2,0.6,3.3,0.6c0.9-0.1,1.3,0.4,2,0.1c1.1,0.5,2.6,0.6,3.9,0.8l-2.2,0.1
			c-1.2,0.1-2.5-0.4-3.9-0.7c-1.1-0.2-2.2-0.3-3.1-0.7l0-0.1L214.1,24.2z M222.5,25.1l-0.4-0.9l2,0.3c0.8,0.1,1.2,0.2,1.4,0.6
			C224.9,25.3,223.3,25.4,222.5,25.1z M223.8,23.3l0-0.4c0.3-0.2,0.7-0.1,1.1-0.3c0.9-0.3,1.3-0.1,1.3,0.5l-0.1,0.6l-0.1,0.1
			C225.1,23.8,224.5,23.7,223.8,23.3z M230.5,22.8c0.1-0.2,0.3-0.2,0.5-0.3c0.6,0.2,1.1,0.3,1.5,0.8c-0.3,1.3-1.2,1.8-2.6,1.2
			l-1.5-0.1l-0.1-0.2C228.1,23.1,229.6,22.1,230.5,22.8z M228.8,22c0-0.2,0.4-0.2,0.7-0.1c0.2,0,0.6,0.1,1.1-0.1
			c0.5-0.2,0.5,0,1.1,0.1c0.6,0.1,0.5,0,0.2,0.4c-0.3,0.4-0.6-0.4-1.4,0.2c-0.3,0.2-0.8,0-1.1,0C229.1,22.5,228.8,22.2,228.8,22z
			 M228.3,22c-0.3,0.2-0.2,1.5-0.5,1.7c-1.3,0.4-0.8-0.7-1.6-1.3c-0.3-0.1-0.6-0.2-0.8-0.3l-0.1-0.4l0.1-0.3
			c0.5-0.1,0.7-0.1,1.3,0.1l0.3-0.2c0.6,0.1,0.6,0.2,1.2,0.2l0.1,0.3L228.3,22z M227.2,24.3l0.3,0.1l0.1,0.2l0,0.2
			c-0.4,0.2-0.9,0.2-1.3,0.3l-0.4-0.2l-0.1-0.2C226.3,24.2,226.7,24.5,227.2,24.3z M227.4,25.1c0.5-0.2,1.1-0.6,1.4-0.5
			c0.3,0.2,0.6,0.3,1.1,0.3c0.5,0,1.3,0.2,1.7,0.1c0.4-0.1,0.5,0.2,0.4,0.3c-0.2,0.1-1.3-0.2-1.6,0.1c-0.3,0.2-0.8-0.1-1.4,0
			c-0.6,0-0.4,0.5-1.2,0.3C227,25.5,226.8,25.3,227.4,25.1z M222.8,15.1c-0.1-0.1,0,0-0.1-0.1L222.8,15.1z M218.5,14.4l4,0.7
			l1.5,0.3c1.6-0.1,3.6-0.7,5.4,0.2c0.2-0.1,0.5,0.2,0.6-0.1l0.8-0.1c1.2,0.2,2.3,0.4,3,0.8c1.3,0.8,2.6,3.2,2.7,4.9l-0.4,0.8
			c-1.7,0.1-2.2-1-3.7-1.1l-4.2-0.7l-2.5-0.5c-1.2,0-3.3-0.1-4.5-0.6c-1.7-0.6-2.9,0.5-4.4-0.2l-0.7-1.6c-0.4-1.1-1.4-2.1-3-2.2
			l-1.4,0.1C211.5,15.1,214.3,14.2,218.5,14.4z M213.4,15.5c1.9,0.5,2.3,2,2.8,3.5c0.9,0.9,2.2,0.2,3,0.5l1.1-0.1l2.1,0.5
			c0.9,0,1.8,0.2,2.5,0.3c0.6,0.1,8.3,0.8,8.6,1.3c-0.9-0.3-7.1-0.3-8-0.5c-1.2-0.3-4.4-1.1-5.7-0.9c-0.6,0.1-2.5,0.3-3.3-0.1
			c-0.9-0.4-0.6-1.5-1.1-2.2c-0.8-1-2.2-1.4-3.6-0.6c-0.6,0.3-1.9,0.8-2.6,1.1C209.4,15.3,211.3,15.9,213.4,15.5z M206.2,18.2l0.5,0
			c2.6,1.2,3.1,0.2,5.2-0.8c0.7,0.1,1.2,0.2,1.5,0.6c0,0.4,0,1.4-0.2,1.7c-0.2,0.2-0.9,0.1-1.1,0.2c0.2-0.7,0.2-0.7,0.4-1.3l0.2-0.4
			l-0.3,0c-0.7,1.1-0.7,1.2-1.7,1.8c0,0,0.8-0.4,1.1-0.6l-0.5,2.1l-0.4,0.2c-0.2,0.9,0.2,1,0.4,1.6c-0.1,0-0.1,0.1-0.2,0.1
			c-0.1,0-0.3-0.1-0.6-0.2l0.1-0.1l-0.9-0.7l0-1c1.8,1,0.5,0.3,0-0.3c0-0.3,0-0.6,0-0.9c0-0.1,0.1-0.1,0.1-0.2
			c0.4-0.4,0.5-0.5,1.1-0.9c0.6-0.3,0-0.2-0.1-0.1c0.2-0.2,0.4-0.3,0.6-0.5l-0.4,0.2c-0.2,0.2-0.5,0.4-0.7,0.5
			c-0.4,0.2-1,0.4-1.2,0.3c-0.2,0-0.8-0.1-1.3-0.1c0,0,0,0,0,0c-0.6-0.2-0.9-0.6-1.6-0.7C206.3,18.3,206.2,18.2,206.2,18.2z
			 M209.6,21.6c0-0.1,0-0.2,0-0.2c0-0.1-0.1-0.4,0-0.4c0,0,0,0,0,0C209.6,21.2,209.6,21.4,209.6,21.6z M207.1,19.7c0,0,0.1,0,0.1,0
			c0.1-0.1,0.2-0.1,0.3-0.2c0.2,0.1,0.4,0.1,0.6,0.1c-0.1,0.1-0.3,0.3-0.5,0.5c-0.2,0.1-0.3,0.2-0.4,0.3l0.1-0.5
			C207.2,19.9,207.2,19.8,207.1,19.7z M206.4,18.8c-0.1-0.1-0.1-0.3-0.1-0.4l0,0C206.4,18.5,206.4,18.6,206.4,18.8z M207,19.5
			c-0.2-0.1-0.4-0.2-0.8-0.3c0.1-0.2,0.2-0.4,0.2-0.5c0.2,0.3,0.6,0.5,1,0.6c0,0,0,0,0,0C207.2,19.4,207,19.5,207,19.5
			C207,19.5,207,19.5,207,19.5z M207.1,21l0.1-0.4c0.1,0,0.2-0.1,0.3-0.1c0,0,0,0.1-0.1,0.1c0.7-0.1,1.2-0.6,1.7-1l0.1,0
			c0,0,0.1,0.1,0.1,0.1c0,0.2,0.1,0.4,0.1,0.5c0,0.1,0,0.2,0,0.3c-0.1,0.7,0,1.5,0,1.5s-0.5,0.8-0.7,0.8c-0.1,0-0.2,0.1-0.2,0.1
			c0,0,0-0.1,0-0.1c0.4-0.6,0.4-1.1,0.4-1.9C208.1,20.7,207.7,20.7,207.1,21z M208.4,23.9c-0.2-0.2,0.1-0.5,0.1-0.8
			c0.2-0.1,0.6-0.3,0.7-0.4c0.1-0.2,0.2-0.4,0.3-0.3c-0.1,0.3-0.2,0.5-0.3,0.9l0.1,0.1l0.1,0c0.2-0.2,0.3-0.4,0.4-0.7
			c0.2,0.2,0.4,0.4,0.6,0.5c0.3,0.1,0.7,0.2,0.8,0.2C210.4,23.7,209.5,24.1,208.4,23.9z M225.6,27.6c-0.6,0-1.6,0.1-3.7-0.6
			l-4.3-0.4l-4.3-0.6c-1.6,0-2.1-1.3-3.2-1.8l0.9,0l0.4-0.2c2.3,1.6,4.7,1.4,7.4,2c0.5,0.1,0.9,0.2,1.5,0.2l2.7,0.1l2.1,0.3
			c1.7,0.3,4,0.6,5.9,0.2l1.5,0.2C231.2,27.4,227.1,27.6,225.6,27.6z M233.7,26.6l-0.3-0.2l-1.2,0.3l-2.6-0.2
			c-0.8,0-1.8,0.4-2.6,0.2c-0.9-0.2-2.4-0.5-3.6-0.8c1.6-0.3,2.9,0.2,4.3,0.3l1.3-0.3c0.7-0.1,1.7,0.5,1.9-0.2
			c0.9,0.4,2.7-0.1,2.6-1.5c0-0.5-0.5-0.7-0.5-1c0-0.2,0.2-0.4,0.2-0.7c1.1,0.7,1,1.5,1.5,2.6c0.2,0.5,0.6,0.8,0.7,1.5l0.1,0.1
			L233.7,26.6z"/>
		<path class="st1" d="M39,28.6c0,0,0.1,0,0.1,0c0.7-0.2,1.4-0.3,2.2-0.5c0.3-0.1,0.5-0.4,0.4-0.7c-0.1-0.3-0.4-0.5-0.7-0.4
			c-0.7,0.2-1.5,0.3-2.2,0.5c-0.3,0.1-0.5,0.4-0.4,0.7C38.5,28.4,38.7,28.6,39,28.6z"/>
		<path class="st1" d="M45.6,17.2l-0.8,0c-0.2,0.7-0.4,0.7-0.4,1.5c0,0.3-0.1,0.8-0.1,1.2c0.4,0,0.5-0.1,0.7-0.1
			C45.1,18.9,45.2,17.9,45.6,17.2z"/>
		<path class="st1" d="M82.4,18.9l-0.3-0.8c-0.8,0.1-2.3,0.6-2.5,0.6C80.2,18.9,82,18.9,82.4,18.9z"/>
		<path class="st1" d="M76.2,10.3l0.3-0.6c-1.1,0-1-0.2-2.3,0c-0.5,0.1-1.3,0-2,0.1c-0.2,0.3,0,0.4-0.1,0.5
			C73.5,10.2,75.1,10.2,76.2,10.3z"/>
		<path class="st1" d="M52.1,16.9l0.3-0.2l0.2,0.4c0.5,0,1,0.1,1.2-0.2c0.3-0.1,0.4-0.6,0.4-0.9c-0.1-0.2-0.5-0.2-0.7-0.3l-0.6-0.1
			L52,16.1l-0.2,0.4l0.1,0.4L52.1,16.9z M52.5,16.5l0.9-0.6c0,0.2,0.3,0.5,0.1,0.7C53.4,16.7,52.8,16.5,52.5,16.5L52.5,16.5z"/>
		<path class="st1" d="M58.8,15.6c0.1-0.2,1.1-0.6,1.3-0.7l-1.2,0L58.4,15l0,0.4L58.8,15.6z"/>
		<path class="st1" d="M60.6,18.1l0.1,0.1l0.6-0.6l-0.6-0.2c-0.1,0.1-0.2,0.1-0.4,0.2l0,0.2C60.6,18.1,60.5,18,60.6,18.1z"/>
		<path class="st1" d="M65.8,14.3l-0.1-0.2L65.4,14c-0.2,0.1-0.2,0.1-0.3,0.4l0.4,0.4L65.8,14.3z"/>
		<path class="st1" d="M51.1,20.9c2.4,0.8,4.4-0.1,6.5-0.7l0.1-0.1c-2-0.3-9.6,1.7-7.7-2.7l0-0.1l-0.5-0.1l-0.3,0.1
			C47.3,19.7,48.9,20.1,51.1,20.9z"/>
		<path class="st1" d="M67,21c-0.9,0.3-2.4,0.5-2.8,1.2c-0.4,0.7,1-0.3,1.5-0.4c0.6-0.1,2.6,0.6,2.2-0.1C67.4,20.9,67.9,20.7,67,21z
			"/>
		<path class="st1" d="M70.4,20.3c-0.8,0.2-1,0.4-1,0.4c0,0.5,0.2,1,0.7,0.3C70.6,20.3,71.2,20,70.4,20.3z"/>
		<path class="st1" d="M158.7,10.3c0.9-0.7,1.7-1,2.2-1.8l-1.7,0.7c-0.3,0.3-0.9,0-0.8,0.6C158.4,10.5,158.5,9.9,158.7,10.3z"/>
		<path class="st1" d="M151.4,8.6l0.1,0c0.6-0.5,0.9-1.8,0.8-2.5l-0.2-0.3L151.7,6c-0.1,0.3-0.3,1.5-0.6,2
			C151.3,8.3,151.1,8.4,151.4,8.6z"/>
		<path class="st1" d="M158.6,10.6l0.1,0.1c1.2,0.3,3.2-0.1,4.2-0.6l0.2-0.3l-0.5-0.3c-0.5,0-1.7,0.6-2.6,0.6
			C159.7,10.4,158.7,10.3,158.6,10.6z"/>
		<path class="st1" d="M134.7,4.4c0.2,0.1,0.3,0.3,0.9,0.4c0.1-0.5,0-1.2,0.1-1.6c0.2-1-0.1-1.1-0.1-2l-1-0.3
			C134.8,1.9,134.8,3.2,134.7,4.4z"/>
		<path class="st1" d="M150.3,24.5l-0.1,0.2l0,0.3l0.3,0C150.5,24.6,150.5,24.6,150.3,24.5z"/>
		<path class="st1" d="M155.5,16.2l-0.9,0.8l1.2,0.1l0.2-0.4C155.7,16.5,155.7,16.2,155.5,16.2z"/>
		<path class="st1" d="M153.2,22.7c0,0.3,0,0.2,0.1,0.5c0.1-0.1,0.1-0.1,0.2-0.1l0-0.2L153.2,22.7z"/>
		<path class="st1" d="M150.8,22.3l0,0.3l0,0.1l0.4-0.1C151.1,22.4,151.1,22.3,150.8,22.3z"/>
		<path class="st1" d="M148.8,20.6C148.8,20.6,148.8,20.6,148.8,20.6c0.1-0.1,0.1-0.2,0.1-0.4c0,0,0,0,0,0
			C148.8,20.4,148.7,20.4,148.8,20.6z"/>
		<polygon class="st1" points="151.4,21.9 151.3,22.1 151.3,22.2 151.5,22.2 151.7,22.2 151.7,22.1 		"/>
		<path class="st1" d="M156.7,16.6l0,0.9c0.2-0.1,1-1.6,1-1.8l-0.1-0.1l-1.5,0.5C156.2,16.2,157.3,16.1,156.7,16.6z"/>
		<polygon class="st1" points="155.1,20.6 155.3,20.8 155.4,20.8 155.5,20.7 155.1,20.4 		"/>
		<path class="st1" d="M161.9,17.1l-0.2,0.3c0.2,0.1,0.2,0,0.5-0.1c-0.1,0.2-0.2,0.3-0.4,0.5l-0.2,0l-0.2-0.2l-0.1,0l-0.1,0.1l0,0.2
			l0.1,0.3c0.7-0.1,0.9-0.3,1.2-0.8l-0.2-0.3L161.9,17.1z"/>
		<path class="st1" d="M159.2,18.6c-0.1,0.3-0.2,0.3-0.2,0.8l0.1,0l0.2,0l0-0.4c0.2,0,0.2,0.1,0.3,0.1l0.1-0.2l-0.3-0.3L159.2,18.6z
			"/>
		<path class="st1" d="M137.9,4.2c-0.2-0.2-0.2-0.4-0.5-0.5l-0.1,0.2l0.3,0.3L137.9,4.2z"/>
		<path class="st1" d="M136.4,12c-0.1-0.3-0.1-0.3-0.4-0.4l-0.1,0.3L136.4,12L136.4,12z"/>
		<path class="st1" d="M137.6,6.5c0.2,0.2,0.6,0.2,0.8,0.2l0.1-0.2C138.5,6,138.3,6,138,5.8l-0.4,0.5L137.6,6.5z"/>
		<path class="st1" d="M138.3,9.4c-0.2-0.2-0.2-0.2-0.4-0.3l-0.1,0.2l0.1,0.2l0.4,0L138.3,9.4z"/>
		<path class="st1" d="M138.3,12.1l-0.1,0.2c0.1,0.1,0,0.1,0.1,0.1c0.2,0.1,0,0,0.2,0l0.2,0l-0.1-0.4L138.3,12.1z"/>
		<path class="st1" d="M148.6,2.3c0.1-0.1,0.1-0.1,0.1-0.3c-0.1-0.1-0.1-0.2-0.3-0.2C148.2,2,148.2,2.1,148.6,2.3z"/>
		<path class="st1" d="M148,3.9l0.1-0.1l-0.2-0.4l-0.2,0l0.1,0.4C147.8,3.9,147.9,3.8,148,3.9z"/>
		<path class="st1" d="M133.4,12.6l-0.4,0.1c-0.1,0.3-0.4,0.4-0.7,0.6l0,0.5l0.1,0.1c0.6,0.3,1.2-0.1,1.5-0.6l-0.1-0.3L133.4,12.6z
			 M132.7,13.6c0.1-0.2,0.3-0.3,0.3-0.6c0.1,0,0.1,0,0.1,0c0,0,0,0,0.1,0l0.1,0.1C133.2,13.3,133,13.5,132.7,13.6z"/>
		<path class="st1" d="M147.5,1.8l-0.2-0.5c-0.1-0.1,0-0.1-0.2-0.1L147,1.5l0.3,0.2L147.5,1.8z"/>
		<path class="st1" d="M140.3,4.7L140.3,4.7c0-0.4-0.1-0.4-0.3-0.5l-0.1,0.2l0.3,0.2L140.3,4.7z"/>
		<path class="st1" d="M137.4,18l-0.1-0.5l-0.1,0l-0.1,0l-0.3,0.2l0,0.3C137.2,18,137.1,18,137.4,18z"/>
		<polygon class="st1" points="142.6,24 142.5,24.2 142.6,24.6 142.8,24.6 143,24.5 142.8,24 		"/>
		<path class="st1" d="M145,3.3c0-0.4-0.1-0.6-0.4-0.8c-0.1,0.2-0.1,0.2,0,0.4c-0.2,0.1,0,0.1-0.2-0.1l-0.2,0.1
			c-0.1,0.1-0.1,0.1-0.2,0.3l0,0.2l0.4,0.3C144.8,3.5,144.8,3.4,145,3.3z"/>
		<path class="st1" d="M143.5,25.2c-0.1,0.1-0.1,0.1-0.1,0.3l0.4,0.2l0-0.3C143.7,25.2,143.8,25.2,143.5,25.2z"/>
		<path class="st1" d="M148.4,24.4c0,0-0.1,0-0.1,0c0,0.3,0,0.3,0.3,0.4L148.4,24.4C148.5,24.4,148.5,24.4,148.4,24.4z"/>
		<path class="st1" d="M143,4.9l0.4-0.3c-0.1-0.3-0.3-0.5-0.4-0.7l-0.5,0L142,4.6l0,0.1C142.3,4.9,142.6,4.9,143,4.9z M142.7,4.3
			l0.1,0l0.1,0.1l-0.1,0.1l-0.2,0l0-0.1C142.7,4.4,142.7,4.4,142.7,4.3z"/>
		<path class="st1" d="M141.6,9.1l0.2,0c0-0.1,0-0.1,0.1-0.2c-0.1-0.5-0.2-0.6-0.4-0.9L141.3,8l-0.4,0.2l0,0.2
			C140.7,8.6,141.5,9.1,141.6,9.1z M141.5,8.4l0.1,0.2l-0.1,0.1l0-0.3L141.5,8.4z"/>
		<path class="st1" d="M147.5,7.2c-0.1-0.4-0.1-0.4-0.3-0.5L147,7l0,0.1C147.2,7.2,147.2,7.2,147.5,7.2z"/>
		<polygon class="st1" points="228.2,18.5 228,18.4 227.9,18.5 227.9,18.8 228.1,18.8 		"/>
		<path class="st1" d="M233.8,20.3l0.3-0.3c-0.2-0.5-0.8-1.1-1.5-1.2l-0.2,0.1C231.8,19.7,233.1,20.5,233.8,20.3z M233.9,19.8
			l-0.7,0.2l-0.2-0.3l-0.2,0l-0.1-0.3c0.1,0,0.1,0,0.1,0.1l-0.2-0.3C232.9,19.1,233.8,19.6,233.9,19.8z"/>
		<polygon class="st1" points="234,23.9 234,23.8 233.8,23.7 233.8,23.9 233.9,24 		"/>
		<path class="st1" d="M226.1,17.4l0.2-0.3l0-0.1l-0.3-0.1l-0.1,0.1c0,0.3,0,0.3,0.1,0.5L226.1,17.4z"/>
		<path class="st1" d="M229.6,17.2L229.6,17.2c0.2,0,0.2-0.2,0.3-0.2c0-0.3-0.1-0.2-0.4-0.3l-0.1,0.4
			C229.5,17.2,229.5,17.1,229.6,17.2z"/>
		<path class="st1" d="M214.2,21.8c0.5,0.1,0.4,0,0.9-0.3c0.1,0,0.1,0,0.1-0.1l0.2,0.4c0.4,0.4,0.6,0.5,0.8,0.5l-0.6,0.3
			c0.2,0.2,0.7,0.2,1.3,0.2l0,0c0.3,0.3,1.1-0.1,1.5-0.2c0.1-0.3,0.1-0.3-0.2-0.4c-0.1,0.1-0.1,0.1-0.2,0.1c0,0-0.1-0.1-0.2-0.1
			c-0.3-0.1-0.5-0.1-0.7-0.1c0.1,0,0.3-0.1,0.5-0.1c0.2-0.2,0.3-0.5,0.1-0.7l-0.5-0.1l0,0.5c-0.3,0-0.7,0.1-1-0.1
			c-0.1-0.1-0.1-0.2,0-0.4l-0.1,0c0.3-0.2,0.5-0.4,0.1-0.5c-0.4-0.1-1-0.2-1-0.2c-0.4,0.1-0.6-0.5-0.9,0.1
			C214.1,21.4,213.7,21.7,214.2,21.8z"/>
		<path class="st1" d="M222.7,16.6c-0.2,0.3-0.2,0.4,0.1,0.6c0.3-0.1,0.3-0.2,0.5-0.4l-0.1-0.3c-0.3-0.2-0.4-0.3-0.9-0.4l-0.1,0
			c-0.1,0.3-0.1,0.3,0.1,0.6L222.7,16.6z"/>
		<path class="st1" d="M233.9,25.3l-0.2,0.1c-0.1,0.2-0.1,0.3-0.1,0.5c0.4,0.2,0.7,0,0.6-0.5L233.9,25.3z"/>
		<path class="st1" d="M218.8,16.1c0.4-0.8-0.1-0.7-0.9-1l-0.4,0l-0.1,0c-0.1,0.4,0,0.6,0,1.1C218.2,16.5,218.2,16.1,218.8,16.1z"/>
		<path class="st1" d="M220.5,20.6c-0.3,0.2,0,0.5,0,0.5c0.2,0.4,0.4,0.5,0.4,0.8c0,0.3,0.3,0.9,0.4,0.4c0.1-0.5,0.1-0.5-0.2-0.9
			C220.7,21,220.8,20.5,220.5,20.6z"/>
		<path class="st1" d="M223.3,21.2c-0.4,0-0.3-0.1-0.6-0.1c-0.3,0,0.1,0.5-0.5,0.3c-0.5-0.2-0.5-0.3-0.6-0.2
			c-0.1,0.2,0.1,0.3,0.5,0.6c0.4,0.3,0.7-0.1,1-0.3c0.3-0.2,0.9,0,0.9-0.2C224.1,21.3,223.7,21.3,223.3,21.2z"/>
		<path class="st1" d="M227.4,22.3c-0.4-0.3-1.2-0.5-1.2-0.5c-0.7-0.2,0.4,0.4,0.8,1.2c0.1,0.2,0.3,0.7,0.3,0.2
			C227.3,22.7,227.8,22.6,227.4,22.3z"/>
		<path class="st1" d="M230.6,24.2c0.6,0.1,0.7-0.2,1.1-0.6c0.5-0.4-0.4-0.2-0.8,0c-0.3,0.2-0.6,0.2-1.2,0c-0.5-0.1,0.1-0.2-0.1-0.4
			c-0.2-0.2-0.4,0-0.8,0.4c-0.3,0.3-0.2,0.3,0.3,0.4C229.8,24.1,230,24.2,230.6,24.2z"/>
		<path class="st1" d="M213.8,16.4c0.4,0,0.9-0.1,0.1-0.3c-0.8-0.2-1.8-0.2-1.8-0.2c-0.6,0.1-1.7,0.1-2,0.6c-0.3,0.5-1,1.3-0.2,0.9
			c0.8-0.4,0.3-0.4,1.2-0.7c0.8-0.3,0.7-0.3,1.3-0.5C213,16.2,213.5,16.5,213.8,16.4z"/>
		<path class="st1" d="M230.6,22.1c-0.1-0.1,0,0-0.1-0.1l-0.2,0l0,0.1l0.1,0C230.5,22.1,230.4,22.1,230.6,22.1z"/>
	</g>
</g>
</svg>
