<svg id="Layer_1" data-name="Layer 1" xmlns="http://www.w3.org/2000/svg" viewBox="0 0 199.56 141.05"><defs><style>.cls-1,.cls-2{fill:#df2027;}.cls-2,.cls-3{fill-rule:evenodd;}.cls-3{fill:#231f20;}</style></defs><title>lforhealthlogo</title><path class="cls-1" d="M153.56,18.18a3.09,3.09,0,1,0,3.09-3.09A3.09,3.09,0,0,0,153.56,18.18Zm-0.75,0A3.84,3.84,0,1,1,156.65,22,3.84,3.84,0,0,1,152.81,18.18Zm2,2.18V16h1.86a3.22,3.22,0,0,1,1,.12,1,1,0,0,1,.51.42,1.27,1.27,0,0,1,.19.69,1.17,1.17,0,0,1-.29.81,1.38,1.38,0,0,1-.86.4,2.18,2.18,0,0,1,.47.37,4.94,4.94,0,0,1,.5.71l0.53,0.85h-1.05l-0.63-1a6.25,6.25,0,0,0-.47-0.64,0.7,0.7,0,0,0-.27-0.18,1.46,1.46,0,0,0-.45,0h-0.18v1.83h-0.89Zm0.89-2.52h0.65a3.47,3.47,0,0,0,.8-0.05,0.48,0.48,0,0,0,.25-0.19,0.56,0.56,0,0,0,.09-0.33,0.53,0.53,0,0,0-.12-0.36,0.56,0.56,0,0,0-.33-0.17h-1.34v1.11ZM143.89,51.76a1.18,1.18,0,0,1,.41-0.07q0.71,1.63,2,4.07a4.63,4.63,0,0,0,4.41,2.4,3.35,3.35,0,0,0,2.44-.91,3.24,3.24,0,0,0,.94-2.44,2.94,2.94,0,0,0-1.93-2.54q-1.93-1-4.41-2.11a8.34,8.34,0,0,1-3.29-2.25,4.17,4.17,0,0,1-.56-1.15v5ZM97,52.93q0-.28-3.09-2.74t-5.57-4.83a18.39,18.39,0,0,1-3.37-4,15.63,15.63,0,0,0-1.17-2A0.73,0.73,0,0,0,83.3,39a3.06,3.06,0,0,0-1.92,1.14,4.34,4.34,0,0,0-1.08,3.11q0,3.6,3.69,7.4a11.13,11.13,0,0,0,8.1,3.8,11.62,11.62,0,0,0,3.17-.49C96.4,53.62,97,53.28,97,52.93Zm4.93-47-1.12,1.63L99.11,8.71l1.68,1.13,1.1,1.63L103,9.82l1.63-1.11L103,7.57ZM39.23,42.26a15.67,15.67,0,0,0-.86,4.89c0,21.35,28.48,38.32,63.61,38.32s63.86-16.89,63.51-38.12a24,24,0,0,0-.8-5.21c0,18.7-28.05,34-62.71,34S39.23,60.95,39.23,42.26ZM143.84,65.87c11.95-5.87,19.33-14.46,19.42-23.1,0.07-7.06-5.37-14.19-14.29-19.95a1.62,1.62,0,0,1,.08.23q0,0.37-2.61,1.73t-2.55,5.14V42.53a4.86,4.86,0,0,1,1.92-2.62,9.34,9.34,0,0,1,5.45-1.53,20.42,20.42,0,0,1,2.82.34q2,0.33,2,.86l0.33,4a0.49,0.49,0,0,1-.61.48,13,13,0,0,0-2.35-2.87A4.74,4.74,0,0,0,150,39.87a3.47,3.47,0,0,0-2.11.62,2,2,0,0,0-.84,1.82Q147,44,149.19,45q2.12,0.77,4.09,1.58a8.47,8.47,0,0,1,3.19,2.2,5.64,5.64,0,0,1,1.22,3.93,5.72,5.72,0,0,1-2.44,5.12,9.71,9.71,0,0,1-5.59,1.63,20.54,20.54,0,0,1-3.24-.29,7.82,7.82,0,0,1-2.44-.62l-0.08,6.11A10.88,10.88,0,0,1,143.84,65.87Zm-84,0c10.95,5.43,25.74,8.79,42,8.79,15.64,0,29.94-3.14,40.8-8.2a1.29,1.29,0,0,1-.39-0.18,2.82,2.82,0,0,1-.67-0.62L112.39,33.45a1.79,1.79,0,0,0-1.09-.8q-0.49,0-.49,1v21q0,7.8,3.88,8.73t3.89,1.86A0.65,0.65,0,0,1,118,66a8.4,8.4,0,0,1-1.7.12l-7.16-.25-5.22.25c-0.41,0-.71.06-0.91,0.06a0.8,0.8,0,0,1-1-.81c0-.49,1-1.3,2.92-2.41a5.63,5.63,0,0,0,2.91-5.26V56.21a6.11,6.11,0,0,1-2.8.64,7,7,0,0,1-3.37-.94,19.1,19.1,0,0,1-3.17-2.25A11.78,11.78,0,0,1,94,56a19.24,19.24,0,0,1-5.37.82,13.08,13.08,0,0,1-7.83-2.1l3,4.14q3,4.15,5.16,5t2.24,1.36a0.7,0.7,0,0,1-.79.8l-4.55-.25q-0.49,0-1.82.12c-0.89.08-1.64,0.12-2.25,0.12a3.51,3.51,0,0,1-1.58-.31,5.44,5.44,0,0,1-1.4-1.49L66.76,47.38l-0.91-1.18a1,1,0,0,0-.6-0.56,2.16,2.16,0,0,0-1.22.81q-0.73.74-1.4,1.55a4,4,0,0,0-.85,1.3,3.38,3.38,0,0,0-.18,1.05v9a4.08,4.08,0,0,0,3,4.27q3,1,3,1.67a0.58,0.58,0,0,1-.49.62,5,5,0,0,1-1.22.12ZM51.62,25.12C44.73,30.41,40.69,36.6,40.69,42.77c0,7.24,4.83,14,12.7,19.37a12.68,12.68,0,0,0,.75-5V30.24Q54.14,26.12,51.62,25.12Zm53-14.59-0.48.33-2.26,3.26-2.18-3.19-0.59-.39c-17.47.45-33,5.21-43.69,11.93l0.82,0,8.44-.25c0.85,0,1.27.25,1.27,0.74s-0.73,1.08-2.19,1.36-2.19,1.77-2.19,4.58V44.1c0,0.33.14,0.47,0.31,0.43a2.67,2.67,0,0,0,1.52-1.05l8-8q2.19-2.17,4.43-4.33Q79,27.76,79,26q0-1-1.88-1.42t-1.82-1.11a1.15,1.15,0,0,1,1.4-1.17l6.61,0.25L89,22.25a2.69,2.69,0,0,1,1.15.18,0.77,0.77,0,0,1,.42.87q0,0.31-2.55,1.55a20.63,20.63,0,0,0-5.28,3.72L72.11,38.65a9.73,9.73,0,0,0-.91.93,1.66,1.66,0,0,0-.42.87A6.89,6.89,0,0,0,72.23,43l4.88,6.7a8.46,8.46,0,0,1-.47-2.78,9.38,9.38,0,0,1,1.92-6c1.3-1.55,2.84-2.24,4.25-3.35-0.22-.63-0.41-1.24-0.6-1.84A8.59,8.59,0,0,1,82,33.62,6,6,0,0,1,83.9,29a7,7,0,0,1,4.81-1.76,9.47,9.47,0,0,1,2.81.45l2.93,1.06a1.09,1.09,0,0,0,.64-0.29,1.19,1.19,0,0,1,.68-0.33,0.36,0.36,0,0,1,.36.16,1.7,1.7,0,0,1,.08.65,27.83,27.83,0,0,0,.28,3.28,28.24,28.24,0,0,1,.28,2.9c0,0.57-.2.86-0.6,0.86s-0.63-.61-1-1.84a9.11,9.11,0,0,0-2.25-3.6,5.59,5.59,0,0,0-4.21-1.76,2.63,2.63,0,0,0-2.08.82,3.23,3.23,0,0,0-.72,2.21q0,2.62,3.13,6.67a61,61,0,0,0,6.86,7.36q3.69,3.31,4.33,3.31a2.37,2.37,0,0,0,.92-1.27,6.54,6.54,0,0,0,.64-2.9q0-3-2.29-3.6t-2.28-1q0-.57.76-0.57L102.11,40q1,0,1.77,0t1.56-.12a0.53,0.53,0,0,1,.64.53,0.9,0.9,0,0,1-.72.74q-0.72.25-1,2.17a19.61,19.61,0,0,1-.92,3.93q-0.72,1.47-1.41,2.94,0,1.07,2.21,2.46c1.47,0.9,1.59.93,2.24,0.93a1.91,1.91,0,0,0,1.37-.6V34.14q0-7-3.4-8.73T101,23.3a0.92,0.92,0,0,1,1-1.05q0.61,0,1.94.12l1.46,0.12,6.37-.25a1.76,1.76,0,0,1,1.64.62,8.12,8.12,0,0,0,.67,1l24.4,27.3a15.53,15.53,0,0,0,1.16,1.18,1.37,1.37,0,0,0,.72.43q0.49,0,.49-2.29V29.86q0-3.28-3.7-4.65t-3.7-1.92a0.9,0.9,0,0,1,1-1.05l6.92,0.25,6.5-.25h0.18C137.38,15.64,121.94,11,104.63,10.53ZM101.91,3.3l2.16,3.17,1.84,1.27c35.36,1.29,62.47,18.8,62.47,40.61,0,22-29.73,40-66.4,40s-66.4-18-66.4-40S63.13,9,97.91,7.74l1.81-1.25ZM151,31.7a6.14,6.14,0,0,1-1.81,4.14q-1.78,2-3.09,2a0.32,0.32,0,0,1-.36-0.37,6.38,6.38,0,0,1,1.12-1.2A3.29,3.29,0,0,0,148,33.89a2.63,2.63,0,0,0-1.09-2.07,4.39,4.39,0,0,1-1.06-1.08,2.11,2.11,0,0,1,.79-1c0.55-.49,1-0.88,1.27-1.17a1.27,1.27,0,0,1,.79-0.43,2,2,0,0,1,1.55,1.11A4.23,4.23,0,0,1,151,31.7Z" transform="translate(-4.72 -3.3)"/><path class="cls-2" d="M15.79,127.3c11.62,7.32,43.76,13.34,85.7,13.34,45.09,0,77.33-7.42,86.68-16-4.42,9-30.75,19.69-86.73,19.69C48.23,144.35,22.42,134.36,15.79,127.3Z" transform="translate(-4.72 -3.3)"/><path class="cls-3" d="M103.84,115.82a2,2,0,0,1,.92.88,2.71,2.71,0,0,1,.32,1.32,5,5,0,0,1-1.9,3.65,6.91,6.91,0,0,1-4.79,1.7,5.83,5.83,0,0,1-4-1.26,4.14,4.14,0,0,1-1.4-3.23A5.28,5.28,0,0,1,93.8,116,4.64,4.64,0,0,1,96,114.16a2.59,2.59,0,0,1-.12-0.54,5.2,5.2,0,0,1,0-.62,4,4,0,0,1,1.22-2.92,4.07,4.07,0,0,1,3-1.2,2.83,2.83,0,0,1,1.56.44,1.44,1.44,0,0,1,.68,1.28,1.46,1.46,0,0,1-.4,1,1.24,1.24,0,0,1-1,.42c-0.25,0-.38-0.09-0.38-0.26a1,1,0,0,1,.16-0.54,0.89,0.89,0,0,0,.16-0.38,0.71,0.71,0,0,0-.5-0.66,2.29,2.29,0,0,0-1-.22,2.85,2.85,0,0,0-1.92.86,3.08,3.08,0,0,0-.92,2.36v0.34a1.45,1.45,0,0,0,.06.34l0.58-.22a3.07,3.07,0,0,1,.92-0.1,2.38,2.38,0,0,1,1.2.3,1,1,0,0,1,.52.92,1.37,1.37,0,0,1-.48,1.1,2,2,0,0,1-2.38,0,2.94,2.94,0,0,1-.8-1.08,3.11,3.11,0,0,0-1.79,3,4.77,4.77,0,0,0,1.34,3.43,4.57,4.57,0,0,0,3.39,1.38,5.49,5.49,0,0,0,3.29-1.14,3.44,3.44,0,0,0,1.58-2.85,2.11,2.11,0,0,0-.48-1.46,1.8,1.8,0,0,0-1.42-.54,1.51,1.51,0,0,0-1.6,1.6,1.31,1.31,0,0,0,.2.66,0.57,0.57,0,0,0,.48.32,0.84,0.84,0,0,0,.62-0.22,0.64,0.64,0,0,1,.32-0.22,0.16,0.16,0,0,1,.2.16,0.76,0.76,0,0,1-.38.68,1.55,1.55,0,0,1-.88.24,1.22,1.22,0,0,1-1.12-.66,2.8,2.8,0,0,1-.38-1.42,2.09,2.09,0,0,1,.86-1.78,10.21,10.21,0,0,1,2.56-1.26,15.76,15.76,0,0,0,3-1.48,2.6,2.6,0,0,0,1.3-2.24,1.5,1.5,0,0,0-.4-1.1,1.39,1.39,0,0,0-1.08-.42,1,1,0,0,0-.76.36,1,1,0,0,0-.3.68,0.56,0.56,0,0,0,.54.54,0.53,0.53,0,0,1,.54.42,0.83,0.83,0,0,1-.24.56,0.79,0.79,0,0,1-.6.26,1,1,0,0,1-.86-0.38,1.66,1.66,0,0,1-.28-1,1.89,1.89,0,0,1,.6-1.44,2.26,2.26,0,0,1,3.11.12,2.46,2.46,0,0,1,.62,1.72,3.46,3.46,0,0,1-1.3,2.66A11.49,11.49,0,0,1,103.84,115.82ZM98,114.16a2.15,2.15,0,0,0-.62.08,2,2,0,0,0-.56.24,1.36,1.36,0,0,0,1.46,1,0.55,0.55,0,0,0,.42-0.2,0.68,0.68,0,0,0,.2-0.46,0.65,0.65,0,0,0-.18-0.48A0.92,0.92,0,0,0,98,114.16Zm-15.45-3.57,0.1-.76a3.07,3.07,0,0,0,0-.4c0-.21-0.24-0.33-0.72-0.34s-0.7-.08-0.7-0.2,0.26-.27.78-0.32,0.92-.13,1.16-0.18l0.48-.12a0.9,0.9,0,0,1,.26,0c0.16,0,.24.06,0.24,0.18l-0.08.62-1.06,7.11a6.69,6.69,0,0,1,1.3-1.2,2.65,2.65,0,0,1,1.5-.54,1.37,1.37,0,0,1,1.32.72,3.51,3.51,0,0,1,.4,1.76c0,0.33,0,.66,0,1l-0.14,1.4c-0.08.55-.13,0.95-0.16,1.2a7.08,7.08,0,0,0,0,.76,1.49,1.49,0,0,0,.1.62,0.36,0.36,0,0,0,.32.2,1.07,1.07,0,0,0,.68-0.44,1.27,1.27,0,0,1,.54-0.44c0.18,0.37-.07.75-0.58,1.28a2.13,2.13,0,0,1-1.52.78,0.66,0.66,0,0,1-.68-0.38,3,3,0,0,1-.14-1c0-.58,0-1.28.1-2.13l0.24-2.58a2.55,2.55,0,0,0-.24-1.2,0.85,0.85,0,0,0-.84-0.44,2.19,2.19,0,0,0-1.91,1.56,13.39,13.39,0,0,0-1,3.83c-0.18,1.51-.33,2.26-0.46,2.26H81.1a0.81,0.81,0,0,1-.32,0,0.26,0.26,0,0,1-.08-0.24q0-.1.44-2.74l0.56-3.28Zm-4,4.25a1.64,1.64,0,0,1,.44,0,0.32,0.32,0,0,1,.12.34,0.31,0.31,0,0,1-.14.32,1.54,1.54,0,0,1-.42,0H77a10.67,10.67,0,0,0-.52,2.52c-0.25,1.67-.38,2.65-0.38,2.95a1.45,1.45,0,0,0,.18.84,0.77,0.77,0,0,0,.6.22,1.59,1.59,0,0,0,1-.36l0.92-.78a0.24,0.24,0,0,1,.2.18,2.84,2.84,0,0,1-1,1.28,2.87,2.87,0,0,1-2,.94,1,1,0,0,1-1-.52,2.93,2.93,0,0,1-.26-1.3,22.28,22.28,0,0,1,.22-2.24l0.5-3.53c0-.17-0.15-0.26-0.44-0.26h-0.4a0.21,0.21,0,0,1-.2-0.22,0.44,0.44,0,0,1,.22-0.26,6.08,6.08,0,0,1,.68-0.4,4.13,4.13,0,0,0,1.1-1,4,4,0,0,1,.74-0.78,0.19,0.19,0,0,1,.22.22,4.78,4.78,0,0,0-.1.48l-0.26,1.28h1.46Zm-8.09-4.25,0.08-.66a4.21,4.21,0,0,0,.06-0.5c0-.21-0.24-0.33-0.72-0.34s-0.7-.08-0.7-0.2,0.26-.27.78-0.32,0.92-.13,1.16-0.18l0.48-.12a0.87,0.87,0,0,1,.26,0c0.16,0,.24.06,0.24,0.18L71.67,111l-1.28,9.52-0.1.86a1.24,1.24,0,0,0,.08.46,0.31,0.31,0,0,0,.28.18,1.55,1.55,0,0,0,1-.72,3.49,3.49,0,0,1,.68-0.74,0.2,0.2,0,0,1,.22.22,2.89,2.89,0,0,1-.88,1.48,2.52,2.52,0,0,1-1.86,1,0.66,0.66,0,0,1-.62-0.38,2.26,2.26,0,0,1-.18-1,7.27,7.27,0,0,1,0-.82l0.12-.92Zm-6.95,3.81a1,1,0,0,1,.34.06,1.68,1.68,0,0,1,.38.14l0.4,0.16a1.53,1.53,0,0,0,.44.06,0.94,0.94,0,0,0,.46-0.42A1.09,1.09,0,0,1,66,114a21,21,0,0,1-.46,3.55,21.94,21.94,0,0,0-.36,3.55,1.62,1.62,0,0,0,.12.7,0.4,0.4,0,0,0,.38.22,1,1,0,0,0,.66-0.6,1.23,1.23,0,0,1,.5-0.6c0.19,0,.28.06,0.28,0.2a3.21,3.21,0,0,1-.66,1.3,1.78,1.78,0,0,1-1.36.94,1,1,0,0,1-.92-0.66,3.65,3.65,0,0,1-.28-1.44,8,8,0,0,1-1.62,1.6,3.35,3.35,0,0,1-2,.64,1.6,1.6,0,0,1-1.42-.64,3,3,0,0,1-.42-1.68,7.79,7.79,0,0,1,1.6-4.31Q61.64,114.4,63.52,114.4Zm-2.45,8a2.51,2.51,0,0,0,1.86-.9,2.61,2.61,0,0,0,.86-1.3q0-.12.38-2.06a21.21,21.21,0,0,0,.38-2.28,0.69,0.69,0,0,0-.28-0.52A1.21,1.21,0,0,0,63.4,115q-1.34,0-2.52,2a7.32,7.32,0,0,0-1.18,3.7,2,2,0,0,0,.34,1.22A1.3,1.3,0,0,0,61.08,122.35Zm-9.89-3.93c0,0.11.15,0.16,0.46,0.16a4.48,4.48,0,0,0,2.22-.68,2,2,0,0,0,1.2-1.82,0.9,0.9,0,0,0-1-1,2.47,2.47,0,0,0-2,1.32A4.22,4.22,0,0,0,51.18,118.43Zm3.35-4a2,2,0,0,1,1.24.38,1.45,1.45,0,0,1,.52,1.28,2.39,2.39,0,0,1-1.56,2.21,7.24,7.24,0,0,1-3.11.74,1.07,1.07,0,0,0-.48.06,0.77,0.77,0,0,0-.08.48,2.86,2.86,0,0,0,.66,2.12,2.58,2.58,0,0,0,1.88.64A3.11,3.11,0,0,0,55,122l1.08-.62a0.18,0.18,0,0,1,.22.18,2.79,2.79,0,0,1-1,1,4.17,4.17,0,0,1-2.67.78,2.71,2.71,0,0,1-2.09-.82,3.17,3.17,0,0,1-.74-2.16,6.4,6.4,0,0,1,1.52-4.11A4.28,4.28,0,0,1,54.53,114.4ZM42.89,117l0-.46a0.34,0.34,0,0,0-.08-0.26,0.44,0.44,0,0,0-.32-0.08H35.34a1,1,0,0,0-.28.7l-0.4,4-0.06.66a1,1,0,0,0,.92,1,1.05,1.05,0,0,1,.92.42,0.2,0.2,0,0,1-.22.24L34,123.16l-2,.08a0.22,0.22,0,0,1-.26-0.24c0-.15.22-0.26,0.66-0.34a0.89,0.89,0,0,0,.76-0.84l1-9.48,0.06-1,0-.5a1,1,0,0,0-.88-1,1.1,1.1,0,0,1-.86-0.5c0-.15.11-0.22,0.34-0.22l1.88,0.08,2.38-.08a0.22,0.22,0,0,1,.24.26,2.68,2.68,0,0,1-.74.42,1.31,1.31,0,0,0-.82,1.12l-0.38,3.85-0.06.54c0,0.17.17,0.26,0.52,0.26h6.71a0.59,0.59,0,0,0,.56-0.68l0.24-2.48,0.06-.76,0.08-.78a1,1,0,0,0-.88-1,1.09,1.09,0,0,1-.86-0.5c0-.15.11-0.22,0.34-0.22L44,109.13l2.38-.08a0.22,0.22,0,0,1,.24.26,2.68,2.68,0,0,1-.74.42,1.32,1.32,0,0,0-.82,1.12l-1.12,10.08-0.06.66a1,1,0,0,0,1,1,1.18,1.18,0,0,1,1,.42c0,0.16-.13.24-0.38,0.24l-2.24-.08-2,.08a0.21,0.21,0,0,1-.26-0.22,0.77,0.77,0,0,1,.68-0.36,0.9,0.9,0,0,0,.74-0.84Zm-14-2.06a3.67,3.67,0,0,1-.22.9,0.81,0.81,0,0,1-.44.66,1.89,1.89,0,0,1-.32-0.46,0.84,0.84,0,0,0-.72-0.46,1,1,0,0,0-.94.84,14.29,14.29,0,0,0-.48,2l-0.62,4.11c0,0.4-.13.6-0.26,0.6H24.12a0.81,0.81,0,0,1-.32,0,0.26,0.26,0,0,1-.08-0.24q0.46-2.64.62-3.73a11.59,11.59,0,0,0,.18-1.42,4.88,4.88,0,0,0-.14-1.26,0.64,0.64,0,0,0-.68-0.52,1,1,0,0,0-.7.78,1.19,1.19,0,0,1-.56.78c-0.08,0-.12-0.13-0.12-0.38a4,4,0,0,1,.5-1.7,1.48,1.48,0,0,1,1.2-1,1.2,1.2,0,0,1,.92.6,2.66,2.66,0,0,1,.44,1.62l1-1.24a2.38,2.38,0,0,1,1.62-1,1,1,0,0,1,.6.2A0.53,0.53,0,0,1,28.87,115ZM16,122.92a2.53,2.53,0,0,0,2.46-1.7,9.09,9.09,0,0,0,.74-3.67,3.83,3.83,0,0,0-.42-2,1.61,1.61,0,0,0-1.54-.72,2.48,2.48,0,0,0-2.37,1.66,8.62,8.62,0,0,0-.74,3.53,5,5,0,0,0,.38,2A1.5,1.5,0,0,0,16,122.92Zm-3.21-3A6.21,6.21,0,0,1,14,116.12a3.8,3.8,0,0,1,3.22-1.72,3,3,0,0,1,2.43,1,3.86,3.86,0,0,1,.86,2.61,6,6,0,0,1-1.26,3.73A4,4,0,0,1,16,123.38a3,3,0,0,1-2.36-1A3.77,3.77,0,0,1,12.79,119.87Zm-5-5a3.15,3.15,0,0,0,.38-1.16q0.28-1.16.68-2.32a5.24,5.24,0,0,1,1.3-2,2.7,2.7,0,0,1,1.89-.88,1.27,1.27,0,0,1,.74.14A0.59,0.59,0,0,1,13,109a4.69,4.69,0,0,1-.06.86,0.29,0.29,0,0,1-.28.32,1.38,1.38,0,0,1-.42-0.44,1.05,1.05,0,0,0-.86-0.44c-0.49,0-.95.59-1.36,1.76a10.14,10.14,0,0,0-.62,3.41,1.13,1.13,0,0,0,0,.34h1.26a1.69,1.69,0,0,1,.44,0,0.33,0.33,0,0,1,.12.34,0.31,0.31,0,0,1-.14.32,1.52,1.52,0,0,1-.42,0h-1a0.38,0.38,0,0,0-.46.28l0,0.48-0.84,7.31a4.61,4.61,0,0,1-1,2.66,2.46,2.46,0,0,1-1.88,1,0.5,0.5,0,0,1-.6-0.52,2.78,2.78,0,0,1,.16-0.92,0.51,0.51,0,0,1,.36-0.46,0.58,0.58,0,0,1,.3.5,0.55,0.55,0,0,0,.38.52,1.09,1.09,0,0,0,.46-0.14,1.52,1.52,0,0,0,.42-1.18l1.06-9.32-1.26-.18a1.63,1.63,0,0,1-.44,0,0.48,0.48,0,0,1,0-.64,1.18,1.18,0,0,1,.44-0.06h1.2Zm186.58,6.63c0-.53-0.51-1.31-1.52-2.33a4.23,4.23,0,0,1-1.52-2.44,2,2,0,0,1,.8-1.81,3.48,3.48,0,0,1,1.84-.5,2,2,0,0,1,1.36.4,1.09,1.09,0,0,1,.46.76,0.47,0.47,0,0,1-.2.44,0.74,0.74,0,0,1-.42.12,1,1,0,0,1-.82-0.62,1,1,0,0,0-1.67-.3,1.2,1.2,0,0,0-.28.84q0,0.63,1.55,2.09a4,4,0,0,1,1.56,2.74,2.15,2.15,0,0,1-.92,1.88,3.56,3.56,0,0,1-2.07.62,4.14,4.14,0,0,1-1.54-.3,1.06,1.06,0,0,1-.74-1,0.76,0.76,0,0,1,.16-0.4,0.55,0.55,0,0,1,.44-0.16,1,1,0,0,1,.8.7,1.16,1.16,0,0,0,1.08.68,1.8,1.8,0,0,0,1.18-.38A1.23,1.23,0,0,0,194.39,121.47Zm-7.71,0q0-.8-1.52-2.33a4.24,4.24,0,0,1-1.52-2.44,2,2,0,0,1,.8-1.81,3.48,3.48,0,0,1,1.84-.5,2,2,0,0,1,1.36.4,1.08,1.08,0,0,1,.46.76,0.46,0.46,0,0,1-.2.44,0.74,0.74,0,0,1-.42.12,1,1,0,0,1-.82-0.62,1,1,0,0,0-.9-0.62,1,1,0,0,0-.76.32,1.2,1.2,0,0,0-.28.84q0,0.63,1.55,2.09a4,4,0,0,1,1.56,2.74,2.16,2.16,0,0,1-.92,1.88,3.57,3.57,0,0,1-2.07.62,4.16,4.16,0,0,1-1.54-.3,1.06,1.06,0,0,1-.74-1,0.83,0.83,0,0,1,.16-0.4,0.56,0.56,0,0,1,.44-0.16,1,1,0,0,1,.8.7,1.16,1.16,0,0,0,1.08.68,1.8,1.8,0,0,0,1.18-.38A1.24,1.24,0,0,0,186.68,121.47Zm-11.38-3c0,0.11.15,0.16,0.46,0.16a4.47,4.47,0,0,0,2.22-.68,2,2,0,0,0,1.2-1.82,0.9,0.9,0,0,0-1-1,2.46,2.46,0,0,0-2,1.32A4.19,4.19,0,0,0,175.3,118.43Zm3.35-4a2,2,0,0,1,1.24.38,1.45,1.45,0,0,1,.52,1.28,2.39,2.39,0,0,1-1.56,2.21,7.22,7.22,0,0,1-3.11.74,1,1,0,0,0-.48.06,0.75,0.75,0,0,0-.08.48,2.88,2.88,0,0,0,.66,2.12,2.6,2.6,0,0,0,1.88.64,3.08,3.08,0,0,0,1.36-.28l1.08-.62a0.18,0.18,0,0,1,.22.18,2.77,2.77,0,0,1-1,1,4.15,4.15,0,0,1-2.66.78,2.7,2.7,0,0,1-2.08-.82,3.15,3.15,0,0,1-.74-2.16,6.39,6.39,0,0,1,1.52-4.11A4.27,4.27,0,0,1,178.65,114.4Zm-8.31,7.09c0,0.39.1,0.58,0.3,0.58a1,1,0,0,0,.68-0.34L172,121c0.13,0,.2,0,0.2.12a2.36,2.36,0,0,1-.8,1.28,2.25,2.25,0,0,1-1.58.84,0.74,0.74,0,0,1-.62-0.26,2,2,0,0,1-.2-1.06c0-.32,0-1,0.12-2l0.3-3.11,0-.3a1.22,1.22,0,0,0-.32-0.84,1.5,1.5,0,0,0-1.18-.36,1.83,1.83,0,0,0-1.66,1.34,9.37,9.37,0,0,0-.74,2.74l-0.48,3.13c0,0.4-.13.6-0.26,0.6h-0.74a0.82,0.82,0,0,1-.32,0,0.25,0.25,0,0,1-.08-0.24c0-.21.14-1.19,0.42-2.92s0.44-2.71.44-2.93a8.22,8.22,0,0,0,0-.92,0.34,0.34,0,0,0-.38-0.32,1,1,0,0,0-.86.6,1.11,1.11,0,0,1-.46.58,0.2,0.2,0,0,1-.2-0.24,2.53,2.53,0,0,1,.64-1.48,1.73,1.73,0,0,1,1.28-.84,0.7,0.7,0,0,1,.72.5,3.2,3.2,0,0,1,.2,1.18l0,0.34v0.28a7,7,0,0,1,1.54-1.6,3,3,0,0,1,1.83-.7,1.71,1.71,0,0,1,1.46.62,2.73,2.73,0,0,1,.46,1.69c0,0.4-.07,1.24-0.2,2.5S170.34,121.24,170.34,121.49Zm-10.27-9.36a0.75,0.75,0,0,1-.46-0.48,1.79,1.79,0,0,1-.26-0.68,1.2,1.2,0,0,1,.3-0.62,0.87,0.87,0,0,1,.52-0.42,0.75,0.75,0,0,1,.46.48,1.77,1.77,0,0,1,.26.68,1.29,1.29,0,0,1-.32.64A0.82,0.82,0,0,1,160.06,112.14Zm-0.64,9.76a1.13,1.13,0,0,0,.7-0.6,1.89,1.89,0,0,1,.54-0.62,0.18,0.18,0,0,1,.2.2,3,3,0,0,1-.78,1.38,2,2,0,0,1-1.48,1,0.66,0.66,0,0,1-.62-0.4,1.94,1.94,0,0,1-.2-0.86,16.77,16.77,0,0,1,.32-2.76q0.32-1.77.68-3.61a0.23,0.23,0,0,0-.2-0.26,1.92,1.92,0,0,0-.56-0.06,3,3,0,0,1-.6,0,0.21,0.21,0,0,1-.16-0.24c0-.13.26-0.22,0.8-0.26l1.14-.1a3.52,3.52,0,0,0,.56-0.14,1.1,1.1,0,0,1,.32-0.1,0.22,0.22,0,0,1,.28.22q-0.32,1.44-.8,3.75a20,20,0,0,0-.46,3C159.1,121.72,159.21,121.89,159.42,121.89Zm-10.55-6.45a2.64,2.64,0,0,0-.6.2l-0.56.24a0.2,0.2,0,0,1-.22-0.24,0.53,0.53,0,0,1,.4-0.4,7.61,7.61,0,0,1,1.08-.4,12.46,12.46,0,0,0,.18-1.24c0.05-.52.1-0.87,0.14-1.06a0.72,0.72,0,0,1,.44-0.46,1.73,1.73,0,0,1,.64-0.16,0.23,0.23,0,0,1,.22.28c0,0.07,0,.32-0.1.76l-0.18,1.38a0.18,0.18,0,0,0,.18.22l0.6-.1a5.63,5.63,0,0,1,.9-0.06,3.6,3.6,0,0,1,2.43.82,3.06,3.06,0,0,1,1,2.48,6.21,6.21,0,0,1-1.44,3.83,4.86,4.86,0,0,1-4,1.84,5.15,5.15,0,0,0-.6-0.08,1.55,1.55,0,0,0-.28,1,11.76,11.76,0,0,0-.14,1.58,0.8,0.8,0,0,0,.78.88,1,1,0,0,1,.8.26c0,0.15-.1.22-0.3,0.22l-2.1-.08-1.29.08c-0.21,0-.32-0.07-0.32-0.2a0.54,0.54,0,0,1,.5-0.36,0.89,0.89,0,0,0,.6-0.88Zm0.46,6.29a4.67,4.67,0,0,0,0,.6,0.57,0.57,0,0,0,.7.58,3.36,3.36,0,0,0,2.93-1.5,5.94,5.94,0,0,0,1-3.43,2.77,2.77,0,0,0-.88-2.33,2.87,2.87,0,0,0-1.84-.7H151a1.45,1.45,0,0,0-.64.12,0.47,0.47,0,0,0-.28.42Zm-10.39-6.29a2.7,2.7,0,0,0-.6.2l-0.56.24a0.2,0.2,0,0,1-.22-0.24,0.53,0.53,0,0,1,.4-0.4,7.69,7.69,0,0,1,1.08-.4,10.65,10.65,0,0,0,.18-1.24c0.06-.52.1-0.87,0.14-1.06a0.72,0.72,0,0,1,.44-0.46,1.72,1.72,0,0,1,.64-0.16,0.22,0.22,0,0,1,.22.28c0,0.07,0,.32-0.1.76l-0.18,1.38a0.18,0.18,0,0,0,.18.22l0.6-.1a5.58,5.58,0,0,1,.9-0.06,3.6,3.6,0,0,1,2.42.82,3.06,3.06,0,0,1,1,2.48,6.19,6.19,0,0,1-1.44,3.83,4.84,4.84,0,0,1-4,1.84,5.09,5.09,0,0,0-.6-0.08,1.55,1.55,0,0,0-.28,1,12,12,0,0,0-.14,1.58,0.8,0.8,0,0,0,.78.88,1,1,0,0,1,.8.26c0,0.15-.1.22-0.3,0.22l-2.1-.08-1.28.08c-0.22,0-.32-0.07-0.32-0.2a0.54,0.54,0,0,1,.5-0.36,0.9,0.9,0,0,0,.6-0.88Zm0.46,6.29a4.08,4.08,0,0,0,0,.6,0.57,0.57,0,0,0,.7.58,3.36,3.36,0,0,0,2.93-1.5,5.94,5.94,0,0,0,1-3.43,2.76,2.76,0,0,0-.88-2.33,2.86,2.86,0,0,0-1.84-.7h-0.2a1.44,1.44,0,0,0-.64.12,0.48,0.48,0,0,0-.28.42Zm-6.93-7.33a1.07,1.07,0,0,1,.34.06,1.72,1.72,0,0,1,.38.14l0.4,0.16a1.5,1.5,0,0,0,.44.06,0.94,0.94,0,0,0,.46-0.42,1.09,1.09,0,0,1,.42-0.42,20.92,20.92,0,0,1-.46,3.55,22,22,0,0,0-.36,3.55,1.62,1.62,0,0,0,.12.7,0.4,0.4,0,0,0,.38.22,1,1,0,0,0,.66-0.6,1.23,1.23,0,0,1,.5-0.6c0.19,0,.28.06,0.28,0.2a3.23,3.23,0,0,1-.66,1.3,1.79,1.79,0,0,1-1.36.94,1,1,0,0,1-.92-0.66,3.68,3.68,0,0,1-.28-1.44,8,8,0,0,1-1.62,1.6,3.36,3.36,0,0,1-2,.64,1.61,1.61,0,0,1-1.42-.64,3,3,0,0,1-.42-1.68,7.8,7.8,0,0,1,1.6-4.31Q130.59,114.4,132.47,114.4Zm-2.45,8a2.5,2.5,0,0,0,1.86-.9,2.6,2.6,0,0,0,.86-1.3c0-.08.13-0.77,0.38-2.06a21.2,21.2,0,0,0,.38-2.28,0.68,0.68,0,0,0-.28-0.52,1.21,1.21,0,0,0-.88-0.26c-0.89,0-1.74.66-2.52,2a7.31,7.31,0,0,0-1.18,3.7,2,2,0,0,0,.34,1.22A1.29,1.29,0,0,0,130,122.35ZM122.07,117l0-.46a0.32,0.32,0,0,0-.08-0.26,0.41,0.41,0,0,0-.32-0.08h-7.19a1,1,0,0,0-.28.7l-0.4,4-0.06.66a1,1,0,0,0,.92,1,1.06,1.06,0,0,1,.92.42,0.2,0.2,0,0,1-.22.24l-2.25-.08-2,.08a0.22,0.22,0,0,1-.26-0.24c0-.15.22-0.26,0.66-0.34a0.88,0.88,0,0,0,.76-0.84l1-9.48,0.06-1,0-.5a1,1,0,0,0-.88-1,1.09,1.09,0,0,1-.86-0.5c0-.15.11-0.22,0.34-0.22l1.88,0.08,2.38-.08a0.22,0.22,0,0,1,.24.26,2.74,2.74,0,0,1-.74.42,1.31,1.31,0,0,0-.82,1.12l-0.38,3.85-0.06.54c0,0.17.18,0.26,0.52,0.26h6.71a0.59,0.59,0,0,0,.56-0.68l0.24-2.48,0.06-.76,0.08-.78a1,1,0,0,0-.88-1,1.09,1.09,0,0,1-.86-0.5c0-.15.11-0.22,0.34-0.22l1.89,0.08,2.38-.08a0.22,0.22,0,0,1,.24.26,2.68,2.68,0,0,1-.74.42,1.32,1.32,0,0,0-.82,1.12l-1.12,10.08-0.06.66a1,1,0,0,0,1,1,1.17,1.17,0,0,1,1,.42c0,0.16-.13.24-0.38,0.24l-2.24-.08-2,.08a0.22,0.22,0,0,1-.26-0.22,0.78,0.78,0,0,1,.68-0.36,0.9,0.9,0,0,0,.74-0.84Z" transform="translate(-4.72 -3.3)"/><path class="cls-3" d="M200,114.84h0.58a2.92,2.92,0,0,0,.71,0,0.4,0.4,0,0,0,.22-0.17,0.5,0.5,0,0,0,.08-0.29,0.47,0.47,0,0,0-.1-0.32,0.48,0.48,0,0,0-.3-0.15H200v1Zm-0.79,2.25v-3.9h1.66a2.85,2.85,0,0,1,.91.1,0.91,0.91,0,0,1,.45.37,1.12,1.12,0,0,1,.17.62,1,1,0,0,1-.26.72,1.21,1.21,0,0,1-.77.36,1.9,1.9,0,0,1,.42.33,4.39,4.39,0,0,1,.45.63l0.48,0.76h-0.94l-0.57-.85a6,6,0,0,0-.41-0.57,0.64,0.64,0,0,0-.24-0.16,1.39,1.39,0,0,0-.4,0H200v1.63h-0.79Zm-1.83-1.95a3.43,3.43,0,1,1,3.43,3.43A3.43,3.43,0,0,1,197.42,115.15Zm0.67,0a2.76,2.76,0,1,0,2.76-2.76A2.76,2.76,0,0,0,198.09,115.15Z" transform="translate(-4.72 -3.3)"/></svg>