<?xml version="1.0" encoding="utf-8"?>
<!-- Generator: Adobe Illustrator 19.0.0, SVG Export Plug-In . SVG Version: 6.00 Build 0)  -->
<svg version="1.1" id="Layer_1" xmlns="http://www.w3.org/2000/svg" xmlns:xlink="http://www.w3.org/1999/xlink" x="0px" y="0px"
	 viewBox="-149 387.8 339.2 65.9" style="enable-background:new -149 387.8 339.2 65.9;" xml:space="preserve">
<style type="text/css">
	.st0{fill:#DF2027;}
</style>
<title>fiftyyearslogo</title>
<g>
	<g>
		<path class="st0" d="M15.3,421.2v-7.4l-4.2-11.9h4l1.3,4.6c0.3,1.2,0.7,2.7,1,4.1h0.1c0.2-1.4,0.5-2.8,0.9-4.2l1.1-4.5h3.9
			l-4.3,11.8v7.5H15.3z"/>
		<path class="st0" d="M26.2,415.5c0.1,2.2,1.3,3,3,3c1.1,0,2-0.2,2.7-0.5l0.5,2.7c-1,0.4-2.4,0.6-3.9,0.6c-3.8,0-5.9-2.5-5.9-6.9
			c0-4.7,2.4-7.5,5.6-7.5c3,0,4.8,2.4,4.8,6.6c0,1,0,1.5-0.1,1.9H26.2z M29.5,412.9c0-1.8-0.5-3.2-1.6-3.2c-1.2,0-1.7,1.8-1.7,3.2
			H29.5z"/>
		<path class="st0" d="M41.3,421.2l-0.2-1.4H41c-0.8,1.1-1.9,1.6-3.1,1.6c-2.1,0-3.7-1.8-3.7-4.3c0-3.7,3.2-5.2,6.4-5.2v-0.3
			c0-1.1-0.7-1.9-2-1.9c-1.1,0-2,0.3-2.9,0.8l-0.7-2.5c0.8-0.5,2.4-1.1,4.4-1.1c4.3,0,5,3,5,5.8v5.2c0,1.1,0.1,2.3,0.2,3.2H41.3z
			 M40.7,414.4c-1.3,0-3,0.4-3,2.4c0,1.4,0.8,1.9,1.3,1.9c0.6,0,1.3-0.4,1.5-1.2c0.1-0.2,0.1-0.4,0.1-0.7V414.4z"/>
		<path class="st0" d="M46.9,411.4c0-1.4-0.1-2.9-0.1-4.2h3.3l0.2,2h0.1c0.6-1.5,1.7-2.3,2.8-2.3c0.4,0,0.6,0,0.8,0.1v3.7
			c-0.2-0.1-0.5-0.1-0.8-0.1c-0.8,0-1.9,0.5-2.3,2c-0.1,0.3-0.1,0.8-0.1,1.4v7.1h-3.8V411.4z"/>
		<path class="st0" d="M55.5,417.8c0.5,0.3,1.6,0.7,2.5,0.7c1,0,1.5-0.4,1.5-1.3c0-0.7-0.4-1.2-1.6-1.9c-2.3-1.3-2.8-2.8-2.8-4
			c0-2.5,1.8-4.4,4.6-4.4c1.2,0,2.1,0.3,2.8,0.6l-0.7,2.8c-0.5-0.3-1.2-0.6-1.9-0.6c-0.9,0-1.4,0.6-1.4,1.2c0,0.6,0.3,1,1.6,1.7
			c2.1,1.2,2.8,2.6,2.8,4.2c0,2.9-2.1,4.4-5,4.4c-1.2,0-2.5-0.3-3.2-0.8L55.5,417.8z"/>
		<path class="st0" d="M79.7,414.1c0,5.8-3.2,7.3-5.4,7.3c-3.4,0-5.4-2.6-5.4-7.2c0-5,2.6-7.3,5.4-7.3
			C77.7,407,79.7,409.7,79.7,414.1z M72.7,414.1c0,2.4,0.4,4.4,1.7,4.4c1.2,0,1.5-2.3,1.5-4.4c0-1.9-0.3-4.4-1.6-4.4
			C73,409.8,72.7,412.2,72.7,414.1z"/>
		<path class="st0" d="M82.5,421.2v-11.3h-1.9v-2.7h1.9v-0.6c0-1.6,0.3-3,1.4-4.2c0.8-0.9,2-1.3,3.4-1.3c1,0,1.7,0.1,2.3,0.3
			l-0.4,2.9c-0.3-0.1-0.7-0.2-1.1-0.2c-1.3,0-1.7,1.1-1.7,2.3v0.7h2.4v2.7h-2.4v11.3H82.5z"/>
		<path class="st0" d="M13.2,428.5c1.1-0.2,2.5-0.4,3.9-0.4c2.2,0,4,0.3,5.2,1.5c1.1,1,1.7,2.6,1.7,4.2c0,2.1-0.6,3.6-1.6,4.6
			c-1.2,1.3-3.2,1.8-4.7,1.8c-0.3,0-0.5,0-0.7,0v7.2h-3.8V428.5z M16.9,437.3c0.2,0.1,0.4,0.1,0.6,0.1c1.9,0,2.8-1.3,2.8-3.2
			c0-1.7-0.7-3-2.4-3c-0.3,0-0.7,0.1-0.9,0.1V437.3z"/>
		<path class="st0" d="M35.6,440.5c0,5.8-3.2,7.3-5.4,7.3c-3.4,0-5.4-2.6-5.4-7.2c0-5,2.6-7.3,5.4-7.3
			C33.6,433.3,35.6,436.1,35.6,440.5z M28.6,440.5c0,2.4,0.4,4.4,1.7,4.4c1.2,0,1.5-2.3,1.5-4.4c0-1.9-0.3-4.4-1.6-4.4
			C28.9,436.1,28.6,438.6,28.6,440.5z"/>
		<path class="st0" d="M47.9,443.3c0,1.5,0.1,3,0.1,4.3h-3.2l-0.2-1.5h-0.1c-0.7,0.9-1.8,1.7-3.2,1.7c-2.7,0-3.8-2-3.8-5.8v-8.5h3.8
			v8.1c0,1.8,0.3,3,1.4,3c0.6,0,1-0.5,1.2-0.9c0.1-0.3,0.2-0.7,0.2-1.2v-8.9h3.8V443.3z"/>
		<path class="st0" d="M50.5,427.7h3.8v19.8h-3.8V427.7z"/>
		<path class="st0" d="M61.2,429.7v3.8H64v2.7h-2.8v6.4c0,1.6,0.7,2,1.4,2c0.4,0,0.7,0,1-0.1l0,2.9c-0.5,0.1-1.3,0.3-2.3,0.3
			c-1.1,0-2-0.3-2.7-0.9c-0.8-0.7-1.2-1.8-1.2-4v-6.6h-1.7v-2.7h1.7v-2.9L61.2,429.7z"/>
		<path class="st0" d="M65.6,437.7c0-1.4-0.1-2.9-0.1-4.2h3.3l0.2,2H69c0.6-1.5,1.7-2.3,2.8-2.3c0.4,0,0.6,0,0.8,0.1v3.7
			c-0.2-0.1-0.5-0.1-0.8-0.1c-0.8,0-1.9,0.5-2.3,2c-0.1,0.3-0.1,0.8-0.1,1.4v7.1h-3.8V437.7z"/>
		<path class="st0" d="M77.5,433.5l1.4,7.3c0.1,0.8,0.3,1.6,0.4,2.3h0.1c0.1-0.7,0.2-1.5,0.3-2.3l1.2-7.3h3.7l-2.9,10.8
			c-0.7,2.6-1.6,5.4-3.1,7.2c-1.2,1.4-2.6,2-3.2,2.2l-1.1-3.2c0.7-0.2,1.3-0.7,1.9-1.2c0.5-0.5,0.9-1.1,1.2-1.7
			c0.1-0.3,0.2-0.4,0.2-0.6c0-0.2-0.1-0.3-0.1-0.5l-3.8-13H77.5z"/>
		<path class="st0" d="M98.9,439.1h-4.4v5.2h5v3.3h-8.7v-19.3h8.4v3.3h-4.6v4.4h4.4V439.1z"/>
		<path class="st0" d="M104.8,433.5l0.9,2.5c0.3,0.8,0.5,1.7,0.7,2.3h0.1c0.2-0.7,0.4-1.6,0.7-2.3l0.8-2.5h3.8l-3.2,6.9l3.2,7.1
			h-4.1l-0.9-2.6c-0.3-0.7-0.5-1.4-0.7-2.1h-0.1c-0.2,0.7-0.4,1.4-0.6,2.1l-0.9,2.6h-3.8l3.1-7l-3.1-7H104.8z"/>
		<path class="st0" d="M120.5,447.3c-0.4,0.2-1.3,0.4-2.4,0.4c-3.6,0-5.9-2.5-5.9-7c0-4.3,2.5-7.3,6.4-7.3c0.9,0,1.7,0.2,2.1,0.4
			l-0.5,3c-0.3-0.1-0.8-0.3-1.4-0.3c-1.8,0-2.9,1.7-2.9,4.2c0,2.5,1.1,4.1,2.8,4.1c0.5,0,1-0.1,1.4-0.3L120.5,447.3z"/>
		<path class="st0" d="M124.9,441.9c0.1,2.2,1.3,3,3,3c1.1,0,2-0.2,2.7-0.5l0.5,2.7c-1,0.4-2.4,0.6-3.9,0.6c-3.8,0-5.9-2.5-5.9-6.9
			c0-4.7,2.4-7.5,5.6-7.5c3,0,4.8,2.4,4.8,6.6c0,1,0,1.5-0.1,1.9H124.9z M128.3,439.2c0-1.8-0.5-3.2-1.6-3.2c-1.2,0-1.7,1.8-1.7,3.2
			H128.3z"/>
		<path class="st0" d="M133.8,427.7h3.8v19.8h-3.8V427.7z"/>
		<path class="st0" d="M140.1,427.7h3.8v19.8h-3.8V427.7z"/>
		<path class="st0" d="M149.5,441.9c0.1,2.2,1.3,3,3,3c1.1,0,2-0.2,2.7-0.5l0.5,2.7c-1,0.4-2.4,0.6-3.9,0.6c-3.8,0-5.9-2.5-5.9-6.9
			c0-4.7,2.4-7.5,5.6-7.5c3,0,4.8,2.4,4.8,6.6c0,1,0,1.5-0.1,1.9H149.5z M152.9,439.2c0-1.8-0.5-3.2-1.6-3.2c-1.2,0-1.7,1.8-1.7,3.2
			H152.9z"/>
		<path class="st0" d="M158.3,437.7c0-1.5-0.1-2.9-0.1-4.2h3.2l0.2,1.6h0.1c0.7-1.1,1.9-1.8,3.4-1.8c2.7,0,3.7,2.1,3.7,5.2v9H165
			v-8.8c0-1.2-0.3-2.3-1.4-2.3c-0.6,0-1.1,0.4-1.4,1.3c-0.1,0.3-0.2,0.7-0.2,1.3v8.5h-3.8V437.7z"/>
		<path class="st0" d="M179,447.3c-0.4,0.2-1.3,0.4-2.4,0.4c-3.6,0-5.9-2.5-5.9-7c0-4.3,2.5-7.3,6.4-7.3c0.9,0,1.7,0.2,2.1,0.4
			l-0.5,3c-0.3-0.1-0.8-0.3-1.4-0.3c-1.8,0-2.9,1.7-2.9,4.2c0,2.5,1.1,4.1,2.8,4.1c0.5,0,1-0.1,1.4-0.3L179,447.3z"/>
		<path class="st0" d="M183.5,441.9c0.1,2.2,1.3,3,3,3c1.1,0,2-0.2,2.7-0.5l0.5,2.7c-1,0.4-2.4,0.6-3.9,0.6c-3.8,0-5.9-2.5-5.9-6.9
			c0-4.7,2.4-7.5,5.6-7.5c3,0,4.8,2.4,4.8,6.6c0,1,0,1.5-0.1,1.9H183.5z M186.8,439.2c0-1.8-0.5-3.2-1.6-3.2c-1.2,0-1.7,1.8-1.7,3.2
			H186.8z"/>
	</g>
	<g>
		<path class="st0" d="M-136.6,411.2c0,7.3-2.6,10.2-6.2,10.2c-4.4,0-6.1-4.6-6.1-9.9c0-5.3,2.1-9.8,6.4-9.8
			C-137.9,401.7-136.6,406.8-136.6,411.2z M-145.1,411.5c0,4.4,0.8,6.6,2.3,6.6c1.6,0,2.2-2.9,2.2-6.8c0-3.4-0.5-6.4-2.2-6.4
			C-144.2,404.9-145.1,407.4-145.1,411.5z"/>
		<path class="st0" d="M-131.5,407.2l1.1,6.2c0.2,1.3,0.4,2.5,0.6,3.9h0.1c0.2-1.4,0.3-2.6,0.5-3.9l1.1-6.2h3.7l-3.8,14h-3.5
			l-3.8-14H-131.5z"/>
		<path class="st0" d="M-120.3,415.5c0.1,2.2,1.3,3,3,3c1.1,0,2-0.2,2.7-0.5l0.5,2.7c-1,0.4-2.4,0.6-3.9,0.6c-3.8,0-5.9-2.5-5.9-6.9
			c0-4.7,2.4-7.5,5.6-7.5c3,0,4.8,2.4,4.8,6.6c0,1,0,1.5-0.1,1.9H-120.3z M-116.9,412.9c0-1.8-0.5-3.2-1.6-3.2
			c-1.2,0-1.7,1.8-1.7,3.2H-116.9z"/>
		<path class="st0" d="M-111.4,411.4c0-1.4-0.1-2.9-0.1-4.2h3.3l0.2,2h0.1c0.6-1.5,1.7-2.3,2.8-2.3c0.4,0,0.6,0,0.8,0.1v3.7
			c-0.2-0.1-0.5-0.1-0.8-0.1c-0.8,0-1.9,0.5-2.3,2c-0.1,0.3-0.1,0.8-0.1,1.4v7.1h-3.8V411.4z"/>
	</g>
	<g>
		<g>
			<polygon class="st0" points="-47.9,395.6 -45.4,394.3 -42.8,395.6 -43.3,392.8 -41.3,390.8 -44.1,390.4 -45.4,387.8 -46.6,390.4 
				-49.5,390.8 -47.4,392.8 			"/>
			<polygon class="st0" points="-0.8,450.6 2.2,449.1 5.2,450.6 4.6,447.3 7,444.9 3.7,444.4 2.2,441.4 0.7,444.4 -2.7,444.9 
				-0.2,447.3 			"/>
			<path class="st0" d="M-6.1,422.1c-3.6-4-8.9-6-14.3-6c-4.3,0-7.5,1.2-10.5,3l0.4-7.1c0,0,1.2,0,7,0c21,0,20.5-17.2,20.5-17.2
				s-7.4,2.6-19.3,2.6c-3.6,0-21.9,0-21.9,0l-1.6,28.6l11.1,5.5c2.6-2,5-3.5,8.4-3.5c3.8,0,6.4,2,6.4,5.3v0.2c0,3-2.5,5.3-6.9,5.3
				c-4.5,0-8.9-2.2-13.6-6l-10.1,11.8c6.1,5.5,13.3,9,24,9c11.6,0,20.8-5,23.6-14C0.1,428.1-6.1,422.1-6.1,422.1z"/>
		</g>
		<path class="st0" d="M-54.4,422.1c-3.6-4-8.9-6-14.3-6c-4.3,0-7.5,1.2-10.5,3l0.4-7.1c0,0,1.2,0,7,0c21,0,20.5-17.2,20.5-17.2
			s-7.4,2.6-19.3,2.6c-3.6,0-21.9,0-21.9,0l-1.6,28.6l11.1,5.5c2.6-2,5-3.5,8.4-3.5c3.8,0,6.4,2,6.4,5.3v0.2c0,3-2.5,5.3-6.9,5.3
			c-4.5,0-8.9-2.2-13.6-6l-10.1,11.8c6.1,5.5,13.3,9,24,9c11.6,0,20.8-5,23.6-14C-48.1,428.1-54.4,422.1-54.4,422.1z M-61.7,400.5
			l0.7-1.7l0.9,1.6l1.8,0.1l-1.2,1.4l0.4,1.8l-1.7-0.7l-1.6,1l0.2-1.8l-1.4-1.2L-61.7,400.5z"/>
	</g>
</g>
</svg>
