<?xml version="1.0" encoding="utf-8"?>
<!-- Generator: Adobe Illustrator 19.0.0, SVG Export Plug-In . SVG Version: 6.00 Build 0)  -->
<svg version="1.1" id="Layer_1" xmlns="http://www.w3.org/2000/svg" xmlns:xlink="http://www.w3.org/1999/xlink" x="0px" y="0px"
	 viewBox="-91.6 228.6 354.1 335.5" style="enable-background:new -91.6 228.6 354.1 335.5;" xml:space="preserve">
<style type="text/css">
	.st0{fill:#ABABAB;}
</style>
<g>
	<g>
		<path class="st0" d="M206.8,564.1H-35.8c-30.8,0-55.8-25-55.8-55.8V284.4c0-30.8,25-55.8,55.8-55.8h242.6
			c30.8,0,55.8,25,55.8,55.8v223.9C262.6,539,237.5,564.1,206.8,564.1z M-35.8,232.8c-28.4,0-51.5,23.1-51.5,51.5v223.9
			c0,28.4,23.1,51.5,51.5,51.5h242.6c28.4,0,51.5-23.1,51.5-51.5V284.4c0-28.4-23.1-51.5-51.5-51.5H-35.8z"/>
	</g>
	<g>
		<path class="st0" d="M35.2,302c1.5-1.4,2.2-1.4,3-1.1c1,0.4,1.1,1.7,1.1,3.3v23.1c0,1.2,0.4,1.3,0.9,1.1l4.3-1.1
			c0.3-0.2,0.7-0.5,0.7-0.8v-15.6c0-8.6,3.1-11,6.2-11c3.1,0,3.6,2.5,3.6,5.9v21.5c0,1.2,0.4,1.3,1,1.1l4.3-1.2
			c0.3-0.1,0.7-0.4,0.7-0.8v-16.7c0-7.6,2.4-9.9,5.9-9.9c2.6,0,3.7,2.5,3.7,5.9v14.1c0,5.1,1.5,7.6,4.7,8.4c3.4,0.9,7.3-0.5,9.6-4.2
			c1.1,3,4,4.5,8.2,4.5c4,0,6.4-2.1,7.5-4.2c0.3-0.6-0.3-1-0.5-0.7c-1.7,2.2-3.7,2.8-5.9,2.8c-2.4,0-4.1-2.3-4.1-5.5
			c0-5,3.1-7.9,9.6-9.8c2-0.6,2.6,0.2,2.6,1.7v7c0,5,1.2,7.5,4.5,8.4c4.1,0.9,7.8-1.4,9.8-6.5c0.3-0.8-0.7-1.1-0.9-0.3
			c-1.2,3.1-3.7,5.6-5.9,4.7c-1.4-0.7-1.8-1.9-1.8-5.7v-15.3c0-5.5-4-7-9.8-7c-5.9,0-10.4,1.9-11.8,6.1c-0.8,2.5,5.7,3.7,6,1
			c0.3-2.8,1.4-6.1,5.6-6.1c4.2,0,4.3,3.4,4.3,6.4v1.4c0,1.5-1,2.5-2.8,3c-9.4,2.2-15,6.5-15,11.3c0,0.5,0.1,0.9,0.1,1.3
			c-1.3,2.2-3.9,4.6-6.2,3.7c-1.4-0.6-1.7-2-1.7-5.9v-12.5c0-7.5-3.2-9.9-8.3-9.9c-2.5,0-4.7,0.8-6.7,2.6c-1,0.9-1.7,0.4-2.4-0.3
			c-1.5-1.4-3.4-2.4-6-2.4c-2.2,0-4.6,0.8-6.4,2.4c-0.8,0.7-1.6,1.1-2,0.3c-0.8-1.9-2.5-2.6-4.4-2.6c-2.4,0-4.3,1.3-6.1,3.2
			C34,301.7,34.6,302.4,35.2,302"/>
		<path class="st0" d="M14.5,328.4c12.8,0,18-8.7,17.9-14.5c-0.1-6.1-2-10.3-15.2-18.2c-8.5-5.1-10.7-7.8-11.2-11.2
			c-0.9-6.3,5-8.1,10-7.9c7.5,0.3,8.8,5,7.7,8c-0.8,2.1,0.1,3,2.5,3c1.9,0,3.1-0.5,3.4-2.9c0.5-5.2-5.6-9.7-14.6-9.7
			c-7.6,0-13.7,3-14.2,9.6c-0.4,5.2,2,9.2,13.5,16.2c10.2,6.3,12.6,9.3,13,14.3c0.7,7.9-6.5,11.7-12.8,11.7c-8.1,0-12.8-5.4-12.5-11
			c0.4-6.8,5.7-8.5,9.9-5.5c0.8,0.6,1.4-0.2,0.8-0.9c-2.3-2.5-5.3-3.4-8.3-2.9c-5.5,0.7-8,5.6-7,10.8
			C-1.5,323.1,5.5,328.4,14.5,328.4"/>
		<path class="st0" d="M115.1,299.7c1.8-0.8,2.9,0.3,2.9,2.2v25.5c0,1.2,0.4,1.3,0.9,1.1l4.4-1.2c0.3-0.1,0.6-0.4,0.6-0.8v-15.4
			c0-6.8,5.6-13.1,8.2-8.3c1.2,2,2.4,2.3,3.6,0.4c1.5-2.2,0.3-3.8-0.9-4.5c-3.4-1.9-7,1.3-9.8,4.5c-0.8,0.8-1.3,0.7-1.4-0.3
			c-0.9-4.1-3.5-5-5.3-5c-1.5,0-2.7,0.3-3.5,0.7C114.1,299.2,114.5,300,115.1,299.7"/>
		<path class="st0" d="M144,328.2c4.5,0.9,8.6-0.9,10.9-5.6c0.3-0.8-0.6-1.3-0.9-0.4c-1,2.5-4.2,5.2-7.1,4.1c-1.4-0.4-2-1.8-2-4.4
			v-14.7c0-5.3,1.7-7.4,5.5-7.4h2.5c0.3,0,0.6-0.3,0.6-0.6s-0.3-0.7-0.6-0.7h-6c-1,0-2-0.5-2-2.2v-3.6c0-0.5-0.2-0.8-0.7-0.9
			l-3.9-1.2c-0.6-0.2-1,0-1,0.9v29.8C139.3,325.2,140.8,327.6,144,328.2"/>
		<path class="st0" d="M-9.4,398.8c-0.8,2-1.9,2.3-3.5,2.3c-1.1,0-1.8-0.9-1.8-3.3v-11.8c-0.6,0.6-1.5,0.9-2.4,0.9
			c-0.4,0-0.9-0.1-1.3-0.2V397c0,3.9,2.2,5.3,4.5,5.3c2.5,0,3.8-1,4.8-2.7c0,0,0-0.1,0-0.1C-9.1,399.1-9.2,398.5-9.4,398.8"/>
		<path class="st0" d="M-15,383.3c0-1.2-0.9-2.1-2.1-2.1c-1.2,0-2.1,0.9-2.1,2.1s0.9,2.1,2.1,2.1C-15.9,385.4-15,384.5-15,383.3"/>
		<path class="st0" d="M-0.3,398.5c-0.6,1.5-2.5,3.2-4.4,2.5c-0.9-0.3-1.2-1.1-1.2-2.7v-9c0-3.3,1-4.5,3.4-4.5h1.6
			c0.2,0,0.4-0.2,0.4-0.4c0-0.2-0.2-0.4-0.4-0.4h-3.7c-0.6,0-1.2-0.3-1.2-1.3v-2.2c0-0.3-0.1-0.5-0.4-0.6l-2.4-0.7
			c-0.4-0.1-0.6,0-0.6,0.6V398c0,0.5,0.1,1,0.2,1.4c0,0.1,0,0.1,0,0.1l0,0c0.3,1.4,1.2,2.4,2.7,2.6c2.7,0.6,5.1-0.6,6.6-3.3v-0.6
			C0.1,398.2-0.1,398.2-0.3,398.5"/>
		<path class="st0" d="M-23.8,383.8c-0.9-0.4-2.2,0.1-2.9,0.8c-0.8,1-0.7,2.2,0.2,2.1c2.1-0.2,3.3,2.1,3.1,5.1
			c-0.4,5.8-3.5,9.4-5.7,9.4c-1.1,0-1.3-0.7-1.3-2.7V385c0-0.2-0.2-0.4-0.4-0.5l-2.5-0.7c-0.4-0.1-0.6-0.1-0.6,0.7v8.7
			c0,4.5-2.6,8.1-5,8.1c-1,0-1.1-0.9-1.1-2.6v-11.7c0-1.7-0.4-3.2-2.5-3.2c-1.7,0-3.5,1.1-4.5,2.3c-0.3,0.3,0.1,0.8,0.4,0.5
			c1-0.9,1.7-1.2,2.4-0.8c0.5,0.3,0.6,0.9,0.6,1.9v10.2c0,3.4,1.4,4.5,3.6,4.5c2.3,0,3.8-1.6,4.8-2.6c0.7-0.8,1.4-0.6,1.7,0.2
			c0.4,1.2,0.8,2.5,3.2,2.5c5.2,0,9.6-7.5,9.8-12.1C-20.4,386.3-21.8,384.7-23.8,383.8"/>
		<path class="st0" d="M14.5,402.1c2.5,0.6,4.8-0.8,6-3.9c0.2-0.5-0.4-0.7-0.6-0.2c-0.7,1.9-2.2,3.4-3.6,2.8c-0.8-0.4-1-1.1-1-3.5
			V390c0-4.6-2.6-6.2-6.4-6.2c-1.6,0-3,0.6-4.3,1.3c-0.3,0.2-0.8,0.2-0.8-0.8v-13.1c0-0.3-0.2-0.5-0.4-0.6l-2.5-0.7
			c-0.4-0.1-0.6,0-0.6,0.6v27.8c0.1,0.1,0.2,0.2,0.1,0.5c0,0-0.1,0.1-0.1,0.1v2.7c0,0.7,0.3,0.8,0.6,0.7l2.5-0.7
			c0.2-0.1,0.4-0.3,0.4-0.5v-8.7c0-5.3,2.1-7.8,5.1-7.8c2.4,0,2.7,1.7,2.7,3.8v8.6C11.6,400.1,12.5,401.7,14.5,402.1"/>
		<path class="st0" d="M133.5,344.8c-1.1,0-2.2-0.2-3.1-0.7v21.5c0,8.1,4.6,11.1,9.4,11.1c5.2,0,9-2.6,11.5-8.6
			c0.4-1.1-0.9-1.4-1.2-0.4c-1.6,4.1-4.9,6.6-8.2,6.6c-2.4,0-3.8-1.8-3.8-6.8v-24.3C136.8,344.2,135.2,344.8,133.5,344.8"/>
		<path class="st0" d="M227.7,338.2c-1.6,0.8-3.9,1.2-5.2,1.2c-2.1,0-2.8-1.4-7.8-1.4c-7.6,0-18.3,6-18.4,20.2
			c-0.1,3.5,0.5,6.5,1.5,9.1c-0.3-0.2-0.8-0.1-1,0.5c-1.3,3.7-5,7.9-8.7,6.2c-1.7-0.9-2.3-2.7-2.3-7.5V351c0-9.7-3.3-13.2-11.5-13.2
			c-3.9,0-6.9,1.5-10.2,3.7c-1.1,0.8-2.1,0.9-2.7-0.3c-1.2-2.3-3.1-3.4-5.6-3.4c-2.9,0-5.5,1.6-7.7,4.1c-0.5,0.7,0.2,1.5,0.9,1
			c2-1.7,2.8-1.8,3.8-1.4c1.3,0.5,1.4,2.2,1.4,4.2v29.6c0,1.5,0.5,1.6,1.3,1.4l5.5-1.4c0.3-0.2,0.9-0.7,0.9-1.1V353
			c0-8.9,6.4-13.2,10.6-13.2c4.7,0,5.7,2.8,5.7,9.7v16.3c0,6.5,1.7,9.8,6.1,10.7c5.3,1.2,10.8-0.7,13.7-8.2c0.1-0.2,0-0.3,0-0.4
			c2.4,5.7,7,8.9,11.6,8.9c5.1,0,8.1-2.7,9.5-5.3c0.4-0.8-0.4-1.1-0.8-0.5c-2.2,2.8-4.9,3.4-7.6,2.6c-5.6-1.4-7.5-8.4-7.4-15.8
			c0.2-11.2,6-17.9,11.1-17.9c4.4,0,6.8,2.9,6.8,7.3v30.8c0,12.6-7.2,15.7-13.9,14.8c-2.8-0.3-4.2-1.5-5.1,1.6
			c-0.9,3.3,0.1,4.7,3.1,4.7c5.7,0,10-2.3,14.2-8.8c2.4-3.7,5.8-7.3,8.1-8.1c0.4-0.2,0.8-0.7,0.8-1.2v-42
			C228.5,338.1,228.3,338,227.7,338.2"/>
		<path class="st0" d="M232.1,328.9c0,2.7,2.2,4.9,4.9,4.9c2.7,0,4.9-2.2,4.9-4.9c0-2.7-2.2-4.9-4.9-4.9
			C234.3,324,232.1,326.2,232.1,328.9z M230.9,328.9c0-3.4,2.7-6.1,6.1-6.1c3.4,0,6.1,2.7,6.1,6.1c0,3.4-2.7,6.1-6.1,6.1
			C233.7,335,230.9,332.3,230.9,328.9z M234.2,332.3v-7h3c0.7,0,1.3,0.1,1.6,0.2c0.4,0.1,0.6,0.3,0.8,0.7c0.2,0.3,0.3,0.7,0.3,1.1
			c0,0.5-0.2,1-0.5,1.3c-0.3,0.3-0.8,0.5-1.4,0.6c0.3,0.2,0.5,0.4,0.7,0.6c0.2,0.2,0.5,0.6,0.8,1.1l0.9,1.3h-1.7l-1-1.5
			c-0.4-0.5-0.6-0.9-0.7-1c-0.1-0.1-0.3-0.2-0.4-0.3c-0.2,0-0.4-0.1-0.7-0.1h-0.3v2.9H234.2z M235.6,328.3h1c0.7,0,1.1,0,1.3-0.1
			c0.2-0.1,0.3-0.2,0.4-0.3c0.1-0.2,0.1-0.3,0.1-0.5c0-0.2,0-0.4-0.2-0.6c-0.1-0.2-0.3-0.2-0.5-0.3c-0.1,0-0.5,0-1,0h-1.1V328.3z"/>
		<path class="st0" d="M128.9,337.5c0,2.5,2,4.6,4.6,4.6c2.5,0,4.6-2,4.6-4.6c0-2.5-2-4.6-4.6-4.6C131,333,128.9,335,128.9,337.5"/>
		<path class="st0" d="M-2.4,358.9c0.4-1.6-1.2-1.7-1.7-0.4c-3.6,8.5-10.7,14.2-20.7,14.2c-14,0-24.2-13.6-24.2-31.8
			s9.9-29.9,23.5-29.9c8.2,0,14.2,3.6,15.2,9.2c0.4,2.2-0.5,4.4-2.8,5c-2.6,0.5-1.7,7.9,1.1,7.6c5.4-0.8,7.5-5.6,7.5-9.8
			c0-7.4-7.3-14.4-21-14.4c-17.4,0-31.8,12.9-31.8,34.1c0,20,14.6,34.2,32.4,34.2C-13.9,376.8-5.1,368.4-2.4,358.9"/>
		<path class="st0" d="M92.3,331.7c-1.1,0-2.2-0.2-3.3-0.4v44c0,1.5,0.5,1.6,1.3,1.4l5.2-1.4c0.3-0.2,0.9-0.7,0.9-1.1v-5.3
			c0-7.8,2.2-13.9,6.2-14.3c3.5-0.4,4.2,1.6,5.3,11c1,7.5,4.1,10,7.6,10.8c5.6,1.5,11.2-1.7,13.6-8.2c0.4-1.1-0.8-1.5-1.2-0.4
			c-1.1,3.1-4.7,7.6-8.5,5.9c-2.6-1.2-3.8-3.4-4.7-11c-1.2-10.8-5.7-11.1-9.4-10.5c-1.5,0.2-2.1-0.8-1.3-1.8
			c6.1-8.4,11.8-7.5,13.1-5.2c1.7,3,6.7-2.7,5.5-4.7c-1-1.5-2.2-2.5-4.8-2.5c-6,0-11.5,7.5-18.5,15.3c-1.7,1.8-2.9,1.2-2.9-1.6V331
			C95.1,331.5,93.8,331.7,92.3,331.7"/>
		<path class="st0" d="M40.6,357.3c0-11.7-7.3-19.4-19.4-19.4c-12,0-19.3,7.7-19.3,19.4s7.3,19.4,19.3,19.4
			C33.4,376.7,40.6,369,40.6,357.3 M9.8,357.3c0-11.1,4.8-18,11.4-18c6.7,0,11.5,6.9,11.5,18c0,11.1-4.8,18-11.5,18
			C14.6,375.3,9.8,368.4,9.8,357.3"/>
		<path class="st0" d="M64.3,337.9c-12,0-19.3,7.7-19.3,19.4c0,11.7,7.3,19.4,19.3,19.4c12.1,0,19.4-7.7,19.4-19.4
			C83.7,345.6,76.4,337.9,64.3,337.9 M64.3,375.3c-6.6,0-11.4-6.9-11.4-18c0-11.1,4.8-18,11.4-18c6.7,0,11.5,6.9,11.5,18
			C75.7,368.4,71,375.3,64.3,375.3"/>
		<path class="st0" d="M169.2,407.5c0,2.7,2.2,4.9,4.9,4.9c2.7,0,4.9-2.2,4.9-4.9c0-2.7-2.2-4.9-4.9-4.9
			C171.4,402.5,169.2,404.7,169.2,407.5z M168,407.5c0-3.4,2.7-6.1,6.1-6.1c3.4,0,6.1,2.7,6.1,6.1c0,3.4-2.7,6.1-6.1,6.1
			C170.7,413.6,168,410.8,168,407.5z M171.2,410.9v-7h3c0.7,0,1.3,0.1,1.6,0.2c0.4,0.1,0.6,0.3,0.8,0.7c0.2,0.3,0.3,0.7,0.3,1.1
			c0,0.5-0.2,1-0.5,1.3c-0.3,0.3-0.8,0.5-1.4,0.6c0.3,0.2,0.5,0.4,0.7,0.6c0.2,0.2,0.5,0.6,0.8,1.1l0.9,1.3h-1.7l-1-1.5
			c-0.4-0.5-0.6-0.9-0.7-1c-0.1-0.1-0.3-0.2-0.4-0.3c-0.2,0-0.4-0.1-0.7-0.1h-0.3v2.9H171.2z M172.6,406.9h1c0.7,0,1.1,0,1.3-0.1
			c0.2-0.1,0.3-0.2,0.4-0.3c0.1-0.2,0.1-0.3,0.1-0.5c0-0.2,0-0.4-0.2-0.6c-0.1-0.2-0.3-0.2-0.5-0.3c-0.1,0-0.5,0-1,0h-1.1V406.9z
			 M153.8,460.9c0.2-0.1,0.4-0.1,0.7-0.1c0.7,1.7,1.8,3.9,3.1,6.5c1.4,2.5,3.7,3.8,7,3.8c1.6,0,2.9-0.5,3.9-1.4c1-1,1.5-2.3,1.5-3.9
			c0-1.6-1-3-3.1-4.1c-2-1-4.4-2.2-7-3.3c-2.6-1.2-4.3-2.4-5.2-3.6c-0.4-0.5-0.7-1.2-0.9-1.8V460.9z M79,462.8
			c0-0.3-1.6-1.8-4.9-4.4c-3.2-2.6-6.2-5.2-8.9-7.7c-2.6-2.6-4.4-4.7-5.4-6.5c-0.9-1.7-1.5-2.8-1.8-3.1c-0.3-0.4-0.6-0.6-0.8-0.6
			c-0.8,0-1.9,0.6-3.1,1.8c-1.2,1.2-1.7,2.9-1.7,5c0,3.8,2,7.8,5.9,11.8c3.9,4,8.2,6,12.9,6c1.5,0,3.2-0.3,5-0.8
			C78.1,463.9,79,463.3,79,462.8z M86.9,388l-1.8,2.6l-2.7,1.8l2.7,1.8l1.8,2.6l1.8-2.6l2.6-1.7l-2.6-1.8L86.9,388z M-12.9,445.8
			c0-0.8-1.4,4.4-1.4,7.8c0,34,45.4,61.1,101.3,61.1c55.9,0,101.7-26.9,101.1-60.7c0-3.3-1.3-9-1.3-8.3c0,29.8-44.7,54.1-99.9,54.1
			C31.8,499.7-12.9,475.6-12.9,445.8z M153.7,483.4c19-9.4,30.8-23,30.9-36.8c0.1-11.3-8.6-22.6-22.8-31.8c0.1,0.1,0.1,0.3,0.1,0.4
			c0,0.4-1.4,1.3-4.2,2.8c-2.7,1.4-4.1,4.1-4.1,8.2v20.1c0.5-1.7,1.5-3.1,3-4.2c2.4-1.6,5.2-2.4,8.7-2.4c0.8,0,2.4,0.2,4.5,0.5
			c2.1,0.4,3.2,0.8,3.2,1.4l0.5,6.3c0,0.5-0.3,0.8-1,0.8c-1-1.7-2.3-3.3-3.7-4.6c-1.4-1.4-3.2-2.1-5.5-2.1c-1.4,0-2.5,0.3-3.4,1
			c-0.9,0.6-1.3,1.6-1.3,2.9c0,1.8,1.1,3.3,3.4,4.3c2.2,0.8,4.4,1.6,6.5,2.5c2.1,0.9,3.8,2.1,5.1,3.5c1.3,1.4,1.9,3.5,1.9,6.2
			c0,3.7-1.3,6.4-3.9,8.2c-2.5,1.7-5.5,2.6-8.9,2.6c-1.5,0-3.3-0.1-5.2-0.5c-1.8-0.3-3.1-0.6-3.9-1l-0.1,9.7
			C153.8,482.3,153.7,483,153.7,483.4z M19.8,483.4c17.4,8.6,41,14,67,14c24.9,0,47.7-5,65-13.1c-0.2-0.1-0.4-0.2-0.6-0.3
			c-0.3-0.2-0.7-0.5-1.1-1l-46.5-51.3c-0.7-0.8-1.3-1.3-1.8-1.3c-0.5,0-0.8,0.5-0.8,1.6v33.5c0,8.3,2.1,12.9,6.2,13.9
			c4.1,0.9,6.2,1.9,6.2,3c0,0.6-0.3,1-1,1.1c-0.6,0.1-1.5,0.2-2.7,0.2l-11.4-0.4l-8.3,0.4c-0.7,0-1.1,0.1-1.4,0.1
			c-1,0-1.5-0.4-1.5-1.3c0-0.8,1.5-2.1,4.6-3.9c3.1-1.8,4.6-4.6,4.6-8.4V468c-1.4,0.7-2.8,1-4.5,1c-1.7,0-3.5-0.5-5.4-1.5
			c-1.8-1-3.5-2.3-5-3.6c-1.8,1.6-4.2,2.9-7.2,3.8c-3,0.9-5.8,1.3-8.6,1.3c-5.3,0-9.4-1.1-12.5-3.3l4.8,6.6c3.2,4.4,5.9,7.1,8.2,8
			c2.4,0.9,3.6,1.6,3.6,2.2c0,0.9-0.4,1.3-1.3,1.3l-7.3-0.4c-0.5,0-1.5,0.1-2.9,0.2c-1.4,0.1-2.6,0.2-3.6,0.2c-1,0-1.9-0.2-2.5-0.5
			c-0.6-0.3-1.3-1.1-2.2-2.4L30.9,454c-0.5-0.7-1-1.3-1.5-1.9c-0.4-0.6-0.7-0.9-1-0.9c-0.4,0-1.1,0.4-1.9,1.3
			c-0.8,0.8-1.5,1.6-2.2,2.5c-0.7,0.8-1.2,1.5-1.4,2.1c-0.2,0.6-0.3,1.2-0.3,1.7v1.5v12.9c0,3.5,1.6,5.8,4.8,6.8
			c3.1,1.1,4.7,1.9,4.7,2.7c0,0.5-0.3,0.8-0.8,1c-0.5,0.1-1.2,0.2-1.9,0.2L19.8,483.4z M6.8,418.5c-11,8.4-17.4,18.3-17.4,28.1
			c0,11.5,7.7,22.2,20.2,30.8c0.8-1.8,1.2-4.4,1.2-7.9v-42.9C10.8,422.3,9.5,419.6,6.8,418.5z M91.2,395.3l-0.8,0.5l-3.6,5.2
			l-3.5-5.1l-0.9-0.6c-27.8,0.7-52.6,8.3-69.6,19l1.3,0l13.4-0.4c1.4,0,2,0.4,2,1.2c0,1-1.2,1.7-3.5,2.1c-2.3,0.4-3.5,2.8-3.5,7.3
			v22.6v1.6c0.1,0.5,0.2,0.8,0.5,0.7c0.4,0.1,1.2-0.5,2.4-1.7L38.4,435c2.3-2.3,4.7-4.6,7-6.9c3.3-3.6,5-6.4,5-8.3c0-1-1-1.8-3-2.3
			c-1.9-0.5-2.9-1-2.9-1.8c0-1.2,0.7-1.9,2.2-1.9l10.5,0.4l9.1-0.4c0.8,0,1.5,0.1,1.9,0.3c0.4,0.1,0.7,0.6,0.7,1.4
			c0,0.3-1.3,1.1-4,2.4c-2.7,1.3-5.5,3.2-8.4,5.9l-17,16.1c-0.4,0.4-0.9,0.9-1.4,1.5c-0.4,0.6-0.7,1-0.7,1.4c0,0.6,0.8,1.9,2.3,4.1
			l7.8,10.7c-0.5-1.4-0.7-2.9-0.7-4.4c0-3.7,1-6.9,3.1-9.5c2.1-2.5,4.5-3.6,6.8-5.3c-0.4-1-0.7-2-1-2.9c-0.2-1-0.4-2.1-0.4-3.4
			c0-3,1-5.5,3.1-7.4c2.1-1.9,4.7-2.8,7.7-2.8c1.4,0,2.9,0.2,4.5,0.7c1.6,0.6,3.1,1.1,4.7,1.7c0.3,0,0.6-0.2,1-0.5
			c0.4-0.3,0.8-0.5,1.1-0.5c0.3,0,0.5,0.1,0.6,0.3c0.1,0.2,0.1,0.5,0.1,1c0,1.2,0.1,2.9,0.4,5.2c0.3,2.3,0.4,3.9,0.4,4.6
			c0,0.9-0.3,1.4-0.9,1.4c-0.5,0-1-1-1.6-2.9c-0.6-2-1.8-3.9-3.6-5.7c-1.8-1.9-4-2.8-6.7-2.8c-1.4,0-2.6,0.4-3.3,1.3
			c-0.7,0.9-1.1,2-1.1,3.5c0,2.8,1.7,6.3,5,10.6c3.4,4.3,7,8.2,10.9,11.7c3.9,3.5,6.2,5.3,6.9,5.3c0.3,0,0.8-0.7,1.5-2
			c0.7-1.4,1-2.9,1-4.6c0-3.2-1.2-5.1-3.6-5.7c-2.4-0.6-3.6-1.2-3.6-1.6c0-0.6,0.4-0.9,1.2-0.9l6.6,0.2c1.1,0,2,0,2.8-0.1
			c0.8,0,1.7-0.1,2.5-0.2c0.7,0,1,0.3,1,0.8c0,0.5-0.4,0.9-1.2,1.2c-0.7,0.2-1.3,1.4-1.6,3.4c-0.3,2-0.7,4.1-1.5,6.3
			c-0.8,1.6-1.5,3.1-2.2,4.7c0,1.1,1.2,2.4,3.5,3.9c2.3,1.4,2.5,1.5,3.6,1.5c0.5,0,1.5-0.2,2.2-1v-29.9c0-7.4-1.8-12.1-5.4-13.9
			c-3.6-1.8-5.4-3-5.4-3.3c0-1.1,0.5-1.7,1.6-1.7c0.7,0,1.7,0.1,3.1,0.2c1.5,0.1,2.3,0.2,2.3,0.2l10.2-0.4c1.4,0,2.2,0.3,2.6,1
			c0.4,0.7,0.7,1.2,1.1,1.6l38.9,43.5c0.7,0.8,1.3,1.4,1.8,1.9c0.5,0.5,0.9,0.7,1.2,0.7c0.5,0,0.8-1.2,0.8-3.6v-32.8
			c0-3.5-1.9-6-5.9-7.4c-3.9-1.4-5.9-2.5-5.9-3c0-1.1,0.5-1.7,1.6-1.7l11,0.4l10.3-0.4l0.3,0C143.4,403.4,118.8,396,91.2,395.3z
			 M86.9,383.7l3.4,5l3,2c56.3,2.1,99.5,29.9,99.5,64.7c0,35-47.4,63.7-105.8,63.7c-58.4,0-105.8-28.7-105.8-63.7
			c0-35.2,43.9-62.7,99.3-64.7l2.9-2L86.9,383.7z M165,429c0,2.3-1,4.5-2.9,6.6c-1.9,2.1-3.5,3.2-4.9,3.2c-0.4,0-0.6-0.2-0.6-0.6
			c0-0.1,0.6-0.8,1.8-1.9c1.2-1.2,1.8-2.4,1.8-3.8c0-1.2-0.6-2.3-1.7-3.3c-1.1-1-1.7-1.6-1.7-1.7c0-0.3,0.4-0.8,1.3-1.6
			c0.9-0.8,1.5-1.4,2-1.9c0.5-0.5,0.9-0.7,1.3-0.7c0.9,0,1.7,0.6,2.5,1.8C164.6,426.3,165,427.6,165,429z"/>
	</g>
</g>
</svg>
